<svg width="367" height="461" viewBox="0 0 367 461" fill="none" xmlns="http://www.w3.org/2000/svg">
<path d="M365.061 335.416C363.148 326.942 359.306 309.924 345.439 298.231C332.9 287.66 318.068 281.706 318.068 281.706C318.068 281.706 316.682 268.621 316.52 250.717C316.382 235.649 313.852 224.964 309.805 207.854C305.158 188.199 302.822 178.324 295.862 166.021C284.482 145.9 269.557 134.878 265.391 131.935C252.361 122.738 240.806 119.279 226.149 114.892C214.888 111.53 203.363 109.123 191.698 107.697C193.648 104.46 196.3 101.701 199.458 99.6245C204.191 96.5587 205.347 98.1591 218.159 94.1429C232.348 89.6913 239.442 87.4686 242.971 81.7907C248.296 73.2065 246.214 58.276 237.278 51.9849C228.693 45.9361 217.279 50.357 209.906 53.2112C191.818 60.2258 172.466 78.4398 172.298 100.474C172.284 102.992 172.5 105.506 172.941 107.985C170.209 108.349 167.564 108.758 165.007 109.211C161.043 102.013 156.895 92.5425 159.145 82.3058C161.454 71.79 169.569 64.8307 172.393 62.3964C186.017 50.7034 196.536 56.0471 203.925 46.9018C211.675 37.3058 210.976 17.9329 199.844 7.35279C187.412 -4.45365 168.787 1.17518 164.345 2.518C148.216 7.39264 139.794 20.0821 136.753 24.8065C120.81 49.5905 125.173 84.5224 142.421 105.275C144.588 107.871 146.964 110.284 149.525 112.492C146.401 113.277 143.482 114.089 140.775 114.898C126.111 119.286 114.556 122.741 101.533 131.941C97.3661 134.884 82.4418 145.906 71.0615 166.027C64.1021 178.33 61.7659 188.205 57.1182 207.86C53.0713 224.967 50.542 235.655 50.404 250.723C50.2385 268.627 48.8527 281.712 48.8527 281.712C48.8527 281.712 34.0203 287.666 21.4812 298.237C7.61144 309.93 3.76997 326.948 1.85997 335.422C1.21002 338.301 -1.65653 351.732 1.3449 368.99C4.27275 385.833 11.226 397.339 14.7732 403.076C20.9738 413.106 28.8317 422.012 38.012 429.414C52.544 441.119 66.4627 445.831 76.2304 449.035C86.5806 452.435 96.3851 453.882 115.994 456.779C127.046 458.413 136.397 459.769 149.047 460.394C160.52 460.964 172.018 460.797 183.469 459.894C194.921 460.797 206.419 460.964 217.892 460.394C230.545 459.781 239.893 458.413 250.945 456.779C270.566 453.882 280.358 452.435 290.712 449.035C300.479 445.825 314.398 441.113 328.93 429.414C338.109 422.011 345.967 413.105 352.169 403.076C355.713 397.339 362.669 385.833 365.597 368.99C368.58 351.726 365.714 338.295 365.061 335.416Z" fill="#FFD000"/>
<path d="M286.929 362.535V376.247C286.929 383.873 283.88 391.186 278.453 396.578C273.026 401.971 265.665 405 257.991 405H112.863C105.188 404.999 97.8289 401.969 92.4028 396.577C86.9767 391.185 83.9285 383.872 83.9285 376.247V362.535C83.9285 354.91 86.9767 347.597 92.4028 342.205C97.8289 336.813 105.188 333.783 112.863 333.783H153.326C154.994 319.859 168.731 308.993 185.428 308.993C202.126 308.993 215.863 319.852 217.531 333.783H257.991C265.665 333.783 273.026 336.812 278.453 342.204C283.88 347.596 286.929 354.909 286.929 362.535Z" fill="#FBA927"/>
<path d="M173.811 342.199C175.335 342.199 176.57 338.425 176.57 333.768C176.57 329.112 175.335 325.337 173.811 325.337C172.287 325.337 171.052 329.112 171.052 333.768C171.052 338.425 172.287 342.199 173.811 342.199Z" fill="#624141"/>
<path d="M200.638 342.199C202.247 342.199 203.551 338.425 203.551 333.768C203.551 329.112 202.247 325.337 200.638 325.337C199.03 325.337 197.726 329.112 197.726 333.768C197.726 338.425 199.03 342.199 200.638 342.199Z" fill="#624141"/>
<path fill-rule="evenodd" clip-rule="evenodd" d="M69.5745 235C69.7496 259.49 90.2025 279.291 115.407 279.291C140.612 279.291 161.065 259.49 161.24 235H69.5745Z" fill="white"/>
<path fill-rule="evenodd" clip-rule="evenodd" d="M124.627 235L105.928 235.217C105.928 235.217 105.928 235.217 105.928 235.217C105.988 240.38 110.223 244.517 115.386 244.458C120.55 244.398 124.687 240.164 124.627 235C124.627 235 124.627 235 124.627 235Z" fill="#040202"/>
<path fill-rule="evenodd" clip-rule="evenodd" d="M203.928 235C204.104 259.49 224.557 279.291 249.761 279.291C274.966 279.291 295.419 259.49 295.594 235H203.928Z" fill="white"/>
<path fill-rule="evenodd" clip-rule="evenodd" d="M258.981 235L240.282 235.217C240.282 235.217 240.282 235.217 240.282 235.217C240.342 240.38 244.577 244.517 249.74 244.458C254.904 244.398 259.041 240.164 258.981 235C258.981 235 258.981 235 258.981 235Z" fill="#040202"/>
<path d="M72.4285 207.5H156.928M201.928 207.5H293.928" stroke="black" stroke-width="3" stroke-linecap="round"/>
<rect x="96.9285" y="364" width="177" height="14" rx="5" fill="#FF5D02"/>
</svg>
