<svg width="256" height="241" viewBox="0 0 256 241" fill="none" xmlns="http://www.w3.org/2000/svg">
<path d="M235.224 96L255.224 94C254.78 107.679 239.847 107.924 232.224 116L248.224 120C243.225 129.136 234.22 124.899 227.861 130.6C222.18 135.692 219.097 145.065 213.935 151C199.988 167.035 178.94 180.065 157.224 181C157.559 197.229 162.474 222.345 148.119 234.606C140.307 241.278 126.66 238.172 117.224 239.285C102.275 241.049 87.1669 239.694 72.2239 239.039C50.2749 238.078 27.8189 241.326 14.4529 220C2.74488 201.319 0.231877 174.602 0.223877 153C0.220877 145.498 -1.94211 133.619 7.23889 130.653C17.8339 127.23 28.7279 136.37 37.2239 141.397C50.5679 149.291 62.6849 154 78.2239 154C68.3039 141.693 60.1439 128.613 56.6489 113C50.0929 83.709 57.1999 52.584 77.3979 30C109.211 -5.57277 169.838 -9.69928 205.224 23.09C213.71 30.954 220.791 39.631 225.976 50C233.431 64.911 235.224 79.587 235.224 96Z" fill="#FFD000"/>
<path d="M64.5864 213.5C57.6665 208.856 45.1415 195.996 40.5172 184.222C35.8929 172.449 40.1771 168.218 47.1674 167.851C54.1578 167.484 84.8261 169.878 94.233 177.394C103.64 184.911 106.372 198.787 98.0404 211.742C89.7087 224.697 71.5062 218.143 64.5864 213.5Z" fill="#FFB600"/>
<path d="M255.224 94L235.224 96L227.224 131L230.724 128.5C230.724 128.5 238.724 127 243.224 125C247.724 123 248.224 120 248.224 120L232.224 116L236.724 112.5L247.224 106.5C250.724 104.5 252.733 103.067 254.224 99.5C255.066 97.4858 255.224 94 255.224 94Z" fill="#FFB600"/>
<ellipse rx="12.5" ry="6.5" transform="matrix(-1 0 0 1 196.5 103.5)" fill="#FCB3B9"/>
<path d="M212.379 73.0605C212.175 73.5404 208.698 88.4284 197.379 87.3684C186.059 86.3085 184.419 73.0605 184.419 73.0605" stroke="black" stroke-width="5" stroke-miterlimit="10" stroke-linecap="round"/>
</svg>
