<svg width="317" height="398" viewBox="0 0 317 398" fill="none" xmlns="http://www.w3.org/2000/svg">
<path d="M315.387 289.678C313.735 282.359 310.417 267.662 298.441 257.563C287.612 248.434 274.802 243.292 274.802 243.292C274.802 243.292 273.605 231.991 273.465 216.528C273.346 203.515 271.162 194.287 267.667 179.51C263.653 162.535 261.635 154.007 255.625 143.382C245.796 126.004 232.907 116.486 229.309 113.944C218.056 106.001 208.076 103.014 195.417 99.2252C185.692 96.3213 175.739 94.2425 165.665 93.0109C167.349 90.215 169.639 87.8327 172.366 86.0394C176.454 83.3916 177.452 84.7738 188.517 81.3052C200.771 77.4607 206.898 75.5411 209.946 70.6374C214.545 63.2238 212.747 50.3292 205.029 44.8961C197.615 39.6721 187.758 43.4901 181.39 45.9552C165.768 52.0132 149.055 67.7434 148.91 86.7728C148.898 88.9475 149.084 91.1187 149.466 93.2598C147.106 93.574 144.822 93.927 142.613 94.3189C139.19 88.102 135.608 79.9231 137.551 71.0823C139.545 62.0005 146.553 55.9901 148.992 53.8878C160.759 43.7893 169.843 48.4043 176.224 40.5061C182.917 32.2186 182.314 15.4875 172.7 6.35014C161.963 -3.84633 145.878 1.01493 142.042 2.17464C128.112 6.38456 120.838 17.3436 118.212 21.4238C104.444 42.8282 108.211 72.9966 123.108 90.9192C124.979 93.1609 127.031 95.2455 129.242 97.152C126.544 97.8298 124.024 98.5315 121.686 99.2305C109.022 103.019 99.0422 106.003 87.7945 113.949C84.1962 116.491 71.307 126.01 61.4786 143.387C55.4682 154.012 53.4506 162.541 49.4366 179.515C45.9416 194.29 43.7572 203.52 43.6381 216.534C43.4951 231.996 42.2983 243.297 42.2983 243.297C42.2983 243.297 29.4885 248.439 18.6592 257.568C6.68081 267.667 3.36319 282.365 1.71364 289.683C1.15232 292.169 -1.32334 303.769 1.26881 318.673C3.7974 333.22 9.8025 343.157 12.8659 348.111C18.2211 356.774 25.0074 364.465 32.9359 370.858C45.4862 380.967 57.5069 385.036 65.9427 387.803C74.8815 390.739 83.3489 391.989 100.284 394.491C109.829 395.902 117.905 397.073 128.829 397.613C138.738 398.105 148.668 397.961 158.558 397.181C168.448 397.961 178.378 398.105 188.287 397.613C199.214 397.083 207.287 395.902 216.832 394.491C233.778 391.989 242.235 390.739 251.176 387.803C259.612 385.031 271.633 380.961 284.183 370.858C292.111 364.464 298.897 356.773 304.253 348.111C307.314 343.157 313.322 333.22 315.85 318.673C318.426 303.764 315.951 292.164 315.387 289.678Z" fill="#FFD000"/>
<path d="M72.2973 219.547C81.8043 236.476 104.475 247.329 106.956 248.002C109.433 247.329 135.932 231.637 141.856 219.933C144.107 216.337 147.237 209.21 145.492 201.242C144.655 197.449 142.914 193.927 140.426 190.991C135.097 184.485 126.591 180.408 116.151 184.893C109.419 187.786 107.672 194.979 106.975 197.593C106.282 194.979 104.544 187.795 97.8246 184.898C89.193 181.179 78.8778 184.498 73.5433 191.005C71.0526 193.942 69.3091 197.465 68.468 201.259C66.7112 209.225 70.3468 216.076 72.2973 219.547Z" fill="#EF4423"/>
<path d="M180.297 219.547C189.804 236.476 212.475 247.329 214.956 248.002C217.433 247.329 243.932 231.637 249.856 219.933C252.107 216.337 255.237 209.21 253.492 201.242C252.655 197.449 250.914 193.927 248.426 190.991C243.097 184.485 234.591 180.408 224.151 184.893C217.419 187.786 215.672 194.979 214.975 197.593C214.282 194.979 212.544 187.795 205.825 184.898C197.193 181.179 186.878 184.498 181.543 191.005C179.053 193.942 177.309 197.465 176.468 201.259C174.711 209.225 178.347 216.076 180.297 219.547Z" fill="#EF4423"/>
<path d="M131.3 277.803C134.01 275.713 136.387 273.224 138.348 270.42C139.546 268.695 139.462 268.442 141.537 265.266C144.045 261.422 145.339 259.465 147.322 257.965C149.466 256.344 151.489 255.747 153.085 255.275C156.949 254.141 161.047 254.065 164.951 255.053C166.584 255.488 170.036 256.444 173.161 259.271C174.229 260.246 175.889 262.594 179.157 267.255C180.708 269.47 180.753 269.58 182.167 271.598C185.641 276.56 187.378 279.042 188.732 280.536C191.704 283.793 194.617 285.526 197.184 287.1C202.102 290.082 206.298 291.411 209.475 292.396C211.369 292.986 218.025 294.959 227.622 295.741C235.516 296.384 236.632 295.508 237.877 296.773C242.445 301.427 235.028 321.119 221.184 332.481C219.235 334.082 199.683 343.491 181.793 346.383C158.193 350.2 139.131 351.559 118.864 340.205C108.51 334.406 100.688 328.997 91.9935 318.737C81.8514 306.767 82.5804 303.504 83.342 302.389C84.1037 301.275 85.3027 301.556 89.1022 300.672C95.253 299.222 95.9809 299.815 101.835 298.009C109.221 295.719 109.606 295.649 114.806 293.226C118.028 291.717 120.083 289.812 123.207 286.941C126.206 284.175 128.917 281.114 131.3 277.803Z" fill="#FBA927"/>
<path d="M84.4327 303.008C85.338 300.035 96.2807 303.142 118.758 302.568C132.118 302.228 132.47 300.533 154.935 299.772C180.096 298.908 174.422 299.298 180.096 298.908C181.341 298.824 205.834 304.082 220.198 301.664C231.004 299.845 236.272 296.074 237.796 298.142C239.893 300.997 228.449 311.653 217.845 316.629C210.181 320.224 213.212 319.303 193.472 321.304C183.619 322.308 181.128 321.772 169.999 322.409C162.071 322.858 156.303 322.664 154.147 322.575C148.651 322.343 144.578 321.833 136.419 320.81C128.464 319.814 123.119 318.929 114.496 317.5C103.839 315.736 102.472 315.316 101.437 314.967C92.9099 312.082 83.5481 305.907 84.4327 303.008Z" fill="#DB4426"/>
<path d="M150.229 291.99C151.545 291.99 152.612 288.73 152.612 284.709C152.612 280.687 151.545 277.427 150.229 277.427C148.913 277.427 147.846 280.687 147.846 284.709C147.846 288.73 148.913 291.99 150.229 291.99Z" fill="#624141"/>
<path d="M173.398 291.99C174.787 291.99 175.914 288.73 175.914 284.709C175.914 280.687 174.787 277.427 173.398 277.427C172.009 277.427 170.883 280.687 170.883 284.709C170.883 288.73 172.009 291.99 173.398 291.99Z" fill="#624141"/>
<path d="M122.533 140.014C104.105 135.99 86.7886 142.75 80.434 146.634" stroke="black" stroke-width="0.3" stroke-linecap="round"/>
<path d="M199.73 139.974C218.158 135.949 235.475 142.71 241.829 146.593" stroke="black" stroke-width="0.3" stroke-linecap="round"/>
<g filter="url(#filter0_f_319_210)">
<ellipse cx="70" cy="260.5" rx="21" ry="9.5" fill="#FF1392"/>
</g>
<g filter="url(#filter1_f_319_210)">
<ellipse cx="254" cy="264.5" rx="21" ry="9.5" fill="#FF1392"/>
</g>
<defs>
<filter id="filter0_f_319_210" x="19" y="221" width="102" height="79" filterUnits="userSpaceOnUse" color-interpolation-filters="sRGB">
<feFlood flood-opacity="0" result="BackgroundImageFix"/>
<feBlend mode="normal" in="SourceGraphic" in2="BackgroundImageFix" result="shape"/>
<feGaussianBlur stdDeviation="15" result="effect1_foregroundBlur_319_210"/>
</filter>
<filter id="filter1_f_319_210" x="203" y="225" width="102" height="79" filterUnits="userSpaceOnUse" color-interpolation-filters="sRGB">
<feFlood flood-opacity="0" result="BackgroundImageFix"/>
<feBlend mode="normal" in="SourceGraphic" in2="BackgroundImageFix" result="shape"/>
<feGaussianBlur stdDeviation="15" result="effect1_foregroundBlur_319_210"/>
</filter>
</defs>
</svg>
