<svg width="91" height="115" viewBox="0 0 91 115" fill="none" xmlns="http://www.w3.org/2000/svg">
<path d="M90.5366 83.1847C90.0622 81.0831 89.1095 76.8625 85.6705 73.9626C82.5607 71.3409 78.8822 69.8644 78.8822 69.8644C78.8822 69.8644 78.5385 66.6193 78.4982 62.1789C78.464 58.4419 77.8368 55.7921 76.8331 51.5487C75.6804 46.6742 75.1011 44.2251 73.3751 41.1739C70.5527 36.1838 66.8514 33.4504 65.8181 32.7205C62.5867 30.4395 59.721 29.5818 56.0858 28.4938C53.2931 27.6599 50.435 27.063 47.542 26.7093C48.0256 25.9064 48.6832 25.2223 49.4664 24.7073C50.6403 23.947 50.927 24.3439 54.1044 23.3478C57.6232 22.2438 59.3827 21.6926 60.2578 20.2845C61.5785 18.1555 61.0622 14.4527 58.8459 12.8925C56.7169 11.3923 53.8862 12.4887 52.0576 13.1966C47.5716 14.9363 42.7724 19.4534 42.7306 24.9179C42.7273 25.5424 42.7807 26.1659 42.8902 26.7808C42.2125 26.871 41.5566 26.9724 40.9225 27.0849C39.9394 25.2996 38.9106 22.9509 39.4687 20.4122C40.0413 17.8042 42.0539 16.0783 42.7541 15.4746C46.1331 12.5747 48.7418 13.8999 50.5742 11.6318C52.4963 9.252 52.3229 4.44744 49.5622 1.82352C46.479 -1.10452 41.86 0.291449 40.7583 0.624476C36.7582 1.83341 34.6695 4.98045 33.9153 6.15212C29.9615 12.2987 31.0435 20.9619 35.3211 26.1086C35.8585 26.7524 36.4477 27.351 37.0828 27.8985C36.308 28.0931 35.5842 28.2946 34.9128 28.4953C31.2761 29.5833 28.4104 30.4403 25.1805 32.722C24.1472 33.4519 20.4459 36.1853 17.6236 41.1754C15.8976 44.2266 15.3182 46.6757 14.1656 51.5502C13.1619 55.7928 12.5346 58.4434 12.5004 62.1804C12.4594 66.6208 12.1157 69.8659 12.1157 69.8659C12.1157 69.8659 8.43719 71.3425 5.32742 73.9641C1.88767 76.864 0.93497 81.0846 0.461282 83.1862C0.300091 83.9001 -0.410826 87.2312 0.333541 91.5111C1.05966 95.6884 2.7841 98.5419 3.66381 99.9645C5.2016 102.452 7.15038 104.661 9.42715 106.497C13.0311 109.399 16.4831 110.568 18.9055 111.363C21.4724 112.206 23.9039 112.565 28.767 113.283C31.508 113.689 33.827 114.025 36.9642 114.18C39.8096 114.321 42.6611 114.28 45.5012 114.056C48.3413 114.28 51.1929 114.321 54.0383 114.18C57.1762 114.028 59.4944 113.689 62.2354 113.283C67.1016 112.565 69.5301 112.206 72.0977 111.363C74.5202 110.567 77.9721 109.398 81.5761 106.497C83.8526 104.661 85.8013 102.452 87.3394 99.9645C88.2184 98.5419 89.9436 95.6884 90.6697 91.5111C91.4095 87.2297 90.6986 83.8986 90.5366 83.1847Z" fill="#FFD000"/>
<path d="M77.2453 97.0175C74.8629 99.6642 70.0213 103.001 64.6795 105.226C55.4498 109.073 47.3275 108.524 38.409 107.914C27.7443 107.188 22.73 104.89 19.8651 103.247C17.5004 101.891 15.2276 100.192 13.7573 98.7675C20.1254 101.907 26.9428 104.023 33.9617 105.039C54.1672 107.931 70.2984 100.707 77.2453 97.0175Z" fill="#F86B21"/>
<path d="M77.4434 96.8533C77.3918 96.9139 77.3376 96.9795 77.2808 97.0376C70.3296 100.71 54.1882 107.901 33.9699 105.02C26.9467 104.01 20.125 101.904 13.7528 98.7795L13.6545 98.6849C12.5199 97.5791 11.9009 96.6513 12.1329 96.2007C12.4733 95.5405 14.3176 96.5566 17.4755 96.0593C20.1834 95.6326 21.352 94.4878 24.7873 92.6814C27.1858 91.4245 29.6826 90.3653 32.2529 89.5143C37.1165 86.8912 39.1953 84.325 40.1849 82.4227C40.5858 81.6527 41.3876 79.8791 43.2029 79.0284C44.4144 78.4603 45.7368 78.4641 46.4352 78.4654C47.3177 78.4654 48.4876 78.4654 49.6688 79.0284C50.5412 79.4411 51.0404 79.9763 53.1822 82.9692C55.2308 85.8283 55.1577 85.8726 55.7136 86.4886C57.3815 88.3366 59.1968 89.2277 60.2116 89.7251C66.8288 92.973 77.7763 91.2891 78.7671 93.8074C79.0457 94.5231 78.5339 95.6049 77.4434 96.8533Z" fill="#FF9900"/>
<path d="M43.1059 91.3149C43.4839 91.3149 43.7902 90.3788 43.7902 89.224C43.7902 88.0692 43.4839 87.1331 43.1059 87.1331C42.728 87.1331 42.4216 88.0692 42.4216 89.224C42.4216 90.3788 42.728 91.3149 43.1059 91.3149Z" fill="#624141"/>
<path d="M49.7592 91.3149C50.1581 91.3149 50.4815 90.3788 50.4815 89.224C50.4815 88.0692 50.1581 87.1331 49.7592 87.1331C49.3603 87.1331 49.0369 88.0692 49.0369 89.224C49.0369 90.3788 49.3603 91.3149 49.7592 91.3149Z" fill="#624141"/>
<path d="M28.6219 69.2652C34.8997 69.2652 39.9889 64.3122 39.9889 58.2023C39.9889 52.0925 34.8997 47.1395 28.6219 47.1395C22.3441 47.1395 17.2549 52.0925 17.2549 58.2023C17.2549 64.3122 22.3441 69.2652 28.6219 69.2652Z" fill="white"/>
<path d="M61.8485 69.2652C68.1263 69.2652 73.2155 64.3122 73.2155 58.2023C73.2155 52.0925 68.1263 47.1395 61.8485 47.1395C55.5706 47.1395 50.4814 52.0925 50.4814 58.2023C50.4814 64.3122 55.5706 69.2652 61.8485 69.2652Z" fill="white"/>
<path d="M29.4581 60.5214C30.7388 60.5214 31.7771 59.4831 31.7771 58.2024C31.7771 56.9216 30.7388 55.8834 29.4581 55.8834C28.1773 55.8834 27.139 56.9216 27.139 58.2024C27.139 59.4831 28.1773 60.5214 29.4581 60.5214Z" fill="#040202"/>
<path d="M61.8484 60.5214C63.1292 60.5214 64.1675 59.4831 64.1675 58.2024C64.1675 56.9216 63.1292 55.8834 61.8484 55.8834C60.5677 55.8834 59.5294 56.9216 59.5294 58.2024C59.5294 59.4831 60.5677 60.5214 61.8484 60.5214Z" fill="#040202"/>
<path d="M35.1566 40.2069C29.8647 39.0512 24.8921 40.9926 23.0673 42.1077" stroke="black" stroke-width="0.3" stroke-linecap="round"/>
<path d="M57.3243 40.1952C62.6162 39.0395 67.5888 40.9809 69.4136 42.0961" stroke="black" stroke-width="0.3" stroke-linecap="round"/>
</svg>
