<svg width="582" height="731" viewBox="0 0 582 731" fill="none" xmlns="http://www.w3.org/2000/svg">
<path d="M579.036 532.016C576.002 518.575 569.909 491.582 547.914 473.035C528.026 456.268 504.499 446.825 504.499 446.825C504.499 446.825 502.301 426.07 502.044 397.672C501.825 373.771 497.813 356.824 491.394 329.685C484.022 298.509 480.317 282.846 469.278 263.332C451.227 231.417 427.555 213.936 420.947 209.267C400.28 194.679 381.952 189.194 358.703 182.235C340.842 176.902 322.562 173.084 304.06 170.822C307.153 165.687 311.359 161.312 316.367 158.018C323.875 153.155 325.709 155.694 346.03 149.324C368.535 142.263 379.788 138.737 385.385 129.731C393.832 116.116 390.53 92.4337 376.355 82.4552C362.739 72.8609 344.635 79.8731 332.94 84.4004C304.249 95.5264 273.555 124.416 273.288 159.365C273.267 163.359 273.609 167.347 274.309 171.279C269.975 171.856 265.78 172.505 261.724 173.224C255.436 161.806 248.857 146.785 252.426 130.548C256.088 113.869 268.96 102.83 273.439 98.9693C295.049 80.4226 311.733 88.8984 323.452 74.3927C335.746 59.1721 334.637 28.4441 316.98 11.6625C297.261 -7.0641 267.72 1.86399 260.674 3.9939C235.091 11.7258 221.732 31.853 216.909 39.3466C191.622 78.6574 198.542 134.064 225.9 166.98C229.337 171.098 233.105 174.926 237.167 178.428C232.212 179.672 227.582 180.961 223.289 182.245C200.03 189.203 181.702 194.684 161.045 209.277C154.436 213.945 130.764 231.427 112.713 263.342C101.675 282.856 97.9693 298.519 90.5973 329.695C84.1784 356.829 80.1666 373.781 79.9477 397.681C79.6851 426.08 77.4872 446.835 77.4872 446.835C77.4872 446.835 53.9609 456.278 34.0721 473.045C12.0728 491.592 5.9797 518.585 2.95017 532.026C1.91926 536.592 -2.62748 557.896 2.1332 585.269C6.77717 611.985 17.806 630.235 23.4323 639.333C33.2674 655.244 45.731 669.37 60.2923 681.11C83.342 699.676 105.419 707.15 120.912 712.232C137.329 717.625 152.88 719.92 183.982 724.515C201.513 727.107 216.344 729.256 236.408 730.248C254.606 731.153 272.844 730.888 291.008 729.456C309.172 730.888 327.409 731.153 345.607 730.248C365.676 729.276 380.503 727.107 398.033 724.515C429.155 719.92 444.687 717.625 461.109 712.232C476.602 707.14 498.679 699.666 521.728 681.11C536.288 669.368 548.751 655.242 558.588 639.333C564.21 630.235 575.243 611.985 579.887 585.269C584.619 557.886 580.072 536.582 579.036 532.016Z" fill="#FFD000"/>
<path d="M183.052 442.993C223.202 442.993 255.75 411.315 255.75 372.239C255.75 333.163 223.202 301.485 183.052 301.485C142.901 301.485 110.353 333.163 110.353 372.239C110.353 411.315 142.901 442.993 183.052 442.993Z" fill="white"/>
<path d="M395.555 442.993C435.706 442.993 468.254 411.315 468.254 372.239C468.254 333.163 435.706 301.485 395.555 301.485C355.405 301.485 322.856 333.163 322.856 372.239C322.856 411.315 355.405 442.993 395.555 442.993Z" fill="white"/>
<path d="M188.402 387.071C196.593 387.071 203.233 380.431 203.233 372.239C203.233 364.048 196.593 357.408 188.402 357.408C180.21 357.408 173.57 364.048 173.57 372.239C173.57 380.431 180.21 387.071 188.402 387.071Z" fill="#040202"/>
<path d="M395.555 387.071C403.746 387.071 410.387 380.431 410.387 372.239C410.387 364.048 403.746 357.408 395.555 357.408C387.364 357.408 380.724 364.048 380.724 372.239C380.724 380.431 387.364 387.071 395.555 387.071Z" fill="#040202"/>
<path d="M224.845 257.147C191 249.756 159.197 262.172 147.526 269.304" stroke="black" stroke-width="0.3" stroke-linecap="round"/>
<path d="M366.624 257.073C400.469 249.681 432.271 262.098 443.942 269.23" stroke="black" stroke-width="0.3" stroke-linecap="round"/>
<path d="M411.831 489.049H169.451V654.211H411.831V489.049Z" fill="#BA2025"/>
<path d="M169.451 489.049C182.828 499.729 226.653 531.949 290.641 531.949C307.446 531.949 360.908 529.725 411.831 489.049" fill="#FF8E4E"/>
<path d="M169.451 654.211C181.928 646.663 225.798 622.037 290.641 622.037C355.483 622.037 399.354 646.663 411.831 654.211" fill="#FF8E4E"/>
<path d="M411.831 490.474C404.225 495.826 360.539 525.514 290.641 525.514C220.743 525.514 177.069 495.826 169.451 490.474C180.241 489.187 190.559 486.218 199.748 481.758C215.272 474.07 218.862 465.86 230.046 455.609C236.648 449.552 261.394 426.846 290.641 426.846C319.888 426.846 344.634 449.508 351.236 455.609C362.42 465.86 366.009 474.07 381.533 481.758C390.723 486.218 401.041 489.187 411.831 490.474V490.474Z" fill="#FBA927"/>
<path d="M411.831 654.503C396.956 663.044 378.345 667.084 359.685 665.822C353.804 665.425 347.876 665.934 342.268 667.319C308.732 675.581 272.55 675.581 239.014 667.319C233.405 665.934 227.478 665.425 221.597 665.822C202.937 667.084 184.326 663.044 169.451 654.503C189.534 646.411 232.643 628.471 290.641 628.471C348.639 628.471 391.782 646.411 411.831 654.503Z" fill="#FBA927"/>
<path d="M306.729 469.745C307.914 469.745 308.874 466.864 308.874 463.31C308.874 459.756 307.914 456.875 306.729 456.875C305.544 456.875 304.584 459.756 304.584 463.31C304.584 466.864 305.544 469.745 306.729 469.745Z" fill="#9B6A28"/>
<path d="M267.047 469.745C268.824 469.745 270.264 466.864 270.264 463.31C270.264 459.756 268.824 456.875 267.047 456.875C265.27 456.875 263.83 459.756 263.83 463.31C263.83 466.864 265.27 469.745 267.047 469.745Z" fill="#9B6A28"/>
</svg>
