<svg width="264" height="331" viewBox="0 0 264 331" fill="none" xmlns="http://www.w3.org/2000/svg">
<path d="M262.658 240.974C261.283 234.886 258.523 222.66 248.561 214.259C239.553 206.665 228.896 202.387 228.896 202.387C228.896 202.387 227.901 192.986 227.784 180.123C227.685 169.298 225.868 161.622 222.961 149.329C219.621 135.208 217.943 128.114 212.943 119.275C204.767 104.819 194.045 96.9011 191.052 94.7866C181.691 88.1789 173.389 85.6943 162.859 82.5424C154.768 80.1268 146.489 78.3975 138.108 77.373C139.509 75.0472 141.414 73.0654 143.683 71.5736C147.084 69.371 147.914 70.5208 157.119 67.6354C167.312 64.4372 172.409 62.8404 174.944 58.7612C178.77 52.5939 177.275 41.8674 170.854 37.3477C164.687 33.002 156.487 36.1781 151.189 38.2287C138.194 43.2682 124.292 56.3537 124.17 72.1837C124.161 73.9928 124.316 75.799 124.633 77.58C122.67 77.8414 120.77 78.1351 118.933 78.461C116.085 73.2894 113.105 66.4856 114.721 59.1312C116.38 51.5763 122.21 46.5765 124.239 44.8276C134.027 36.427 141.584 40.2661 146.892 33.6958C152.46 26.8017 151.958 12.8836 143.961 5.28249C135.029 -3.19965 121.648 0.844286 118.457 1.80902C106.869 5.31112 100.819 14.4276 98.6336 17.8218C87.1802 35.6275 90.3145 60.7237 102.706 75.633C104.263 77.4978 105.97 79.2319 107.81 80.8179C105.565 81.3817 103.468 81.9654 101.523 82.5468C90.9885 85.6987 82.6869 88.1811 73.3304 94.791C70.3371 96.9055 59.6149 104.824 51.4389 119.279C46.439 128.118 44.7607 135.213 41.4216 149.334C38.5142 161.624 36.697 169.302 36.5979 180.128C36.479 192.991 35.4834 202.392 35.4834 202.392C35.4834 202.392 24.8273 206.669 15.8188 214.263C5.8543 222.664 3.09446 234.891 1.72225 240.979C1.25531 243.047 -0.804119 252.696 1.35221 265.095C3.45567 277.196 8.45114 285.462 10.9995 289.583C15.4543 296.789 21.0996 303.188 27.6951 308.505C38.1353 316.915 48.135 320.3 55.1525 322.602C62.5884 325.044 69.6322 326.084 83.7199 328.165C91.6602 329.339 98.3781 330.313 107.466 330.762C115.709 331.172 123.969 331.052 132.197 330.403C140.424 331.052 148.684 331.172 156.927 330.762C166.017 330.322 172.733 329.339 180.673 328.165C194.77 326.084 201.805 325.044 209.243 322.602C216.26 320.296 226.26 316.91 236.7 308.505C243.295 303.187 248.94 296.789 253.396 289.583C255.942 285.462 260.94 277.196 263.043 265.095C265.186 252.692 263.127 243.042 262.658 240.974Z" fill="#FFD000"/>
<path d="M208.68 255.428V265.28C208.68 270.758 206.49 276.012 202.591 279.886C198.692 283.76 193.404 285.936 187.89 285.936H83.6254C78.1121 285.936 72.8248 283.759 68.9265 279.885C65.0282 276.011 62.8383 270.758 62.8383 265.28V255.428C62.8383 249.95 65.0282 244.696 68.9265 240.823C72.8248 236.949 78.1121 234.772 83.6254 234.771H112.695C113.894 224.769 123.763 216.961 135.759 216.961C147.755 216.961 157.625 224.763 158.823 234.771H187.89C193.404 234.771 198.692 236.948 202.591 240.822C206.49 244.696 208.68 249.95 208.68 255.428V255.428Z" fill="#FBA927"/>
<path d="M127.413 240.818C128.508 240.818 129.395 238.106 129.395 234.761C129.395 231.416 128.508 228.704 127.413 228.704C126.318 228.704 125.431 231.416 125.431 234.761C125.431 238.106 126.318 240.818 127.413 240.818Z" fill="#624141"/>
<path d="M146.686 240.818C147.842 240.818 148.779 238.106 148.779 234.761C148.779 231.416 147.842 228.704 146.686 228.704C145.531 228.704 144.594 231.416 144.594 234.761C144.594 238.106 145.531 240.818 146.686 240.818Z" fill="#624141"/>
<path d="M195.748 255.044H134.682C134.682 255.044 155.103 272.184 171.7 270.766C186.717 269.483 195.748 255.044 195.748 255.044Z" fill="#BA2025" stroke="#BA2025"/>
<path d="M133.604 153.385L34.8193 147.279C34.8193 147.279 41.7173 182.432 58.5276 191.103C73.738 198.949 97.6154 202.221 112.41 193.618C128.033 184.533 133.604 153.385 133.604 153.385Z" fill="#0F0F0F" stroke="#0D0D0D"/>
<path d="M140.429 153.385L239.214 147.279C239.214 147.279 232.316 182.432 215.505 191.103C200.295 198.949 176.418 202.221 161.623 193.618C146 184.533 140.429 153.385 140.429 153.385Z" fill="#0F0F0F" stroke="#0D0D0D"/>
<rect x="123.187" y="153.026" width="35.9217" height="9.33963" fill="#161616"/>
</svg>
