<svg width="74" height="95" viewBox="0 0 74 95" fill="none" xmlns="http://www.w3.org/2000/svg">
<path d="M31.59 78.88L31.5 86.75C31.5 86.75 24.84 86.48 24.07 87.27C23.3 88.06 24.88 89.04 24.88 89.04C24.88 89.04 24.03 89.95 24.24 90.58C24.52 91.43 25.66 91.73 25.66 91.73C25.66 91.73 24.87 92.22 25.56 93.28C26.25 94.34 29.56 93.01 31.66 91.64C33.76 90.27 34.11 89.5 34.53 87.64C34.95 85.78 33.45 79.37 33.45 79.37C33.45 79.37 32.49 78.29 31.59 78.88Z" fill="#F86B21"/>
<path d="M33.07 40.63C31.64 52.44 23.15 65.34 12.17 69.28C12.94 70.14 14.86 70.69 19.45 69.5C28.68 67.09 40.82 55.66 36.17 44.99C35.4928 43.3137 34.4309 41.8202 33.07 40.63Z" fill="#F9AD03"/>
<path d="M33.07 40.63C27.91 36.33 20.75 40.33 20.47 40.53C16.28 43.47 17.19 43.68 11.84 48.79C6.48999 53.9 2.99998 52.2901 0.659983 55.5201C-1.68002 58.7501 2.96998 60.26 2.96998 60.26C1.05998 64.36 7.26998 64.5201 7.26998 64.5201C6.43998 67.7901 11.8 67.15 11.8 67.15C11.6824 67.5082 11.6546 67.8898 11.7191 68.2612C11.7836 68.6327 11.9385 68.9825 12.17 69.28C23.15 65.34 31.64 52.44 33.07 40.63Z" fill="#FFB600"/>
<path d="M35.56 38.04C37.56 29.13 46.39 23.33 51.31 15.74C51.6935 17.2286 51.9478 18.7476 52.07 20.28C53.48 37.41 39.49 41.04 39.49 41.04C40.0209 43.0885 40.9634 45.0075 42.26 46.68C38.28 45.1 34.66 42.54 35.56 38.04Z" fill="#F4C606"/>
<path d="M18.28 39.68C18.28 39.68 8.16003 34.43 9.73003 20.19C11.05 8.32002 26.15 2.19002 26.15 2.19002C26.31 -2.51998 33.07 1.88003 33.07 1.88003C32.78 -2.67997 47.73 1.88002 51.31 15.75C46.39 23.34 37.54 29.14 35.56 38.05C34.66 42.55 38.28 45.11 42.26 46.67C43.86 48.62 46.34 50.42 50.81 52.82C58.98 57.22 66.99 54.24 70.76 54.24C74.53 54.24 71.39 58.06 71.39 58.06C75.58 58.85 71.23 62.06 71.23 62.06C73.44 62.85 71.97 65.15 66.94 67.67C61.91 70.19 59.32 77.67 53.4 79.91C52.49 80.17 51.56 80.39 50.62 80.58C33.34 77.38 19.95 65.04 13.16 49.76C13.5947 48.3597 14.2717 47.0465 15.16 45.88C16.7257 44.1227 17.8017 41.9846 18.28 39.68Z" fill="#FFD000"/>
<path d="M50.62 80.6C37.28 83.27 28.54 80.93 22.05 77.17C10.66 70.58 11.21 55.63 13.16 49.78C19.95 65.04 33.34 77.4 50.62 80.6Z" fill="#F4C606"/>
<path d="M33.45 43.6899C38.12 54.6299 49.9 64.63 61.54 65.33C61.04 66.33 59.36 67.44 54.62 67.58C45.08 67.86 30.22 60.29 31.69 48.74C31.8735 46.9421 32.4763 45.2124 33.45 43.6899Z" fill="#F9AD03"/>
<path d="M33.45 43.69C37.19 38.12 45.19 39.95 45.51 40.06C50.36 41.71 49.51 42.17 56.11 45.57C62.71 48.97 65.58 46.45 68.73 48.9C71.88 51.35 67.84 54.1 67.84 54.1C70.84 57.49 64.91 59.39 64.91 59.39C66.62 62.29 61.3 63.18 61.3 63.18C61.5117 63.4919 61.6441 63.8507 61.6859 64.2253C61.7278 64.5999 61.6777 64.9791 61.54 65.33C49.88 64.63 38.12 54.63 33.45 43.69Z" fill="#FFB600"/>
<path d="M12.88 23.79C12.88 23.79 6.23 22.88 3.68 20.79C1.13 18.7 3.03999 16.58 5.10999 16.55C7.17999 16.52 12.88 23.75 12.88 23.75" fill="#EA5C1C"/>
<path d="M12.03 22.22C12.03 22.22 7.03001 21.46 5.18001 19.9C3.33001 18.34 4.75 16.74 6.3 16.73C7.85 16.72 12.03 22.22 12.03 22.22Z" fill="#FCB3B9"/>
<path d="M11.95 14.04C11.95 14.04 14.52 15.93 13.95 17.92C13.38 19.91 14.24 21.3 14.76 22.57C15.28 23.84 14.43 25.3 12 23.51C9.56999 21.72 5.46 17.83 3.84 13.85C2.22 9.86996 6.5 9.84995 7.37 10.97C8.48464 12.5037 10.1078 13.5917 11.95 14.04Z" fill="#F86B21"/>
<path d="M16.35 25.09C15.9 26.09 17.2 27.6501 19.26 28.5801C21.32 29.5101 23.35 29.44 23.8 28.44C24.25 27.44 22.95 25.8701 20.89 24.9501C18.83 24.0301 16.8 24.09 16.35 25.09Z" fill="#FCB3B9"/>
<path d="M47.29 80.33L50.4 86.08C50.4 86.08 45.61 90.72 45.66 91.82C45.71 92.92 47.43 92.44 47.43 92.44C47.43 92.44 47.51 93.69 48.11 93.98C48.4112 94.0725 48.7288 94.099 49.0412 94.0576C49.3536 94.0161 49.6533 93.9078 49.92 93.74C49.92 93.74 49.73 94.65 50.92 94.89C52.11 95.13 53.51 91.77 53.92 89.33C54.33 86.89 54.06 86.08 53.01 84.5C51.96 82.92 48.8 79.33 48.8 79.33C48.8 79.33 47.48 79.28 47.29 80.33Z" fill="#F86B21"/>
<path d="M19.26 16.59C19.26 16.72 17.33 20.73 19.91 21.59C22.49 22.45 24.44 18.83 24.44 18.83" stroke="black" stroke-width="0.5" stroke-miterlimit="10" stroke-linecap="round"/>
</svg>
