<svg width="27" height="41" viewBox="0 0 27 41" fill="none" xmlns="http://www.w3.org/2000/svg">
<path d="M23.002 14.1399C23.002 15.0512 22.478 15.7944 21.8324 15.7944C21.6211 15.7944 21.4218 15.716 21.2534 15.5793C21.3276 15.1491 21.3668 14.7072 21.3668 14.2575V12.6189C21.5077 12.533 21.6681 12.4859 21.8324 12.4859C22.478 12.4855 23.002 13.2246 23.002 14.1399Z" fill="#FFDCCE"/>
<path d="M5.74589 15.583C5.57753 15.716 5.38202 15.7944 5.17106 15.7944C4.52579 15.7944 3.99768 15.0512 3.99768 14.1399C3.99768 13.2246 4.52579 12.4855 5.17106 12.4855C5.33529 12.4855 5.49163 12.5326 5.6325 12.6185V14.2571C5.6325 14.711 5.67167 15.1529 5.74589 15.583Z" fill="#FFDCCE"/>
<path d="M25.0144 36.6148H1.98803C1.5843 36.6148 1.2572 36.2877 1.2572 35.884V32.0282C1.2572 26.443 5.78475 21.9155 11.3699 21.9155H15.6322C21.2173 21.9155 25.7452 26.443 25.7452 32.0282V35.884C25.7452 36.2877 25.4181 36.6148 25.0144 36.6148Z" fill="#6DC9F7"/>
<path d="M13.4998 26.8949L14.9429 26.5231C15.7472 24.6502 16.5883 22.479 16.5883 21.5891V21.4946C15.6404 21.8997 14.5972 22.1247 13.5011 22.1247C12.4051 22.1247 11.3619 21.8993 10.4139 21.4946V21.5891C10.4139 22.4793 11.2554 24.6508 12.0598 26.5241L13.4998 26.8949Z" fill="#D4FBFF"/>
<path d="M13.5011 22.1247C12.4051 22.1247 11.3619 21.8993 10.4139 21.4946V21.5891C10.4139 21.6839 10.4236 21.7932 10.4414 21.9148C10.9506 25.3628 16.0513 25.3628 16.5608 21.9148C16.5787 21.7928 16.5883 21.6836 16.5883 21.5891V21.4946C15.6404 21.8993 14.5972 22.1247 13.5011 22.1247Z" fill="#FFDCCE"/>
<path d="M5.71628 8.23837C5.66165 8.57303 5.63245 8.93243 5.63245 9.32138V14.2571C5.63245 14.7107 5.67162 15.1529 5.74583 15.583C6.37564 19.2987 9.6099 22.1265 13.5014 22.1265C17.3971 22.1265 20.6276 19.2949 21.2533 15.5793C21.3275 15.1491 21.3667 14.7072 21.3667 14.2575V9.32138C21.3667 8.93862 21.3378 8.57887 21.2849 8.23837H5.71628Z" fill="#FFDCCE"/>
<path d="M18.5441 15.2391C18.9779 15.2391 19.3296 15.0174 19.3296 14.744C19.3296 14.4705 18.9779 14.2489 18.5441 14.2489C18.1103 14.2489 17.7587 14.4705 17.7587 14.744C17.7587 15.0174 18.1103 15.2391 18.5441 15.2391Z" fill="#FFBAD2"/>
<path d="M8.45831 15.1292C8.8921 15.1292 9.24376 14.9075 9.24376 14.634C9.24376 14.3606 8.8921 14.1389 8.45831 14.1389C8.02451 14.1389 7.67285 14.3606 7.67285 14.634C7.67285 14.9075 8.02451 15.1292 8.45831 15.1292Z" fill="#FFBAD2"/>
<path d="M13.64 19.0795C12.3065 19.0795 11.6286 18.1617 11.6004 18.1225C11.4822 17.9586 11.5193 17.7305 11.6829 17.6123C11.8454 17.4945 12.0732 17.5305 12.1914 17.6927C12.2134 17.7219 12.6927 18.3483 13.6396 18.3483C14.5666 18.3483 15.0717 17.713 15.0927 17.6858C15.216 17.5268 15.4452 17.4972 15.6043 17.6195C15.7637 17.7418 15.7953 17.969 15.6737 18.1291C15.6452 18.1682 14.9398 19.0795 13.64 19.0795Z" fill="#2D2D2D"/>
<path d="M22.8376 1.95437H4.16187V8.23837H22.8376V1.95437Z" fill="#0089EF"/>
<path d="M26.6561 1.14692C26.6561 1.59119 26.297 1.95436 25.8486 1.95436H1.14695C0.702684 1.95436 0.343628 1.59119 0.343628 1.14692C0.343628 0.70265 0.702684 0.343594 1.14695 0.343594H25.8486C26.2974 0.343594 26.6561 0.70265 26.6561 1.14692Z" fill="#0089EF"/>
<path d="M4.88349 24.6745C4.42101 24.5553 3.97021 24.9047 3.97021 25.3823V33.2146C3.97949 33.2146 3.98877 33.2132 3.99805 33.2132H5.30542C6.09707 33.2132 6.7389 33.855 6.7389 34.6467V37.2614C6.7389 37.5154 6.66709 37.7504 6.5513 37.9572L13.4998 39.7477V26.8948L4.88349 24.6745Z" fill="#D1E01F"/>
<path d="M20.2634 37.2614V34.6467C20.2634 33.855 20.9052 33.2132 21.6969 33.2132H23.0043C23.0129 33.2132 23.0208 33.2142 23.0293 33.2146V25.3823C23.0293 24.9047 22.5786 24.5553 22.1161 24.6745L13.4998 26.8948V39.7477L20.4507 37.9565C20.3349 37.75 20.2634 37.515 20.2634 37.2614Z" fill="#D1E01F"/>
<path d="M3.99806 38.6949H5.30543C6.09707 38.6949 6.73891 38.0531 6.73891 37.2614V34.6467C6.73891 33.855 6.09707 33.2132 5.30543 33.2132H3.99806C2.48418 33.2132 1.2572 34.4402 1.2572 35.9541C1.2572 37.4679 2.48452 38.6949 3.99806 38.6949Z" fill="#FFDCCE"/>
<path d="M23.0044 38.6949H21.697C20.9054 38.6949 20.2635 38.0531 20.2635 37.2614V34.6467C20.2635 33.855 20.9054 33.2132 21.697 33.2132H23.0044C24.5183 33.2132 25.7453 34.4402 25.7453 35.9541C25.7453 37.4679 24.5183 38.6949 23.0044 38.6949Z" fill="#FFDCCE"/>
<path d="M15.6927 32.1769L20.8367 30.8513V27.1969L15.6927 28.5225V32.1769Z" fill="#FFBE72"/>
<path d="M10.0306 13.9431C10.4652 13.9431 10.8174 13.5908 10.8174 13.1562C10.8174 12.7217 10.4652 12.3694 10.0306 12.3694C9.59605 12.3694 9.24377 12.7217 9.24377 13.1562C9.24377 13.5908 9.59605 13.9431 10.0306 13.9431Z" fill="#2D2D2D"/>
<path d="M16.9721 12.3694C16.5375 12.3694 16.1853 12.7216 16.1853 13.1562C16.1853 13.5909 16.5375 13.9431 16.9721 13.9431C17.4068 13.9431 17.759 13.5909 17.759 13.1562C17.759 12.7216 17.4064 12.3694 16.9721 12.3694Z" fill="#2D2D2D"/>
<path d="M13.5013 17.0014C14.184 17.0014 14.7396 16.4458 14.7396 15.7631V15.2388C14.7396 15.0491 14.586 14.8952 14.396 14.8952C14.206 14.8952 14.0524 15.0491 14.0524 15.2388V15.7631C14.0524 16.0668 13.805 16.3142 13.5013 16.3142C13.1975 16.3142 12.9501 16.0668 12.9501 15.7631V15.2388C12.9501 15.0491 12.7965 14.8952 12.6065 14.8952C12.4165 14.8952 12.2629 15.0491 12.2629 15.2388V15.7631C12.2629 16.4461 12.8185 17.0014 13.5013 17.0014Z" fill="#2D2D2D"/>
<path d="M16.3741 10.7569L17.9145 11.0253C17.9347 11.0287 17.9543 11.0304 17.9739 11.0304C18.1381 11.0304 18.2828 10.9129 18.312 10.7459C18.3446 10.559 18.2192 10.381 18.0327 10.3484L16.4923 10.08C16.303 10.0494 16.1274 10.1728 16.0948 10.3594C16.0621 10.5463 16.1872 10.7239 16.3741 10.7569Z" fill="#2D2D2D"/>
<path d="M9.02833 11.0304C9.04792 11.0304 9.0675 11.0287 9.08778 11.0253L10.6281 10.7569C10.815 10.7243 10.9401 10.5463 10.9075 10.3594C10.8748 10.1728 10.6996 10.0491 10.5099 10.08L8.96958 10.3484C8.78266 10.381 8.6576 10.559 8.69024 10.7459C8.71944 10.9126 8.86444 11.0304 9.02833 11.0304Z" fill="#2D2D2D"/>
<path d="M23.1813 8.23836V2.29796H25.849C26.4836 2.29796 27 1.78154 27 1.14692C27 0.514704 26.4836 0 25.849 0H1.14692C0.514361 0 0 0.514704 0 1.14692C0 1.78154 0.514361 2.29796 1.14692 2.29796H1.81899L1.82346 8.78915C1.5929 8.91215 1.43416 9.15198 1.43416 9.43167C1.43416 9.63748 1.51972 9.82233 1.65647 9.95531L1.1531 11.875C1.09229 12.1066 1.26718 12.333 1.50666 12.333H2.824C3.06349 12.333 3.23838 12.1066 3.17756 11.875L2.6742 9.95531C2.81095 9.82233 2.8965 9.63748 2.8965 9.43167C2.8965 9.1537 2.73948 8.9149 2.51133 8.79155L2.50687 2.2983H3.81905V8.23871C3.81905 8.42322 3.96542 8.57131 4.14822 8.57921C3.79912 9.59144 3.60637 10.6765 3.60637 11.8076C3.60637 11.8076 4.03208 17.6941 2.13097 20.805C0.584454 23.3359 0.593044 26.1348 1.57847 28.3682C1.1507 29.5082 0.914305 30.7411 0.914305 32.0285V35.8843C0.914305 35.8912 0.91671 35.8977 0.91671 35.9046C0.916366 35.9214 0.914305 35.9376 0.914305 35.9544C0.914305 37.6552 2.29796 39.0389 3.9991 39.0389H5.30647C5.87409 39.0389 6.37471 38.7664 6.70044 38.3506L13.415 40.0806C13.4435 40.0879 13.4723 40.0916 13.5009 40.0916C13.5294 40.0916 13.5582 40.0882 13.5868 40.0806L20.3037 38.35C20.6291 38.766 21.13 39.0389 21.698 39.0389H23.0054C24.7062 39.0389 26.0902 37.6552 26.0902 35.9544C26.0902 35.9376 26.0878 35.9214 26.0878 35.9046C26.0878 35.8977 26.0902 35.8915 26.0902 35.8843V32.0282C26.0902 30.6881 25.8356 29.4072 25.3745 28.229C26.2884 25.939 26.5282 22.9109 25.0377 20.3666C23.0335 16.945 23.4393 11.8069 23.4393 11.8069C23.4393 10.6731 23.2455 9.58491 22.8947 8.57028C23.0555 8.54313 23.1813 8.40844 23.1813 8.23836ZM16.6066 2.29796C16.7966 2.29796 16.9502 2.14403 16.9502 1.95437C16.9502 1.7647 16.7966 1.61077 16.6066 1.61077H1.14692C0.893689 1.61077 0.687189 1.4029 0.687189 1.14692C0.687189 0.893346 0.893689 0.687189 1.14692 0.687189H25.849C26.1091 0.687189 26.3128 0.889222 26.3128 1.14692C26.3128 1.4029 26.1049 1.61077 25.849 1.61077H21.2201C21.03 1.61077 20.8765 1.7647 20.8765 1.95437C20.8765 2.14403 21.03 2.29796 21.2201 2.29796H22.4941V7.89477H4.50555V2.29796H16.6066ZM13.4998 26.5399L12.3127 26.2341C12.0296 25.5686 11.7526 24.8924 11.5118 24.2564C12.1103 24.6532 12.8202 24.8443 13.5009 24.8443C14.1819 24.8443 14.8917 24.6532 15.4903 24.2564C15.2494 24.8924 14.9728 25.5682 14.6897 26.2334L13.4998 26.5399ZM5.1711 12.8291C5.21095 12.8291 5.25012 12.8339 5.28929 12.8432V14.2575C5.28929 14.6433 5.32331 15.0278 5.37725 15.4071C5.37554 15.4081 5.37107 15.4095 5.37107 15.4106C5.30579 15.4374 5.23879 15.4511 5.1711 15.4511C4.72133 15.4511 4.34166 14.8508 4.34166 14.1403C4.34166 13.4297 4.72133 12.8291 5.1711 12.8291ZM10.8112 22.0158C11.6571 22.3075 12.5615 22.47 13.5019 22.47C14.442 22.47 15.346 22.3075 16.1915 22.0162C15.8985 23.4919 14.6474 24.1571 13.5012 24.1571C12.355 24.1571 11.1043 23.4916 10.8112 22.0158ZM21.8323 15.4508C21.7636 15.4508 21.6949 15.4363 21.6282 15.4085C21.6282 15.4075 21.6238 15.4064 21.6221 15.4051C21.6763 15.0254 21.7104 14.6412 21.7104 14.2571V12.8436C22.1904 12.7295 22.6583 13.3645 22.6583 14.1399C22.6583 14.8505 22.2804 15.4508 21.8323 15.4508ZM13.5328 8.58196C14.0554 8.83038 14.6385 9.06677 15.2889 9.26296C17.5529 9.9474 20.1144 9.97042 21.0232 9.95359V14.2571C21.0232 14.6801 20.9867 15.1051 20.9146 15.5219C20.304 19.1499 17.1863 21.7829 13.5019 21.7829C9.81855 21.7829 6.6994 19.1513 6.08471 15.5246C6.0129 15.1092 5.97648 14.6828 5.97648 14.2575V9.44576C6.49359 9.33855 7.50548 9.08154 8.38061 8.58196H13.5328ZM10.1756 22.3364C10.1769 22.3415 10.1786 22.346 10.18 22.3512C10.3992 23.3088 10.9218 24.6945 11.473 26.0177L5.25871 24.4165C6.64031 23.3057 8.32873 22.5628 10.1756 22.3364ZM16.8231 22.3491C16.8241 22.3446 16.8258 22.3409 16.8269 22.3364C18.6733 22.5628 20.3614 23.3053 21.743 24.4158L15.5301 26.017C16.0816 24.6928 16.6042 23.3067 16.8231 22.3491ZM1.60081 32.0282C1.60081 29.7914 2.35671 27.7284 3.62664 26.0802V32.894C2.81129 32.9926 2.09318 33.4091 1.60081 34.0172V32.0282ZM5.30544 38.3513H3.99807C2.67591 38.3513 1.60046 37.2759 1.60046 35.9541C1.60046 34.6323 2.67591 33.5568 3.99807 33.5568H5.30544C5.90639 33.5568 6.39532 34.0457 6.39532 34.6467V37.2611C6.39532 37.8624 5.90639 38.3513 5.30544 38.3513ZM5.30544 32.8696H4.31348V25.3824C4.31348 25.3404 4.32242 25.3002 4.33513 25.2618C4.41553 25.1783 4.49696 25.0958 4.58046 25.0151C4.61894 25.0023 4.65914 24.9951 4.70003 24.9951C4.73233 24.9951 4.76497 24.9992 4.79727 25.0075L13.1559 27.1611V39.3045L7.01414 37.7219C7.05399 37.5741 7.08217 37.4216 7.08217 37.2614V34.647C7.08251 33.6668 6.28537 32.8696 5.30544 32.8696ZM13.8434 39.3045V27.1611L22.202 25.0075C22.2773 24.9879 22.3549 24.9941 22.4268 25.0192C22.5068 25.0968 22.5852 25.1762 22.6628 25.2566C22.6765 25.2968 22.6862 25.3384 22.6862 25.3824V32.8696H21.6973C20.7174 32.8696 19.9202 33.6668 19.9202 34.6467V37.2611C19.9202 37.4212 19.9484 37.5734 19.9883 37.7208L13.8434 39.3045ZM23.0043 38.3513H21.697C21.096 38.3513 20.6071 37.8624 20.6071 37.2614V34.647C20.6071 34.0461 21.096 33.5572 21.697 33.5572H23.0043C24.3265 33.5572 25.4019 34.6326 25.4019 35.9544C25.4019 37.2762 24.3265 38.3513 23.0043 38.3513ZM25.4019 34.0172C24.9092 33.4084 24.1897 32.9916 23.3734 32.8937V26.0768C24.6447 27.7253 25.4019 29.79 25.4019 32.0285V34.0172Z" fill="#2D2D2D"/>
<path d="M17.9735 2.29796H19.8952C20.0852 2.29796 20.2388 2.14403 20.2388 1.95437C20.2388 1.7647 20.0852 1.61077 19.8952 1.61077H17.9735C17.7835 1.61077 17.6299 1.7647 17.6299 1.95437C17.6299 2.14403 17.7838 2.29796 17.9735 2.29796Z" fill="#2D2D2D"/>
<path d="M21.1801 30.8517V27.1969C21.1801 27.0907 21.131 26.9904 21.0468 26.9251C20.963 26.8602 20.854 26.8368 20.7506 26.8639L15.6063 28.1895C15.4548 28.2287 15.3486 28.3654 15.3486 28.5221V32.1766C15.3486 32.2828 15.3978 32.3831 15.4819 32.4484C15.5428 32.4955 15.617 32.5202 15.6922 32.5202C15.7207 32.5202 15.7496 32.5168 15.7778 32.5092L20.9221 31.1839C21.0743 31.1451 21.1801 31.0084 21.1801 30.8517ZM20.4929 30.5854L16.0358 31.7337V28.7891L20.4929 27.6408V30.5854Z" fill="#2D2D2D"/>
</svg>
