<?xml version="1.0" encoding="utf-8"?>
<!-- Generator: Adobe Illustrator 26.0.1, SVG Export Plug-In . SVG Version: 6.00 Build 0)  -->
<svg version="1.1" id="Layer_1" xmlns="http://www.w3.org/2000/svg" xmlns:xlink="http://www.w3.org/1999/xlink" x="0px" y="0px"
	 viewBox="0 0 335 321" style="enable-background:new 0 0 335 321;" xml:space="preserve">
<rect x="26.7" y="19" transform="matrix(0.7607 -0.6491 0.6491 0.7607 -9.606 26.4891)" style="fill:#FF5D02;fill-opacity:0.65;" width="8.8" height="14.6"/>
<rect x="22.5" y="38.4" transform="matrix(0.7607 -0.6491 0.6491 0.7607 -20.6176 29.5858)" style="fill:#FF5D02;fill-opacity:0.65;" width="14.6" height="8.8"/>
<rect x="40.3" y="23.2" transform="matrix(0.7607 -0.6491 0.6491 0.7607 -6.5093 37.5006)" style="fill:#FF5D02;fill-opacity:0.65;" width="14.6" height="8.8"/>
<rect x="41.9" y="36.8" transform="matrix(0.7607 -0.6491 0.6491 0.7607 -17.5208 40.5974)" style="fill:#FF5D02;fill-opacity:0.65;" width="8.8" height="14.6"/>
<path style="fill:#7598CF;" d="M4.1,119.8c0,0,43.4-15.2,63.3,35.1C67.5,154.9,32.3,175.2,4.1,119.8z"/>
<path style="fill:#5881C2;" d="M67.5,154.9c0,0-53.6-32.2-61-34C6.4,120.9,51.5,136.2,67.5,154.9z"/>
<path style="fill:#5881C2;" d="M20.5,127.7c0,0-5.3,1.8-6.6,2.1c-1.3,0.3,8.4-1.1,8.4-1.1L20.5,127.7z"/>
<path style="fill:#5881C2;" d="M22,126.9c-0.1,0-2.3-5.3-2.2-5.2c0.1,0.2,7.9,7.6,7.9,7.6L22,126.9z"/>
<path style="fill:#5881C2;" d="M29.5,132.7c-0.2,0.3-8.4,1.7-8.4,1.7l12,0.3L29.5,132.7z"/>
<path style="fill:#5881C2;" d="M32.6,131.7l-3.4-8l5.6,9.1L32.6,131.7z"/>
<path style="fill:#5881C2;" d="M42,139.9c0,0-12.8,0.9-12.6,0.9c0.2,0,15.3,0.7,15.3,0.7L42,139.9z"/>
<path style="fill:#5881C2;" d="M42.5,136.7l-4.1-8.7l7.2,10.4L42.5,136.7z"/>
<path style="fill:#5881C2;" d="M50.7,144.9c-0.4,0.3-11.3,3.5-11.3,3.5l15.6-0.9L50.7,144.9z"/>
<path style="fill:#5881C2;" d="M51.3,141.8l-2.3-5.6c0,0,6.5,8.3,6.2,8.1C54.9,144.1,51.3,141.8,51.3,141.8z"/>
<path style="fill:#A3B5DE;" d="M60.8,150.9c-0.7,0.2-8.7,2-8.3,2c0.4-0.1,10.3-0.7,10.3-0.7L60.8,150.9z"/>
<path style="fill:#A3B5DE;" d="M61.5,149.1c0,0-3.2-7.4-2.9-7.1c0.3,0.3,4.6,8.6,4.6,8.6L61.5,149.1z"/>
<path style="fill:#5881C2;" d="M24.4,86c0,0,45.9,0.7,47.3,54.8C71.7,140.8,31.7,147.7,24.4,86z"/>
<path style="fill:#7598CF;" d="M27.7,89.1c-0.6-0.6-1.2-1-1.6-1.3C26.2,87.8,26.8,88.3,27.7,89.1z"/>
<path style="fill:#7598CF;" d="M47.6,125l15,4.5c5.4,6.6,9.1,11.2,9.1,11.2c-1.7-4.5-4.5-9.3-7.8-14.1c0,0,0,0,0,0
	c0.2,0.3-3-9.8-3-9.8l0.2,6c0,0,0,0,0,0c-1.3-1.7-2.8-3.5-4.2-5.2l-3.1-12.2l0.9,9.6c-1.9-2.2-3.9-4.3-5.9-6.4l-2.1-10.4l0.4,8.7
	l0,0c-1.3-1.3-2.6-2.6-3.9-3.9l0,0c0,0-4.8-9.6-4.8-9.9c0,0.2,0.2,5.5,0.3,5.6c-4.8-4.5-8.9-8-11-9.7c2.1,1.9,5.4,5.6,9.3,10
	c0,0-5.6-0.1-6.9-0.3c-1.3-0.1,8.3,1.9,8.3,1.9c1.7,2,3.5,4,5.3,6.2c-0.3,0.2-8.5-1.3-8.5-1.3l11.1,4.4c2.2,2.6,4.5,5.3,6.7,8
	c0,0-12.3-3.6-12.1-3.5c0.2,0.1,14.1,5.9,14.1,5.9c1.5,1.8,3,3.6,4.4,5.3C58.9,125.8,47.6,125,47.6,125z M59.4,125.7
	c1.1,1.3,2.2,2.6,3.2,3.9L59.4,125.7z M37.1,99.1c0.4,0.5,0.9,1,1.4,1.6L37.1,99.1z M43.8,106.9c0.9,1,1.7,2.1,2.6,3.1L43.8,106.9z
	 M53.1,118c0.7,0.8,1.3,1.6,2,2.4L53.1,118z"/>
<path style="fill:#BBC9E7;" d="M76.6,140.7c-0.7-0.1-8.7-1.8-8.3-1.7c0.4,0.1,9.7,3.7,9.7,3.7L76.6,140.7z"/>
<linearGradient id="SVGID_1_" gradientUnits="userSpaceOnUse" x1="0" y1="146.6313" x2="96.1781" y2="146.6313" gradientTransform="matrix(1 0 0 -1 0 322)">
	<stop  offset="0" style="stop-color:#FFFFFF"/>
	<stop  offset="1" style="stop-color:#83A3D5"/>
</linearGradient>
<path style="fill:url(#SVGID_1_);" d="M0,174.3c0,0,41.5-44.9,96.2,1.8C96.2,176.1,67.5,221.8,0,174.3z"/>
<path style="fill:#5881C2;" d="M96.2,176.1c0,0-82.9-4.5-92.8-1.9C3.4,174.1,65.8,164.1,96.2,176.1z"/>
<path style="fill:#5881C2;" d="M24.1,173.4c0,0-5.1,5.4-6.4,6.6c-1.3,1.2,9.2-6.5,9.2-6.5L24.1,173.4z"/>
<path style="fill:#5881C2;" d="M25.4,171.5c-0.1,0-6-4.9-5.8-4.7c0.2,0.2,14,4,14,4L25.4,171.5z"/>
<path style="fill:#5881C2;" d="M37.8,173.7c-0.1,0.4-8.9,7.3-8.9,7.3l14.3-7.1L37.8,173.7z"/>
<path style="fill:#5881C2;" d="M40.9,170.5l-9-7.3l12.2,7.2L40.9,170.5z"/>
<path style="fill:#BBC9E7;" d="M57,174.3c0,0-14.5,9-14.2,8.9c0.3-0.1,18.3-8.7,18.3-8.7L57,174.3z"/>
<path style="fill:#BBC9E7;" d="M55.6,170.2l-10.2-7.7l14.9,7.7L55.6,170.2z"/>
<path style="fill:#BBC9E7;" d="M70.3,174.8c-0.3,0.6-11.1,11.1-11.1,11.1L77,175.1L70.3,174.8z"/>
<path style="fill:#BBC9E7;" d="M69,170.7l-6.1-5.1c0,0,12.8,5.7,12.3,5.7C74.8,171.3,69,170.7,69,170.7z"/>
<path style="fill:#BBC9E7;" d="M85.8,175.5c-0.7,0.7-9,7.8-8.5,7.4c0.5-0.4,11.6-7.3,11.6-7.3L85.8,175.5z"/>
<path style="fill:#BBC9E7;" d="M85.6,173c0,0-8.4-6.7-7.9-6.6c0.5,0.2,10.7,7.2,10.7,7.2L85.6,173z"/>
<path style="fill:#5881C2;" d="M316.3,166.2c0,0-6.3-17.5-0.4-16.4c5.9,1.1,2.7,14.4,1.4,16.9L316.3,166.2z"/>
<path style="fill:#7598CF;" d="M315.1,170.8c0,0,7.8-6.3,12.3-4.9c4.4,1.4,3.4,5.9-1,6.8c-4.4,0.9-12.6,0.3-12.6,0.3
	S313.8,171,315.1,170.8z"/>
<path style="fill:#5881C2;" d="M306.5,184.8c0,0,6.5-4.4,10.7-5.1c4.2-0.7,5.2,1.5,4.4,3.8c-0.8,2.4-2.3,2.6-5.6,2.9
	c-3.3,0.3-10.8,0.2-10.8,0.2L306.5,184.8z"/>
<path style="fill:#7598CF;" d="M311.2,175.3c0,0-1.9-13.1-7.9-12.2c-5.9,0.9,6.9,13.9,6.9,13.9L311.2,175.3z"/>
<path style="fill:#7598CF;" d="M302.1,189c0,0,0.4-8.7-2.4-12c-2.8-3.3-6.4-1.7-5.7,1.8c0.7,3.5,7.3,11.3,7.3,11.3L302.1,189z"/>
<path style="fill:#5881C2;" d="M299,194.4c0,0,10.1-2.2,12.7-0.1c2.6,2.1,2.1,6.1-2.8,5.6c-4.9-0.5-12.1-3.4-12.1-3.4
	S297.9,194.7,299,194.4z"/>
<path style="fill:#A3B5DE;" d="M290.6,199.8c0,0-0.7-11.8-5.3-14.2c-4.6-2.4-3.7,4.3-2.1,6.6c1.7,2.4,7,9.1,7,9.1L290.6,199.8z"/>
<path style="fill:#7598CF;" d="M286,203.9c0,0,12-2.2,14,2.5c2,4.7-7.3,3.3-10.7,2.1c-3.5-1.2-6.9-2.6-6.9-2.6
	S284.5,203.1,286,203.9z"/>
<path style="fill:#BECDE9;" d="M278.4,206.6c0,0-1.8-16-5.2-14.1c-3.4,1.9-3,5.8-0.6,9.3c2.4,3.5,4.1,5.7,4.1,5.7l1.8-0.1
	L278.4,206.6z"/>
<path style="fill:#BECDE9;" d="M275.1,209.4c0,0,11.4,1.3,10.8,5.1c-0.5,3.8-3.3,4.1-7.4,2.4c-4-1.7-6.8-6-6.8-6L275.1,209.4z"/>
<path style="fill:#5881C2;" d="M265.2,213.7l-0.4-1c0.2-0.1,23.6-9.4,32.4-17.9c8.8-8.6,19.1-28.3,19.2-28.6l1,0.5
	c-0.1,0.2-10.5,20.1-19.4,28.8C289,204.3,266.1,213.3,265.2,213.7z"/>
<path style="fill:#5881C2;" d="M308.9,110.2c0,0-6.3-17.5-0.4-16.4c5.9,1.1,2.7,14.4,1.3,16.9L308.9,110.2z"/>
<path style="fill:#7598CF;" d="M307.6,114.8c0,0,7.9-6.3,12.3-4.8c4.4,1.5,3.4,6-1,6.8c-4.4,0.9-12.6,0.3-12.6,0.3
	S306.3,114.9,307.6,114.8z"/>
<path style="fill:#5881C2;" d="M299,128.7c0,0,6.5-4.4,10.7-5c4.2-0.6,5.2,1.5,4.4,3.9c-0.8,2.4-2.4,2.6-5.6,2.9
	c-3.3,0.3-10.8,0.2-10.8,0.2L299,128.7z"/>
<path style="fill:#7598CF;" d="M303.7,119.3c0,0-1.9-13.1-7.9-12.3c-6,0.9,6.9,13.9,6.9,13.9L303.7,119.3z"/>
<path style="fill:#7598CF;" d="M294.6,133c0,0,0.4-8.7-2.4-12c-2.8-3.4-6.4-1.7-5.7,1.8c0.7,3.5,7.2,11.3,7.2,11.3L294.6,133z"/>
<path style="fill:#5881C2;" d="M291.5,138.4c0,0,10.1-2.2,12.7-0.1c2.6,2.1,2.1,6.1-2.8,5.6c-4.9-0.6-12.1-3.4-12.1-3.4
	S290.3,138.6,291.5,138.4z"/>
<path style="fill:#A3B5DE;" d="M283.1,143.7c0,0-0.7-11.8-5.3-14.2c-4.6-2.4-3.8,4.3-2.1,6.6c1.7,2.4,7,9.1,7,9.1L283.1,143.7z"/>
<path style="fill:#7598CF;" d="M278.4,147.7c0,0,12-2.2,14,2.5c2,4.7-7.3,3.3-10.7,2.1c-3.4-1.2-6.8-2.7-6.8-2.7
	S276.9,147,278.4,147.7z"/>
<path style="fill:#BECDE9;" d="M270.8,150.5c0,0-1.8-16.1-5.2-14.1c-3.4,1.9-3,5.8-0.6,9.3c2.4,3.5,4.1,5.7,4.1,5.7l1.8-0.1
	L270.8,150.5z"/>
<path style="fill:#BECDE9;" d="M267.5,153.2c0,0,11.3,1.4,10.8,5.2c-0.5,3.8-3.4,4-7.4,2.4c-4-1.7-6.8-6-6.8-6L267.5,153.2z"/>
<path style="fill:#5881C2;" d="M257.6,157.5l-0.4-1c0.2-0.1,23.6-9.3,32.4-17.8c8.8-8.5,19.2-28.3,19.3-28.5l1,0.5
	c-0.1,0.2-10.6,20.1-19.5,28.8C281.4,148.2,258.5,157.1,257.6,157.5z"/>
<path style="fill:#5881C2;" d="M88.4,41c0,0,13.5-12.8,7.7-14.4c-5.8-1.7-8.9,11.6-8.8,14.5L88.4,41z"/>
<path style="fill:#7598CF;" d="M87.4,45.6c0,0-4.2-9.2-8.8-9.9c-4.6-0.7-5.7,3.8-2.2,6.6c3.6,2.8,11.1,6,11.1,6S88.5,46.3,87.4,45.6
	z"/>
<path style="fill:#5881C2;" d="M88.8,61.9c0,0-3.8-6.9-7.3-9.4c-3.5-2.5-5.3-1-5.6,1.5c-0.3,2.5,0.9,3.4,3.7,5.1
	c2.8,1.7,9.5,5,9.5,5L88.8,61.9z"/>
<path style="fill:#7598CF;" d="M88.9,51.4c0,0,7.6-10.9,12.5-7.4c4.9,3.5-12.4,9.3-12.4,9.3L88.9,51.4z"/>
<path style="fill:#7598CF;" d="M90.8,67.7c0,0,3.6-7.9,7.6-9.6c4-1.7,6.5,1.4,4.3,4.2c-2.2,2.8-11.6,6.8-11.6,6.8L90.8,67.7z"/>
<path style="fill:#5881C2;" d="M91.2,74c0,0-8.1-6.5-11.3-5.8c-3.3,0.7-4.6,4.5,0,6.2c4.6,1.7,12.3,2.4,12.3,2.4S92.1,74.7,91.2,74z
	"/>
<path style="fill:#5881C2;" d="M96.3,82.5c0,0,5.9-10.2,11.1-10.3c5.2-0.1,1.4,5.5-1.1,6.9c-2.6,1.4-10.4,5-10.4,5L96.3,82.5z"/>
<path style="fill:#7598CF;" d="M98.5,88.2c0,0-9.7-7.4-13.6-4.1c-3.9,3.3,5,6.2,8.6,6.7c3.6,0.5,7.3,0.7,7.3,0.7
	S100.3,88.2,98.5,88.2z"/>
<path style="fill:#7598CF;" d="M104.1,94.1c0,0,8.8-13.5,11-10.3c2.2,3.3,0.1,6.5-3.6,8.6c-3.7,2-6.2,3.3-6.2,3.3l-1.6-0.9
	L104.1,94.1z"/>
<path style="fill:#BECDE9;" d="M105.8,98c0,0-10.7-3.9-12-0.3c-1.3,3.7,1.2,5.1,5.5,5.4c4.3,0.3,8.8-2.3,8.8-2.3L105.8,98z"/>
<path style="fill:#5881C2;" d="M112.7,106.4l0.8-0.7c-0.2-0.2-16.9-19-20.9-30.5c-4-11.6-4.3-33.9-4.3-34.1l-1.1,0
	c0,0.2,0.3,22.7,4.4,34.5C95.7,87.3,112.1,105.6,112.7,106.4z"/>
<path style="fill:#7598CF;" d="M279,49.5c0,0-56.1,2.5-55.8,68.6C223.2,118.1,272.3,125.1,279,49.5z"/>
<path style="fill:#5881C2;" d="M275.1,53.4c1.2-1.1,1.8-1.6,1.8-1.6C276.4,52.1,275.8,52.7,275.1,53.4z"/>
<path style="fill:#5881C2;" d="M272.5,65.4c-1.6,0.2-8.4,0.6-8.4,0.6c4.6-5.6,8.5-10.1,11-12.5c-2.5,2.2-7.3,6.6-13,12.3
	c0.1-0.1,0.1-6.6,0.2-6.8c0,0.3-5.5,12.2-5.5,12.2l0,0c-1.5,1.6-3.1,3.2-4.6,4.9l0,0l0.2-10.6l-2.2,12.8c-2.3,2.6-4.7,5.2-6.9,8
	l0.7-11.7l-3.4,15c-1.7,2.1-3.4,4.3-5,6.5v0l0.1-7.3c0,0-3.6,12.4-3.3,12c0,0,0,0,0,0c-1.9,2.8-3.6,5.6-5,8.3l0,0
	c0,0,0.2-9.9,0.1-9.4c-0.2,0.4-1.3,11.8-1.3,11.8c-1.1,2.3-2.1,4.6-2.9,6.8c0,0,4.4-5.8,10.7-14l18.1-6.1c0,0-13.8,1.3-14.4,1.2
	l-3.7,4.8c2.7-3.5,5.7-7.4,8.9-11.5c0,0,16.8-7.6,17-7.7c0.2-0.2-14.6,4.7-14.7,4.7c2.6-3.3,5.2-6.7,7.8-10l13.5-5.8
	c0,0-10,2.1-10.3,1.9c2.1-2.7,4.3-5.3,6.3-7.7C262.4,68,274.1,65.1,272.5,65.4z M262.4,67.9c0.5-0.7,1.1-1.3,1.6-2L262.4,67.9z
	 M242.9,92.5c0.8-1,1.5-2,2.3-3L242.9,92.5z M253,79.6c1-1.3,2.1-2.6,3.1-3.9L253,79.6z"/>
<path style="fill:#5881C2;" d="M227.2,112.9c0,0,11.5-3.7,12-3.9c0.5-0.1-9.3,1.4-10.2,1.5L227.2,112.9z"/>
<linearGradient id="SVGID_00000016788207998877105770000008491259737418490752_" gradientUnits="userSpaceOnUse" x1="194.681" y1="238.1046" x2="250.5039" y2="238.1046" gradientTransform="matrix(1 0 0 -1 0 322)">
	<stop  offset="0" style="stop-color:#FFFFFF"/>
	<stop  offset="1" style="stop-color:#83A3D5"/>
</linearGradient>
<path style="fill:url(#SVGID_00000016788207998877105770000008491259737418490752_);" d="M194.7,49.5c0,0,56.1,2.5,55.8,68.6
	C250.5,118.1,201.4,125.1,194.7,49.5z"/>
<path style="fill:#5881C2;" d="M198.6,53.4c-1.2-1.1-1.8-1.6-1.8-1.6C197.3,52.1,197.9,52.7,198.6,53.4z"/>
<path style="fill:#5881C2;" d="M211.3,68c2,2.4,4.1,5,6.3,7.7c-0.4,0.2-10.3-1.9-10.3-1.9l13.5,5.8c2.6,3.3,5.3,6.7,7.8,10
	c0,0-14.9-4.9-14.7-4.7s17,7.7,17,7.7c3.2,4.1,6.2,8,8.9,11.5l-3.7-4.8c-0.6,0.1-14.4-1.2-14.4-1.2l18.1,6.1
	c6.3,8.2,10.7,14,10.7,14c-0.8-2.2-1.7-4.5-2.9-6.8c0,0-1.1-11.4-1.3-11.8c-0.2-0.4,0.1,9.4,0.1,9.4l0,0c-1.5-2.8-3.2-5.6-5-8.3
	c0,0,0,0,0,0c0.2,0.4-3.3-12-3.3-12l0.1,7.3c0,0,0,0,0,0c-1.6-2.2-3.2-4.3-5-6.5l-3.4-15l0.7,11.7c-2.3-2.7-4.6-5.4-6.9-8l-2.2-12.8
	l0.2,10.6l0,0c-1.6-1.7-3.1-3.3-4.6-4.9l0,0c0,0-5.5-11.9-5.5-12.2c0,0.2,0.1,6.8,0.2,6.8c-5.7-5.7-10.5-10.1-13-12.3
	c2.5,2.5,6.4,7,11,12.5c0,0-6.8-0.3-8.4-0.6C199.6,65.1,211.3,68,211.3,68z M209.7,66c0.5,0.6,1.1,1.3,1.6,2L209.7,66z M228.5,89.6
	c0.8,1,1.6,2,2.3,3L228.5,89.6z M217.6,75.7c1,1.3,2.1,2.6,3.1,3.9L217.6,75.7z"/>
<path style="fill:#5881C2;" d="M246.5,112.9c0,0-11.5-3.7-12-3.9s9.3,1.4,10.2,1.5L246.5,112.9z"/>
<linearGradient id="SVGID_00000129203530205615749490000009753482829747993511_" gradientUnits="userSpaceOnUse" x1="117.505" y1="304.39" x2="312.276" y2="303.4877" gradientTransform="matrix(1 0 0 -1 0 322)">
	<stop  offset="1.000000e-08" style="stop-color:#005E98"/>
	<stop  offset="1" style="stop-color:#1D3557"/>
</linearGradient>
<path style="fill:url(#SVGID_00000129203530205615749490000009753482829747993511_);" d="M228.9,36h-60.6c-9.9,0-18-8.1-18-18
	c0-9.9,8.1-18,18-18h60.6c9.9,0,18,8.1,18,18C246.9,27.9,238.8,36,228.9,36z"/>
<linearGradient id="SVGID_00000173125140145143988720000009096327036990902175_" gradientUnits="userSpaceOnUse" x1="153.23" y1="304.0142" x2="244.026" y2="304.0142" gradientTransform="matrix(1 0 0 -1 0 322)">
	<stop  offset="9.584670e-09" style="stop-color:#166AB4"/>
	<stop  offset="1" style="stop-color:#172D4D"/>
</linearGradient>
<path style="fill:url(#SVGID_00000173125140145143988720000009096327036990902175_);" d="M228.5,33.5h-59.7c-8.6,0-15.5-7-15.5-15.6
	c0-8.6,7-15.6,15.5-15.6h59.7c8.6,0,15.5,7,15.5,15.6C244,26.6,237.1,33.5,228.5,33.5z"/>
<path style="fill:#7598CF;" d="M238.1,11.1h-79.3c-0.6,0-1.1-0.5-1.1-1.1c0-0.6,0.5-1.1,1.1-1.1h79.3c0.6,0,1.1,0.5,1.1,1.1
	C239.2,10.7,238.7,11.1,238.1,11.1z"/>
<path style="fill:#7598CF;" d="M238.1,16.4h-79.3c-0.6,0-1.1-0.5-1.1-1.1c0-0.6,0.5-1.1,1.1-1.1h79.3c0.6,0,1.1,0.5,1.1,1.1
	C239.2,15.9,238.7,16.4,238.1,16.4z"/>
<path style="fill:#7598CF;" d="M238.1,21.7h-79.3c-0.6,0-1.1-0.5-1.1-1.1s0.5-1.1,1.1-1.1h79.3c0.6,0,1.1,0.5,1.1,1.1
	S238.7,21.7,238.1,21.7z"/>
<path style="fill:#7598CF;" d="M238.1,27h-79.3c-0.6,0-1.1-0.5-1.1-1.1s0.5-1.1,1.1-1.1h79.3c0.6,0,1.1,0.5,1.1,1.1
	S238.7,27,238.1,27z"/>
<linearGradient id="SVGID_00000083772530356147786160000002898713623941394360_" gradientUnits="userSpaceOnUse" x1="69.2964" y1="132.588" x2="288.8727" y2="146.662" gradientTransform="matrix(1 0 0 -1 0 322)">
	<stop  offset="0" style="stop-color:#166AB4"/>
	<stop  offset="0.9807" style="stop-color:#172D4D"/>
</linearGradient>
<path style="fill:url(#SVGID_00000083772530356147786160000002898713623941394360_);" d="M231.1,274.3l-92,5.9
	c-35.2,2.3-65.6-24.5-67.9-59.7l-4-62c-2.3-35.3,24.5-65.7,59.7-67.9l92-5.9c35.2-2.3,65.6,24.5,67.9,59.7l4,62
	C293.1,241.6,266.4,272,231.1,274.3z"/>
<path style="fill:#EEF2FA;" d="M182.6,320.8h-68.5c-31.7,0-57.3-25.7-57.3-57.3v-51.3c0-31.7,25.7-57.3,57.3-57.3h68.5
	c31.7,0,57.3,25.7,57.3,57.3v51.3C239.9,295.1,214.3,320.8,182.6,320.8z"/>
<path style="fill:#A2BBE1;" d="M253.9,123.8H108.6c-1.6,0-2.8-1.3-2.8-2.8c0-1.6,1.3-2.8,2.8-2.8h145.3c1.6,0,2.8,1.3,2.8,2.8
	C256.8,122.5,255.5,123.8,253.9,123.8z"/>
<path style="fill:#A2BBE1;" d="M253.9,134.9H108.6c-1.6,0-2.8-1.3-2.8-2.8c0-1.6,1.3-2.8,2.8-2.8h145.3c1.6,0,2.8,1.3,2.8,2.8
	C256.8,133.7,255.5,134.9,253.9,134.9z"/>
<path style="fill:#A2BBE1;" d="M253.9,146.1H108.6c-1.6,0-2.8-1.3-2.8-2.8s1.3-2.8,2.8-2.8h145.3c1.6,0,2.8,1.3,2.8,2.8
	S255.5,146.1,253.9,146.1z"/>
<path style="fill:#A2BBE1;" d="M253.9,157.2H108.6c-1.6,0-2.8-1.3-2.8-2.8c0-1.6,1.3-2.8,2.8-2.8h145.3c1.6,0,2.8,1.3,2.8,2.8
	C256.8,155.9,255.5,157.2,253.9,157.2z"/>
<linearGradient id="SVGID_00000104664398468548262170000007001790739702171549_" gradientUnits="userSpaceOnUse" x1="149.1348" y1="160.7239" x2="156.2687" y2="34.4199" gradientTransform="matrix(1 0 0 -1 0 322)">
	<stop  offset="0" style="stop-color:#EDAB86"/>
	<stop  offset="1" style="stop-color:#FF5D02"/>
</linearGradient>
<path style="fill:url(#SVGID_00000104664398468548262170000007001790739702171549_);" d="M151.7,239.7c-4,0-7.2-3.2-7.2-7.2v-50.4
	c0-4,3.2-7.2,7.2-7.2c4,0,7.2,3.2,7.2,7.2v50.4C158.9,236.5,155.7,239.7,151.7,239.7z"/>
<linearGradient id="SVGID_00000029763323190993195990000014167002941384146876_" gradientUnits="userSpaceOnUse" x1="165.9137" y1="172.6337" x2="174.1307" y2="27.1456" gradientTransform="matrix(1 0 0 -1 0 322)">
	<stop  offset="9.584670e-09" style="stop-color:#166AB4"/>
	<stop  offset="1" style="stop-color:#172D4D"/>
</linearGradient>
<path style="fill:url(#SVGID_00000029763323190993195990000014167002941384146876_);" d="M168.9,239.7c-4,0-7.2-3.2-7.2-7.2v-60.2
	c0-4,3.2-7.2,7.2-7.2s7.2,3.2,7.2,7.2v60.2C176.1,236.5,172.9,239.7,168.9,239.7z"/>
<linearGradient id="SVGID_00000173861101636762223050000003367301924904660355_" gradientUnits="userSpaceOnUse" x1="184.0544" y1="143.785" x2="189.6474" y2="44.767" gradientTransform="matrix(1 0 0 -1 0 322)">
	<stop  offset="0" style="stop-color:#EDAB86"/>
	<stop  offset="1" style="stop-color:#FF5D02"/>
</linearGradient>
<path style="fill:url(#SVGID_00000173861101636762223050000003367301924904660355_);" d="M186.1,239.7c-4,0-7.2-3.2-7.2-7.2v-36.4
	c0-4,3.2-7.2,7.2-7.2c4,0,7.2,3.2,7.2,7.2v36.4C193.3,236.5,190.1,239.7,186.1,239.7z"/>
<linearGradient id="SVGID_00000047053034507795115390000000041982387655796137_" gradientUnits="userSpaceOnUse" x1="199.9463" y1="182.4497" x2="209.0573" y2="21.1507" gradientTransform="matrix(1 0 0 -1 0 322)">
	<stop  offset="9.584670e-09" style="stop-color:#166AB4"/>
	<stop  offset="1" style="stop-color:#172D4D"/>
</linearGradient>
<path style="fill:url(#SVGID_00000047053034507795115390000000041982387655796137_);" d="M203.3,239.7c-4,0-7.2-3.2-7.2-7.2v-68.3
	c0-4,3.2-7.2,7.2-7.2c4,0,7.2,3.2,7.2,7.2v68.3C210.4,236.5,207.2,239.7,203.3,239.7z"/>
<linearGradient id="SVGID_00000028300870817558457850000012999800326990351254_" gradientUnits="userSpaceOnUse" x1="218.0182" y1="155.6831" x2="224.6932" y2="37.5001" gradientTransform="matrix(1 0 0 -1 0 322)">
	<stop  offset="0" style="stop-color:#EDAB86"/>
	<stop  offset="1" style="stop-color:#FF5D02"/>
</linearGradient>
<path style="fill:url(#SVGID_00000028300870817558457850000012999800326990351254_);" d="M220.5,239.7c-4,0-7.2-3.2-7.2-7.2v-46.2
	c0-4,3.2-7.2,7.2-7.2c4,0,7.2,3.2,7.2,7.2v46.2C227.6,236.5,224.4,239.7,220.5,239.7z"/>
<linearGradient id="SVGID_00000129903696753710537530000014408158314625257393_" gradientUnits="userSpaceOnUse" x1="235.306" y1="152.2619" x2="241.671" y2="39.5889" gradientTransform="matrix(1 0 0 -1 0 322)">
	<stop  offset="9.584670e-09" style="stop-color:#166AB4"/>
	<stop  offset="1" style="stop-color:#172D4D"/>
</linearGradient>
<path style="fill:url(#SVGID_00000129903696753710537530000014408158314625257393_);" d="M237.6,239.7c-4,0-7.2-3.2-7.2-7.2v-43.4
	c0-4,3.2-7.2,7.2-7.2c4,0,7.2,3.2,7.2,7.2v43.4C244.8,236.5,241.6,239.7,237.6,239.7z"/>
<linearGradient id="SVGID_00000155859118909931311320000002314390798030696345_" gradientUnits="userSpaceOnUse" x1="82.1845" y1="142.545" x2="-8.0533" y2="143.636" gradientTransform="matrix(1 0 0 -1 0 322)">
	<stop  offset="9.584670e-09" style="stop-color:#166AB4"/>
	<stop  offset="1" style="stop-color:#172D4D"/>
</linearGradient>
<path style="fill:url(#SVGID_00000155859118909931311320000002314390798030696345_);" d="M118.9,216.4c-8.1,6.1-18.2,9.7-29.2,9.7
	c-26.4,0-47.8-20.8-47.8-46.5S63.4,133,89.8,133v46.5L118.9,216.4z"/>
<linearGradient id="SVGID_00000018198100827408063730000012591651700719083393_" gradientUnits="userSpaceOnUse" x1="104.5169" y1="148.8648" x2="186.5979" y2="152.7098" gradientTransform="matrix(1 0 0 -1 0 322)">
	<stop  offset="0" style="stop-color:#EDAB86"/>
	<stop  offset="1" style="stop-color:#FF5D02"/>
</linearGradient>
<path style="fill:url(#SVGID_00000018198100827408063730000012591651700719083393_);" d="M139.2,177.6c0,14.4-6.8,27.2-17.4,35.3
	l-27.2-35.3V133C119.2,133,139.2,153,139.2,177.6z"/>
<path style="fill:#FFFFFF;" d="M305.9,281.7h-67.6c-3.4,0-6.2-2.1-6.2-4.7v-63.5c0-2.6,2.8-4.7,6.2-4.7h67.6c3.4,0,6.2,2.1,6.2,4.7
	V277C312,279.6,309.3,281.7,305.9,281.7z M238.3,210.3c-2.4,0-4.3,1.5-4.3,3.3V277c0,1.8,1.9,3.3,4.3,3.3h67.6
	c2.4,0,4.3-1.5,4.3-3.3v-63.5c0-1.8-1.9-3.3-4.3-3.3H238.3z"/>
<path style="fill:#7598CF;" d="M303,217h-62.9c-0.9,0-1.6,0.6-1.6,1.2c0,0.7,0.7,1.2,1.6,1.2H303c0.9,0,1.6-0.6,1.6-1.2
	C304.7,217.6,303.9,217,303,217z"/>
<path style="fill:#7598CF;" d="M303,222.4h-62.9c-0.9,0-1.6,0.6-1.6,1.2c0,0.7,0.7,1.2,1.6,1.2H303c0.9,0,1.6-0.6,1.6-1.2
	C304.7,222.9,303.9,222.4,303,222.4z"/>
<path style="fill:#7598CF;" d="M303,228.3h-62.9c-0.9,0-1.6,0.6-1.6,1.2c0,0.7,0.7,1.2,1.6,1.2H303c0.9,0,1.6-0.6,1.6-1.2
	C304.7,228.9,303.9,228.3,303,228.3z"/>
<path style="fill:#7598CF;" d="M303,233.7h-62.9c-0.9,0-1.6,0.6-1.6,1.2c0,0.7,0.7,1.2,1.6,1.2H303c0.9,0,1.6-0.6,1.6-1.2
	C304.7,234.3,303.9,233.7,303,233.7z"/>
<path style="fill:#7598CF;" d="M303,239.1h-62.9c-0.9,0-1.6,0.6-1.6,1.2c0,0.7,0.7,1.2,1.6,1.2H303c0.9,0,1.6-0.6,1.6-1.2
	C304.7,239.7,303.9,239.1,303,239.1z"/>
<path style="fill:#7598CF;" d="M303,244.5h-62.9c-0.9,0-1.6,0.6-1.6,1.2c0,0.7,0.7,1.2,1.6,1.2H303c0.9,0,1.6-0.6,1.6-1.2
	C304.7,245.1,303.9,244.5,303,244.5z"/>
<path style="fill:#7598CF;" d="M303,250.5h-62.9c-0.9,0-1.6,0.6-1.6,1.2c0,0.7,0.7,1.2,1.6,1.2H303c0.9,0,1.6-0.6,1.6-1.2
	C304.7,251,303.9,250.5,303,250.5z"/>
<path style="fill:#7598CF;" d="M303,255.8h-62.9c-0.9,0-1.6,0.6-1.6,1.2c0,0.7,0.7,1.2,1.6,1.2H303c0.9,0,1.6-0.6,1.6-1.2
	C304.7,256.4,303.9,255.8,303,255.8z"/>
<linearGradient id="SVGID_00000061471825059894859590000011056041622763564436_" gradientUnits="userSpaceOnUse" x1="224.7738" y1="36.6756" x2="355.4488" y2="41.3956" gradientTransform="matrix(1 0 0 -1 0 322)">
	<stop  offset="0" style="stop-color:#EDAB86"/>
	<stop  offset="1" style="stop-color:#FF5D02"/>
</linearGradient>
<path style="fill:url(#SVGID_00000061471825059894859590000011056041622763564436_);" d="M269.9,252.7l-2.6,7.5
	c-0.4,1.2-1.9,2.1-3.6,2.1h-36.6c-2,0-3.7,1.2-3.7,2.8v47.1c0,1.5,1.6,2.8,3.7,2.8h87c2,0,3.7-1.2,3.7-2.8v-39.9v-10.1v-8.9
	c0-1.5-1.6-2.8-3.7-2.8h-40.7C271.8,250.7,270.3,251.5,269.9,252.7z"/>
<linearGradient id="SVGID_00000124876270360567679140000014981410574860994726_" gradientUnits="userSpaceOnUse" x1="95.2025" y1="40.2382" x2="214.724" y2="40.6372" gradientTransform="matrix(1 0 0 -1 0 322)">
	<stop  offset="9.584670e-09" style="stop-color:#166AB4"/>
	<stop  offset="1" style="stop-color:#172D4D"/>
</linearGradient>
<path style="fill:url(#SVGID_00000124876270360567679140000014981410574860994726_);" d="M135.4,316.9H76.2c-8.3,0-15-6.7-15-15
	v-40.2c0-8.3,6.7-15,15-15h59.2c8.3,0,15,6.7,15,15v40.2C150.4,310.1,143.7,316.9,135.4,316.9z"/>
<path style="fill:#FFFFFF;" d="M134.4,313.8H77.1c-7,0-12.6-5.6-12.6-12.6v-28.2c0-7,5.6-12.6,12.6-12.6h57.3
	c7,0,12.6,5.6,12.6,12.6v28.2C147,308.2,141.4,313.8,134.4,313.8z"/>
<linearGradient id="SVGID_00000023244710980809452330000005333692592515134083_" gradientUnits="userSpaceOnUse" x1="72.7112" y1="53.2798" x2="83.0128" y2="53.3138" gradientTransform="matrix(1 0 0 -1 0 322)">
	<stop  offset="0" style="stop-color:#EDAB86"/>
	<stop  offset="1" style="stop-color:#FF5D02"/>
</linearGradient>
<path style="fill:url(#SVGID_00000023244710980809452330000005333692592515134083_);" d="M77.9,264.9h-5.1c-0.7,0-1.3,0.6-1.3,1.3
	v5.1c0,0.7,0.6,1.3,1.3,1.3h5.1c0.7,0,1.3-0.6,1.3-1.3v-5.1C79.2,265.4,78.6,264.9,77.9,264.9z"/>
<linearGradient id="SVGID_00000072981325146840267810000000881823659691055244_" gradientUnits="userSpaceOnUse" x1="84.8948" y1="53.2798" x2="95.1964" y2="53.3138" gradientTransform="matrix(1 0 0 -1 0 322)">
	<stop  offset="0" style="stop-color:#EDAB86"/>
	<stop  offset="1" style="stop-color:#FF5D02"/>
</linearGradient>
<path style="fill:url(#SVGID_00000072981325146840267810000000881823659691055244_);" d="M90.1,264.9H85c-0.7,0-1.3,0.6-1.3,1.3v5.1
	c0,0.7,0.6,1.3,1.3,1.3h5.1c0.7,0,1.3-0.6,1.3-1.3v-5.1C91.4,265.4,90.8,264.9,90.1,264.9z"/>
<linearGradient id="SVGID_00000078009544670079967500000017218324607382826368_" gradientUnits="userSpaceOnUse" x1="96.9285" y1="53.2798" x2="107.23" y2="53.3138" gradientTransform="matrix(1 0 0 -1 0 322)">
	<stop  offset="0" style="stop-color:#EDAB86"/>
	<stop  offset="1" style="stop-color:#FF5D02"/>
</linearGradient>
<path style="fill:url(#SVGID_00000078009544670079967500000017218324607382826368_);" d="M102.1,264.9H97c-0.7,0-1.3,0.6-1.3,1.3
	v5.1c0,0.7,0.6,1.3,1.3,1.3h5.1c0.7,0,1.3-0.6,1.3-1.3v-5.1C103.4,265.4,102.8,264.9,102.1,264.9z"/>
<linearGradient id="SVGID_00000075882980149786952960000003839060231010120874_" gradientUnits="userSpaceOnUse" x1="109.112" y1="53.2798" x2="119.414" y2="53.3138" gradientTransform="matrix(1 0 0 -1 0 322)">
	<stop  offset="0" style="stop-color:#EDAB86"/>
	<stop  offset="1" style="stop-color:#FF5D02"/>
</linearGradient>
<path style="fill:url(#SVGID_00000075882980149786952960000003839060231010120874_);" d="M114.3,264.9h-5.1c-0.7,0-1.3,0.6-1.3,1.3
	v5.1c0,0.7,0.6,1.3,1.3,1.3h5.1c0.7,0,1.3-0.6,1.3-1.3v-5.1C115.6,265.4,115,264.9,114.3,264.9z"/>
<linearGradient id="SVGID_00000133489146115745895190000006666447222122295439_" gradientUnits="userSpaceOnUse" x1="121.545" y1="53.2798" x2="131.847" y2="53.3138" gradientTransform="matrix(1 0 0 -1 0 322)">
	<stop  offset="0" style="stop-color:#EDAB86"/>
	<stop  offset="1" style="stop-color:#FF5D02"/>
</linearGradient>
<path style="fill:url(#SVGID_00000133489146115745895190000006666447222122295439_);" d="M126.7,264.9h-5.1c-0.7,0-1.3,0.6-1.3,1.3
	v5.1c0,0.7,0.6,1.3,1.3,1.3h5.1c0.7,0,1.3-0.6,1.3-1.3v-5.1C128,265.4,127.4,264.9,126.7,264.9z"/>
<linearGradient id="SVGID_00000173161199227868353390000017395301307302542522_" gradientUnits="userSpaceOnUse" x1="133.579" y1="53.2798" x2="143.881" y2="53.3138" gradientTransform="matrix(1 0 0 -1 0 322)">
	<stop  offset="0" style="stop-color:#EDAB86"/>
	<stop  offset="1" style="stop-color:#FF5D02"/>
</linearGradient>
<path style="fill:url(#SVGID_00000173161199227868353390000017395301307302542522_);" d="M138.8,264.9h-5.1c-0.7,0-1.3,0.6-1.3,1.3
	v5.1c0,0.7,0.6,1.3,1.3,1.3h5.1c0.7,0,1.3-0.6,1.3-1.3v-5.1C140.1,265.4,139.5,264.9,138.8,264.9z"/>
<linearGradient id="SVGID_00000084510574981836352930000004136892197983801002_" gradientUnits="userSpaceOnUse" x1="72.7112" y1="41.4913" x2="83.0128" y2="41.5253" gradientTransform="matrix(1 0 0 -1 0 322)">
	<stop  offset="0" style="stop-color:#EDAB86"/>
	<stop  offset="1" style="stop-color:#FF5D02"/>
</linearGradient>
<path style="fill:url(#SVGID_00000084510574981836352930000004136892197983801002_);" d="M77.9,276.6h-5.1c-0.7,0-1.3,0.6-1.3,1.3
	v5.1c0,0.7,0.6,1.3,1.3,1.3h5.1c0.7,0,1.3-0.6,1.3-1.3v-5.1C79.2,277.2,78.6,276.6,77.9,276.6z"/>
<linearGradient id="SVGID_00000177448719894513509340000007924083719735741313_" gradientUnits="userSpaceOnUse" x1="84.8948" y1="41.4913" x2="95.1964" y2="41.5253" gradientTransform="matrix(1 0 0 -1 0 322)">
	<stop  offset="0" style="stop-color:#EDAB86"/>
	<stop  offset="1" style="stop-color:#FF5D02"/>
</linearGradient>
<path style="fill:url(#SVGID_00000177448719894513509340000007924083719735741313_);" d="M90.1,276.6H85c-0.7,0-1.3,0.6-1.3,1.3v5.1
	c0,0.7,0.6,1.3,1.3,1.3h5.1c0.7,0,1.3-0.6,1.3-1.3v-5.1C91.4,277.2,90.8,276.6,90.1,276.6z"/>
<linearGradient id="SVGID_00000070107174827515000890000012139609122012169116_" gradientUnits="userSpaceOnUse" x1="96.9285" y1="41.4913" x2="107.23" y2="41.5253" gradientTransform="matrix(1 0 0 -1 0 322)">
	<stop  offset="0" style="stop-color:#EDAB86"/>
	<stop  offset="1" style="stop-color:#FF5D02"/>
</linearGradient>
<path style="fill:url(#SVGID_00000070107174827515000890000012139609122012169116_);" d="M102.1,276.6H97c-0.7,0-1.3,0.6-1.3,1.3
	v5.1c0,0.7,0.6,1.3,1.3,1.3h5.1c0.7,0,1.3-0.6,1.3-1.3v-5.1C103.4,277.2,102.8,276.6,102.1,276.6z"/>
<linearGradient id="SVGID_00000127044851921210644060000008573850034443212467_" gradientUnits="userSpaceOnUse" x1="109.112" y1="41.4913" x2="119.414" y2="41.5253" gradientTransform="matrix(1 0 0 -1 0 322)">
	<stop  offset="0" style="stop-color:#EDAB86"/>
	<stop  offset="1" style="stop-color:#FF5D02"/>
</linearGradient>
<path style="fill:url(#SVGID_00000127044851921210644060000008573850034443212467_);" d="M114.3,276.6h-5.1c-0.7,0-1.3,0.6-1.3,1.3
	v5.1c0,0.7,0.6,1.3,1.3,1.3h5.1c0.7,0,1.3-0.6,1.3-1.3v-5.1C115.6,277.2,115,276.6,114.3,276.6z"/>
<linearGradient id="SVGID_00000039112615393567572190000012950151663728897169_" gradientUnits="userSpaceOnUse" x1="121.545" y1="41.4913" x2="131.847" y2="41.5253" gradientTransform="matrix(1 0 0 -1 0 322)">
	<stop  offset="0" style="stop-color:#EDAB86"/>
	<stop  offset="1" style="stop-color:#FF5D02"/>
</linearGradient>
<path style="fill:url(#SVGID_00000039112615393567572190000012950151663728897169_);" d="M126.7,276.6h-5.1c-0.7,0-1.3,0.6-1.3,1.3
	v5.1c0,0.7,0.6,1.3,1.3,1.3h5.1c0.7,0,1.3-0.6,1.3-1.3v-5.1C128,277.2,127.4,276.6,126.7,276.6z"/>
<linearGradient id="SVGID_00000116217054768328157130000013486346017222119326_" gradientUnits="userSpaceOnUse" x1="133.579" y1="41.4913" x2="143.881" y2="41.5253" gradientTransform="matrix(1 0 0 -1 0 322)">
	<stop  offset="0" style="stop-color:#EDAB86"/>
	<stop  offset="1" style="stop-color:#FF5D02"/>
</linearGradient>
<path style="fill:url(#SVGID_00000116217054768328157130000013486346017222119326_);" d="M138.8,276.6h-5.1c-0.7,0-1.3,0.6-1.3,1.3
	v5.1c0,0.7,0.6,1.3,1.3,1.3h5.1c0.7,0,1.3-0.6,1.3-1.3v-5.1C140.1,277.2,139.5,276.6,138.8,276.6z"/>
<linearGradient id="SVGID_00000170279021048848809110000016374207172666464172_" gradientUnits="userSpaceOnUse" x1="72.7112" y1="29.7028" x2="83.0128" y2="29.7368" gradientTransform="matrix(1 0 0 -1 0 322)">
	<stop  offset="0" style="stop-color:#EDAB86"/>
	<stop  offset="1" style="stop-color:#FF5D02"/>
</linearGradient>
<path style="fill:url(#SVGID_00000170279021048848809110000016374207172666464172_);" d="M77.9,288.4h-5.1c-0.7,0-1.3,0.6-1.3,1.3
	v5.1c0,0.7,0.6,1.3,1.3,1.3h5.1c0.7,0,1.3-0.6,1.3-1.3v-5.1C79.2,289,78.6,288.4,77.9,288.4z"/>
<linearGradient id="SVGID_00000142144207021643888880000003153826489244700303_" gradientUnits="userSpaceOnUse" x1="84.8948" y1="29.7028" x2="95.1964" y2="29.7368" gradientTransform="matrix(1 0 0 -1 0 322)">
	<stop  offset="0" style="stop-color:#EDAB86"/>
	<stop  offset="1" style="stop-color:#FF5D02"/>
</linearGradient>
<path style="fill:url(#SVGID_00000142144207021643888880000003153826489244700303_);" d="M90.1,288.4H85c-0.7,0-1.3,0.6-1.3,1.3v5.1
	c0,0.7,0.6,1.3,1.3,1.3h5.1c0.7,0,1.3-0.6,1.3-1.3v-5.1C91.4,289,90.8,288.4,90.1,288.4z"/>
<linearGradient id="SVGID_00000049184696468236934970000017364473367159021998_" gradientUnits="userSpaceOnUse" x1="96.9285" y1="29.7028" x2="107.23" y2="29.7368" gradientTransform="matrix(1 0 0 -1 0 322)">
	<stop  offset="0" style="stop-color:#EDAB86"/>
	<stop  offset="1" style="stop-color:#FF5D02"/>
</linearGradient>
<path style="fill:url(#SVGID_00000049184696468236934970000017364473367159021998_);" d="M102.1,288.4H97c-0.7,0-1.3,0.6-1.3,1.3
	v5.1c0,0.7,0.6,1.3,1.3,1.3h5.1c0.7,0,1.3-0.6,1.3-1.3v-5.1C103.4,289,102.8,288.4,102.1,288.4z"/>
<linearGradient id="SVGID_00000133501681409076050850000004009781584889899191_" gradientUnits="userSpaceOnUse" x1="109.112" y1="29.7028" x2="119.414" y2="29.7368" gradientTransform="matrix(1 0 0 -1 0 322)">
	<stop  offset="0" style="stop-color:#EDAB86"/>
	<stop  offset="1" style="stop-color:#FF5D02"/>
</linearGradient>
<path style="fill:url(#SVGID_00000133501681409076050850000004009781584889899191_);" d="M114.3,288.4h-5.1c-0.7,0-1.3,0.6-1.3,1.3
	v5.1c0,0.7,0.6,1.3,1.3,1.3h5.1c0.7,0,1.3-0.6,1.3-1.3v-5.1C115.6,289,115,288.4,114.3,288.4z"/>
<linearGradient id="SVGID_00000152234974959293683190000008849988437258262925_" gradientUnits="userSpaceOnUse" x1="121.545" y1="29.7028" x2="131.847" y2="29.7368" gradientTransform="matrix(1 0 0 -1 0 322)">
	<stop  offset="0" style="stop-color:#EDAB86"/>
	<stop  offset="1" style="stop-color:#FF5D02"/>
</linearGradient>
<path style="fill:url(#SVGID_00000152234974959293683190000008849988437258262925_);" d="M126.7,288.4h-5.1c-0.7,0-1.3,0.6-1.3,1.3
	v5.1c0,0.7,0.6,1.3,1.3,1.3h5.1c0.7,0,1.3-0.6,1.3-1.3v-5.1C128,289,127.4,288.4,126.7,288.4z"/>
<linearGradient id="SVGID_00000078749536650260759960000005324076398496790680_" gradientUnits="userSpaceOnUse" x1="133.579" y1="29.7028" x2="143.881" y2="29.7368" gradientTransform="matrix(1 0 0 -1 0 322)">
	<stop  offset="0" style="stop-color:#EDAB86"/>
	<stop  offset="1" style="stop-color:#FF5D02"/>
</linearGradient>
<path style="fill:url(#SVGID_00000078749536650260759960000005324076398496790680_);" d="M138.8,288.4h-5.1c-0.7,0-1.3,0.6-1.3,1.3
	v5.1c0,0.7,0.6,1.3,1.3,1.3h5.1c0.7,0,1.3-0.6,1.3-1.3v-5.1C140.1,289,139.5,288.4,138.8,288.4z"/>
<linearGradient id="SVGID_00000062169622162320817270000003924224701818405296_" gradientUnits="userSpaceOnUse" x1="72.7112" y1="17.914" x2="83.0128" y2="17.949" gradientTransform="matrix(1 0 0 -1 0 322)">
	<stop  offset="0" style="stop-color:#EDAB86"/>
	<stop  offset="1" style="stop-color:#FF5D02"/>
</linearGradient>
<path style="fill:url(#SVGID_00000062169622162320817270000003924224701818405296_);" d="M77.9,300.2h-5.1c-0.7,0-1.3,0.6-1.3,1.3
	v5.1c0,0.7,0.6,1.3,1.3,1.3h5.1c0.7,0,1.3-0.6,1.3-1.3v-5.1C79.2,300.8,78.6,300.2,77.9,300.2z"/>
<linearGradient id="SVGID_00000121965169692733246750000011939354429340971157_" gradientUnits="userSpaceOnUse" x1="84.8948" y1="17.914" x2="95.1964" y2="17.949" gradientTransform="matrix(1 0 0 -1 0 322)">
	<stop  offset="0" style="stop-color:#EDAB86"/>
	<stop  offset="1" style="stop-color:#FF5D02"/>
</linearGradient>
<path style="fill:url(#SVGID_00000121965169692733246750000011939354429340971157_);" d="M90.1,300.2H85c-0.7,0-1.3,0.6-1.3,1.3v5.1
	c0,0.7,0.6,1.3,1.3,1.3h5.1c0.7,0,1.3-0.6,1.3-1.3v-5.1C91.4,300.8,90.8,300.2,90.1,300.2z"/>
<linearGradient id="SVGID_00000005954967475318089360000016162448549328740514_" gradientUnits="userSpaceOnUse" x1="96.9285" y1="17.914" x2="107.23" y2="17.949" gradientTransform="matrix(1 0 0 -1 0 322)">
	<stop  offset="0" style="stop-color:#EDAB86"/>
	<stop  offset="1" style="stop-color:#FF5D02"/>
</linearGradient>
<path style="fill:url(#SVGID_00000005954967475318089360000016162448549328740514_);" d="M102.1,300.2H97c-0.7,0-1.3,0.6-1.3,1.3
	v5.1c0,0.7,0.6,1.3,1.3,1.3h5.1c0.7,0,1.3-0.6,1.3-1.3v-5.1C103.4,300.8,102.8,300.2,102.1,300.2z"/>
<linearGradient id="SVGID_00000039098607624008507360000006856698220177186443_" gradientUnits="userSpaceOnUse" x1="109.112" y1="17.914" x2="119.414" y2="17.949" gradientTransform="matrix(1 0 0 -1 0 322)">
	<stop  offset="0" style="stop-color:#EDAB86"/>
	<stop  offset="1" style="stop-color:#FF5D02"/>
</linearGradient>
<path style="fill:url(#SVGID_00000039098607624008507360000006856698220177186443_);" d="M114.3,300.2h-5.1c-0.7,0-1.3,0.6-1.3,1.3
	v5.1c0,0.7,0.6,1.3,1.3,1.3h5.1c0.7,0,1.3-0.6,1.3-1.3v-5.1C115.6,300.8,115,300.2,114.3,300.2z"/>
<linearGradient id="SVGID_00000111872716910561051710000003676740682212218513_" gradientUnits="userSpaceOnUse" x1="121.545" y1="17.914" x2="131.847" y2="17.949" gradientTransform="matrix(1 0 0 -1 0 322)">
	<stop  offset="0" style="stop-color:#EDAB86"/>
	<stop  offset="1" style="stop-color:#FF5D02"/>
</linearGradient>
<path style="fill:url(#SVGID_00000111872716910561051710000003676740682212218513_);" d="M126.7,300.2h-5.1c-0.7,0-1.3,0.6-1.3,1.3
	v5.1c0,0.7,0.6,1.3,1.3,1.3h5.1c0.7,0,1.3-0.6,1.3-1.3v-5.1C128,300.8,127.4,300.2,126.7,300.2z"/>
<linearGradient id="SVGID_00000032615282592662930100000012269674381236337311_" gradientUnits="userSpaceOnUse" x1="133.579" y1="17.914" x2="143.881" y2="17.949" gradientTransform="matrix(1 0 0 -1 0 322)">
	<stop  offset="0" style="stop-color:#EDAB86"/>
	<stop  offset="1" style="stop-color:#FF5D02"/>
</linearGradient>
<path style="fill:url(#SVGID_00000032615282592662930100000012269674381236337311_);" d="M138.8,300.2h-5.1c-0.7,0-1.3,0.6-1.3,1.3
	v5.1c0,0.7,0.6,1.3,1.3,1.3h5.1c0.7,0,1.3-0.6,1.3-1.3v-5.1C140.1,300.8,139.5,300.2,138.8,300.2z"/>
<linearGradient id="SVGID_00000044870585914279816460000013978462421882891197_" gradientUnits="userSpaceOnUse" x1="69.8164" y1="79.1694" x2="76.258" y2="79.1914" gradientTransform="matrix(1 0 0 -1 0 322)">
	<stop  offset="0" style="stop-color:#EDAB86"/>
	<stop  offset="1" style="stop-color:#FF5D02"/>
</linearGradient>
<path style="fill:url(#SVGID_00000044870585914279816460000013978462421882891197_);" d="M71.5,236.6c-1.3,0-2.4,1.1-2.4,2.4v7.6
	c0,1.3,1.1,2.4,2.4,2.4c1.3,0,2.4-1.1,2.4-2.4V239C73.9,237.7,72.8,236.6,71.5,236.6z"/>
<linearGradient id="SVGID_00000116207242224359982800000011481404067058916231_" gradientUnits="userSpaceOnUse" x1="81.3757" y1="79.1693" x2="87.8175" y2="79.1913" gradientTransform="matrix(1 0 0 -1 0 322)">
	<stop  offset="0" style="stop-color:#EDAB86"/>
	<stop  offset="1" style="stop-color:#FF5D02"/>
</linearGradient>
<path style="fill:url(#SVGID_00000116207242224359982800000011481404067058916231_);" d="M83,236.6c-1.3,0-2.4,1.1-2.4,2.4v7.6
	c0,1.3,1.1,2.4,2.4,2.4c1.3,0,2.4-1.1,2.4-2.4V239C85.4,237.7,84.4,236.6,83,236.6z"/>
<linearGradient id="SVGID_00000093176048875425241970000000628810721175852161_" gradientUnits="userSpaceOnUse" x1="93.5719" y1="79.1694" x2="100.013" y2="79.1914" gradientTransform="matrix(1 0 0 -1 0 322)">
	<stop  offset="0" style="stop-color:#EDAB86"/>
	<stop  offset="1" style="stop-color:#FF5D02"/>
</linearGradient>
<path style="fill:url(#SVGID_00000093176048875425241970000000628810721175852161_);" d="M95.2,236.6c-1.3,0-2.4,1.1-2.4,2.4v7.6
	c0,1.3,1.1,2.4,2.4,2.4c1.3,0,2.4-1.1,2.4-2.4V239C97.6,237.7,96.5,236.6,95.2,236.6z"/>
<linearGradient id="SVGID_00000034047294831054414780000012953492310846681250_" gradientUnits="userSpaceOnUse" x1="105.131" y1="79.1694" x2="111.573" y2="79.1914" gradientTransform="matrix(1 0 0 -1 0 322)">
	<stop  offset="0" style="stop-color:#EDAB86"/>
	<stop  offset="1" style="stop-color:#FF5D02"/>
</linearGradient>
<path style="fill:url(#SVGID_00000034047294831054414780000012953492310846681250_);" d="M106.8,236.6c-1.3,0-2.4,1.1-2.4,2.4v7.6
	c0,1.3,1.1,2.4,2.4,2.4s2.4-1.1,2.4-2.4V239C109.2,237.7,108.1,236.6,106.8,236.6z"/>
<linearGradient id="SVGID_00000159465545196467102990000013205346871271453861_" gradientUnits="userSpaceOnUse" x1="117.14" y1="79.1694" x2="123.582" y2="79.1914" gradientTransform="matrix(1 0 0 -1 0 322)">
	<stop  offset="0" style="stop-color:#EDAB86"/>
	<stop  offset="1" style="stop-color:#FF5D02"/>
</linearGradient>
<path style="fill:url(#SVGID_00000159465545196467102990000013205346871271453861_);" d="M118.8,236.6c-1.3,0-2.4,1.1-2.4,2.4v7.6
	c0,1.3,1.1,2.4,2.4,2.4c1.3,0,2.4-1.1,2.4-2.4V239C121.2,237.7,120.1,236.6,118.8,236.6z"/>
<linearGradient id="SVGID_00000000926808049478765180000013849633552610384028_" gradientUnits="userSpaceOnUse" x1="128.699" y1="79.1693" x2="135.141" y2="79.1914" gradientTransform="matrix(1 0 0 -1 0 322)">
	<stop  offset="0" style="stop-color:#EDAB86"/>
	<stop  offset="1" style="stop-color:#FF5D02"/>
</linearGradient>
<path style="fill:url(#SVGID_00000000926808049478765180000013849633552610384028_);" d="M130.4,236.6c-1.3,0-2.4,1.1-2.4,2.4v7.6
	c0,1.3,1.1,2.4,2.4,2.4s2.4-1.1,2.4-2.4V239C132.7,237.7,131.7,236.6,130.4,236.6z"/>
<linearGradient id="SVGID_00000051381533786581340570000007261614873164857500_" gradientUnits="userSpaceOnUse" x1="139.847" y1="79.1694" x2="146.289" y2="79.1914" gradientTransform="matrix(1 0 0 -1 0 322)">
	<stop  offset="0" style="stop-color:#EDAB86"/>
	<stop  offset="1" style="stop-color:#FF5D02"/>
</linearGradient>
<path style="fill:url(#SVGID_00000051381533786581340570000007261614873164857500_);" d="M141.5,236.6c-1.3,0-2.4,1.1-2.4,2.4v7.6
	c0,1.3,1.1,2.4,2.4,2.4s2.4-1.1,2.4-2.4V239C143.9,237.7,142.8,236.6,141.5,236.6z"/>
<linearGradient id="SVGID_00000072273109698859447550000013833223077868649350_" gradientUnits="userSpaceOnUse" x1="296.6061" y1="330.8465" x2="298.8051" y2="312.1646" gradientTransform="matrix(1 0 0 -1 0 322)">
	<stop  offset="0" style="stop-color:#EDAB86"/>
	<stop  offset="1" style="stop-color:#FF5D02"/>
</linearGradient>
<path style="fill:url(#SVGID_00000072273109698859447550000013833223077868649350_);" d="M300.9,14.8h-3.9c-1.8,0-3.3-1.5-3.3-3.3
	c0-1.8,1.5-3.3,3.3-3.3h3.9c1.8,0,3.3,1.5,3.3,3.3C304.2,13.3,302.8,14.8,300.9,14.8z"/>
<linearGradient id="SVGID_00000080886483087845919020000007320966228318382774_" gradientUnits="userSpaceOnUse" x1="300.4115" y1="350.7536" x2="297.8235" y2="207.451" gradientTransform="matrix(1 0 0 -1 0 322)">
	<stop  offset="0" style="stop-color:#EDAB86"/>
	<stop  offset="1" style="stop-color:#FF5D02"/>
</linearGradient>
<path style="fill:url(#SVGID_00000080886483087845919020000007320966228318382774_);" d="M299,83.8c19.8,0,35.8-16,35.8-35.8
	c0-19.8-16-35.8-35.8-35.8s-35.8,16-35.8,35.8C263.3,67.7,279.3,83.8,299,83.8z"/>
<path style="fill:#FFFFFF;" d="M299,78.4c16.4,0,29.7-13.3,29.7-29.8S315.5,18.9,299,18.9c-16.4,0-29.7,13.3-29.7,29.8
	S282.6,78.4,299,78.4z"/>
<linearGradient id="SVGID_00000158722518123982787970000009338188001782962577_" gradientUnits="userSpaceOnUse" x1="282.2667" y1="335.518" x2="307.8888" y2="181.0966" gradientTransform="matrix(1 0 0 -1 0 322)">
	<stop  offset="9.584670e-09" style="stop-color:#166AB4"/>
	<stop  offset="1" style="stop-color:#172D4D"/>
</linearGradient>
<path style="fill:url(#SVGID_00000158722518123982787970000009338188001782962577_);" d="M300.1,44.8V21.9c0-0.6-0.5-1.1-1.1-1.1
	c-0.6,0-1.1,0.5-1.1,1.1v22.9c-1.3,0.5-2.3,1.7-2.3,3.2c0,0.3,0,0.6,0.1,0.9l-12.5,13.2c-0.4,0.4-0.4,1.1,0,1.6
	c0.4,0.4,1.1,0.4,1.6,0l12.2-12.9c0.5,0.4,1.2,0.6,1.9,0.6c1.9,0,3.4-1.5,3.4-3.4C302.4,46.5,301.5,45.2,300.1,44.8z"/>
<linearGradient id="SVGID_00000017511133593777738790000012522674798208083603_" gradientUnits="userSpaceOnUse" x1="297.6546" y1="322.1944" x2="301.6546" y2="303.659" gradientTransform="matrix(1 0 0 -1 0 322)">
	<stop  offset="0" style="stop-color:#EDAB86"/>
	<stop  offset="1" style="stop-color:#FF5D02"/>
</linearGradient>
<path style="fill:url(#SVGID_00000017511133593777738790000012522674798208083603_);" d="M303.7,9.3h-9.4c-1.8,0-3.2-1.4-3.2-3.2
	s1.4-3.2,3.2-3.2h9.4c1.8,0,3.2,1.4,3.2,3.2S305.5,9.3,303.7,9.3z"/>
<linearGradient id="SVGID_00000092446189992487064340000013009768484106649251_" gradientUnits="userSpaceOnUse" x1="164.2924" y1="223.5432" x2="136.2454" y2="247.6972" gradientTransform="matrix(1 0 0 -1 0 322)">
	<stop  offset="0" style="stop-color:#EDAB86"/>
	<stop  offset="1" style="stop-color:#FF5D02"/>
</linearGradient>
<path style="fill:url(#SVGID_00000092446189992487064340000013009768484106649251_);" d="M172.5,109.4c-0.1,0.4-0.4,0.7-0.8,0.9
	c-1.1,0.7-3,0.8-4.3,0.8c-0.8,0-1.3-0.1-1.3-0.1c-0.2-0.3-10.4-19.2-12.4-22.3c-2-3.1-4.5-2-4.5-2c0-0.1,0-0.6-0.1-1.1v0
	c-0.2-1.6-0.8-4.2-1.9-5c-1.5-1.1-3.3-1.4-3.3-1.4l-0.4-0.1l0.8-2.8l7,1.9c0,0,2.8,0.4,4.3,1.8c1.5,1.3,6.8,12,8.6,15.1
	C166.1,98.1,172.5,109.4,172.5,109.4z"/>
<linearGradient id="SVGID_00000097484281214608186540000007989896584551232645_" gradientUnits="userSpaceOnUse" x1="135.7233" y1="238.6811" x2="148.0612" y2="215.6108" gradientTransform="matrix(1 0 0 -1 0 322)">
	<stop  offset="0" style="stop-color:#EDAB86"/>
	<stop  offset="1" style="stop-color:#FF5D02"/>
</linearGradient>
<path style="fill:url(#SVGID_00000097484281214608186540000007989896584551232645_);" d="M151.8,117.2c-0.2,0.7-0.7,1.1-1.5,1.3
	c-1.2,0.4-2.9,0.2-3.9,0c-0.5-0.1-0.8-0.1-0.8-0.1v-0.5c-0.2-0.5-0.4-1.2-0.5-2c-1.5-7.3-3-26.6-3.7-27.2c-0.9-0.6-5.2,0.7-11.7-0.5
	c-6.5-1.2-7.2-5.2-7.2-5.2c0-2.4,2.1-2.6,2.1-2.6l4.1-3.2l9.5,0.4l5.3,1.3l0.4,0.1c0,0,1.8,0.2,3.3,1.4c1.5,1.1,2,5.6,2,6.2
	s0.6,11.2,1,19.4C150.6,114.3,151.8,117.2,151.8,117.2z"/>
<path style="fill:#EABEC2;" d="M139.8,42.3c0,0-1.1,4.1-2.5,5.8c-0.3,0.4-0.7,0.7-1,0.8c-1.2,0.3-1.9,0.2-2.2,0.3
	c-0.2,0-0.3,0.1-0.3,0.2c-0.1,0.3-0.6,1.6-0.6,1.6c0.1,0,1.5,0.5,1.6,0.5c0.1,0-1.9,2.4-4,1c-2.2-1.4-2.1-2.2-2.1-2.2s0.7,0.3,1.1,0
	c0.1-0.1,0.2-0.3,0.3-0.7c0.3-0.9,0.7-2.5,0.9-3.1c0-0.1,0-0.2,0.1-0.2c0-0.1,0.1-0.2,0.1-0.4c0.3-0.7,0.8-2.2,1.1-2.5
	c0.3-0.3,0.4-2.6,1.3-2c0.1,0.1,0.2,0.1,0.3,0.2c0.3,0.1,0.5,0,0.7-0.2c0,0,0.1-0.1,0.1-0.1c0.1-0.1,0.2-0.1,0.4,0
	C135.5,41.6,137.3,42.6,139.8,42.3z"/>
<path style="fill:#0D133E;" d="M141.4,41.1c-0.9,0.9-1.5,1.1-1.6,1.2c-2.6,0.4-4.3-0.7-4.9-0.9c-0.1,0-0.3,0-0.4,0
	c0,0-0.1,0.1-0.1,0.1c-0.2,0.1-0.3,0.3-0.7,0.2c-0.1,0-0.2-0.1-0.3-0.2c-0.9-0.7-1,1.7-1.3,2c-0.3,0.3-0.8,1.8-1.1,2.5
	c0,0-0.6-1.3-0.9-2.1c-0.4-0.8,0-6,2.8-6.7c2.8-0.7,2.9,1.2,4.6,1.1c1.7-0.1,2.6-1.1,3.3-0.6C141.5,38.1,142.3,40.2,141.4,41.1z"/>
<path style="fill:#0D133E;" d="M137.3,48.1c-0.3,0.4-0.7,0.7-1,0.8c-1.2,0.3-1.9,0.2-2.2,0.3l-0.3,0c0,0-1.8-2-1.9-2.5
	c0-0.5,0.6-0.1,1-1.6c0.4-1.5,0.6-3.5,0.6-3.5c0.1,0.1,0.2,0.1,0.3,0.2c0.3,0.1,0.5,0,0.7-0.2c0,0,0.1-0.1,0.1-0.1
	c0.1-0.1,0.2-0.1,0.4,0c0,0-1.8,4.4-1,5c0.8,0.6,1.5,0.2,2.3,0.9C137,48,137.3,48.1,137.3,48.1z"/>
<linearGradient id="SVGID_00000077292815841546129800000007759525877133668510_" gradientUnits="userSpaceOnUse" x1="132.2908" y1="224.8649" x2="123.2688" y2="254.5689" gradientTransform="matrix(1 0 0 -1 0 322)">
	<stop  offset="0" style="stop-color:#67B9E7"/>
	<stop  offset="1" style="stop-color:#253C97"/>
</linearGradient>
<path style="fill:url(#SVGID_00000077292815841546129800000007759525877133668510_);" d="M127.3,78.7l1.4,0.1
	c-0.6,0.3-1.4,0.8-2.3,1.3c-1.8,1.2-3.7,2.7-3.9,2.8l0,0c0,0-2.3-4.6-2.9-6.1c-0.3-0.6-0.3-2.5-0.2-4.5c0,0,12.4,3.4,12.6,3.6
	c0.2,0.2,0.9,1.7,1.2,1.9l-5.8-0.3L127.3,78.7L127.3,78.7z"/>
<path style="fill:none;stroke:#FFFFFF;stroke-miterlimit:10;" d="M138,77.2l-0.4,0.9l-0.5,0c0.2-0.1,0.2-0.2,0.4-0.3
	C137.8,77.7,137.9,77.5,138,77.2z"/>
<linearGradient id="SVGID_00000031180257059469513460000004342078340041716125_" gradientUnits="userSpaceOnUse" x1="125.9003" y1="246.3184" x2="129.3503" y2="278.9427" gradientTransform="matrix(1 0 0 -1 0 322)">
	<stop  offset="1.000000e-08" style="stop-color:#253C97"/>
	<stop  offset="1" style="stop-color:#67B9E7"/>
</linearGradient>
<path style="fill:url(#SVGID_00000031180257059469513460000004342078340041716125_);" d="M135.8,68.6c-0.1,0.1,0.1,4.3,0.5,5
	c0.1,0.2,0.5,1,1,1.8c-0.6-0.1-1.3-0.1-1.4-0.4c-0.3-0.4-1.1,0.1-1.7-0.2c-0.6-0.3-11-4-11.2-5c-0.2-1,0-4.1,0-4.1V65
	c0,0-3.3,0.4-5,0l-2.5-0.5c0,0,0,0,1.5-1.1c1.5-1.1,3.9-9.6,4.9-10c1-0.3,5.3-3,6.5-3.7c1.2-0.7,1.4,0,1.4,0
	c-0.1,0.4-0.2,0.6-0.3,0.7c-0.4,0.3-1.1,0-1.1,0s-0.1,0.8,2.1,2.2c2.1,1.4,4.2-1,4-1c-0.1,0-1.5-0.5-1.6-0.5c0.1,0,2.3,0.4,2.8,0.9
	c0.5,0.6,3.1,2.4,3.3,3.9c0.1,1.5-1,10-1,10l-1.4-0.2C136.7,65.6,135.9,68.5,135.8,68.6z"/>
<path style="fill:#EABEC2;" d="M138.2,76.9c-0.1,0.5-0.4,0.8-0.5,1c-0.3,0.2-0.2,0.2-1,0.6c-0.8,0.4-3.1-0.3-3.5-0.5
	c-0.4-0.2-1-1.7-1.2-1.9c-0.2-0.2-12.6-3.6-12.6-3.6s-1-0.4-1.7-1.1c-0.7-0.7,0.5-6.2,0.5-6.2c0.9,0.2,2.3,0.2,3.4,0.1h0
	c0.8,0,1.5-0.1,1.5-0.1v0.7c0,0-0.2,3.1,0,4.1c0.2,1,10.5,4.7,11.2,5c0,0,0,0,0,0c0.1,0,0.2,0.1,0.2,0.1c0.6,0.1,1.2-0.2,1.5,0.1
	c0.1,0.2,0.9,0.2,1.4,0.4c0.4,0.1,0.7,0.3,0.8,0.6C138.2,76.3,138.2,76.6,138.2,76.9z"/>
<path style="fill:#B8C7E6;" d="M141.9,67.8l-3.2,10.1l-0.3,0.9l-0.2,0.7l-9.5-0.7l-1.4-0.1v-1l5.8,0.3c0.1,0,0.2,0.1,0.3,0.1l0,0
	c0.1,0,0.2,0.1,0.3,0.1c0.4,0.1,0.9,0.2,1.4,0.3c0,0,0.1,0,0.1,0c0,0,0.1,0,0.1,0c0,0,0.1,0,0.1,0c0,0,0.1,0,0.1,0
	c0.1,0,0.3,0,0.4,0c0.2,0,0.4,0,0.5-0.1c0.3-0.1,0.5-0.2,0.6-0.3h0l0.5,0l0.4-0.9c0,0,0-0.1,0-0.1l2.6-9.3L141.9,67.8L141.9,67.8z"
	/>
<path style="fill:#BECDE9;" d="M140.6,67.8l14.7-0.3l-4,11.6l-13.1,0.4l3.6-11.4L140.6,67.8z"/>
<path style="fill:#EABEC2;" d="M138.2,65.8c0,0-0.2,4.5-0.1,5.1c0.1,0.6,1.1,2.5,1.1,2.5l-0.9,3.2l0,0v-0.3c0,0,0.1-0.6-0.8-0.9
	l-0.5-1l-0.4-0.8l0-0.1l-0.1-0.2l-0.1-0.3l-0.1-0.4l-0.2-1.3l-0.1-0.9l0-0.8l0-0.8l0-0.2l0-0.1L136,68l0.5-1.6l0.2-0.8L138.2,65.8z"
	/>
<linearGradient id="SVGID_00000179607670698212198160000011752241277342477454_" gradientUnits="userSpaceOnUse" x1="122.9873" y1="256.9583" x2="127.8633" y2="273.9654" gradientTransform="matrix(1 0 0 -1 0 322)">
	<stop  offset="1.000000e-08" style="stop-color:#253C97"/>
	<stop  offset="1" style="stop-color:#67B9E7"/>
</linearGradient>
<path style="fill:url(#SVGID_00000179607670698212198160000011752241277342477454_);" d="M123.1,65.4c0,0,0.6,0.2,0.9-0.8
	c0.4-1.1,0.9-5.1,1.5-6.6c0.5-1.6,0.1-5,0.1-5s-0.2,3.2-0.4,4.6C124.9,59,124.1,65.1,123.1,65.4z"/>
<linearGradient id="SVGID_00000060731665321735573570000016489977716819316153_" gradientUnits="userSpaceOnUse" x1="134.2935" y1="286.5996" x2="136.3835" y2="250.8916" gradientTransform="matrix(1 0 0 -1 0 322)">
	<stop  offset="0" style="stop-color:#67B9E7"/>
	<stop  offset="1" style="stop-color:#253C97"/>
</linearGradient>
<path style="fill:url(#SVGID_00000060731665321735573570000016489977716819316153_);" d="M136.8,54.6c-0.1-0.4,1.4,2.1,0.5,5.7
	c-0.9,3.6-1.4,4.7-1.4,4.7l0.8,0.6l-0.9,3.1v0.6l0.1,1.8l0.1,1.1l0.3,1.2c0,0-0.2,0.7-1.3,0.4c-1.1-0.4,0-4.7-0.4-7.4
	C134.2,63.6,138.5,60.7,136.8,54.6z"/>
<linearGradient id="SVGID_00000096056033607271440410000012306994045284280757_" gradientUnits="userSpaceOnUse" x1="120.039" y1="248.5942" x2="130.088" y2="229.8996" gradientTransform="matrix(1 0 0 -1 0 322)">
	<stop  offset="1.000000e-08" style="stop-color:#253C97"/>
	<stop  offset="1" style="stop-color:#67B9E7"/>
</linearGradient>
<path style="fill:url(#SVGID_00000096056033607271440410000012306994045284280757_);" d="M126.4,80.2
	C126.4,80.2,126.4,80.2,126.4,80.2l-3.9,2.8l0,0c0,0-2.3-4.6-2.9-6.1c-0.3-0.6-0.3-2.5-0.2-4.5c0,0,2.3,6.1,4.8,6.9
	C126.6,79.9,126.4,80.2,126.4,80.2z"/>
<path style="fill:#DAB4B9;" d="M134.2,74.8c-1.6-0.5-10.8-3.5-11.9-4.6c-1.2-1.2-0.8-5.1-0.8-5.1h0L123,65v0.7c0,0-0.2,3.1,0,4.1
	C123.2,70.8,133.6,74.5,134.2,74.8z"/>
<linearGradient id="SVGID_00000010305294861323012610000017527547106035916180_" gradientUnits="userSpaceOnUse" x1="143.1846" y1="201.805" x2="136.1186" y2="224.4809" gradientTransform="matrix(1 0 0 -1 0 322)">
	<stop  offset="0" style="stop-color:#EDAB86"/>
	<stop  offset="1" style="stop-color:#FF5D02"/>
</linearGradient>
<path style="fill:url(#SVGID_00000010305294861323012610000017527547106035916180_);" d="M145.1,115.9c-1.5-7.3-3-26.6-3.7-27.2
	c-0.9-0.6-5.2,0.7-11.7-0.5c-6.5-1.2-7.2-5.2-7.2-5.2s1.7,4.6,9.4,4.9c7.7,0.2,9.5-0.7,10.5,0.4C143.2,89.1,143.9,109,145.1,115.9z"
	/>
<linearGradient id="SVGID_00000001641983051857318240000014649832520618352524_" gradientUnits="userSpaceOnUse" x1="159.7769" y1="218.6756" x2="151.2379" y2="237.1672" gradientTransform="matrix(1 0 0 -1 0 322)">
	<stop  offset="0" style="stop-color:#EDAB86"/>
	<stop  offset="1" style="stop-color:#FF5D02"/>
</linearGradient>
<path style="fill:url(#SVGID_00000001641983051857318240000014649832520618352524_);" d="M166.1,111c-0.2-0.3-10.4-19.2-12.4-22.3
	c-2-3.1-4.5-2-4.5-2l-0.1-1.1v0v0c0,0,1.7-1.2,4.1,1.3C155.6,89.4,166,110.7,166.1,111z"/>
<path style="fill:none;stroke:#FFFFFF;stroke-miterlimit:10;" d="M166.1,111L166.1,111L166.1,111z"/>
<path style="fill:#EABEC2;" d="M150.3,118.5v2.6c-1.5,1.7-3.9,0.3-3.9,0.3v-2.9C147.4,118.7,149.1,118.9,150.3,118.5z"/>
<linearGradient id="SVGID_00000012433854208413976050000015139288162242756277_" gradientUnits="userSpaceOnUse" x1="131.2945" y1="233.0088" x2="171.6595" y2="157.4966" gradientTransform="matrix(1 0 0 -1 0 322)">
	<stop  offset="1.000000e-08" style="stop-color:#253C97"/>
	<stop  offset="1" style="stop-color:#67B9E7"/>
</linearGradient>
<path style="fill:url(#SVGID_00000012433854208413976050000015139288162242756277_);" d="M155.9,128.1c-0.6,0.5-2.5,0.1-3.5-0.5
	c-1.1-0.5-2.6-1.4-3.9-1.5c-1.3-0.1-2.3-0.5-2.3-0.5v-4.3l0.3,0.1c0,0,2.4,1.4,3.9-0.3c0,0,1.4,2.2,3.7,3.3
	C156.3,125.6,156.5,127.6,155.9,128.1z"/>
<path style="fill:#EABEC2;" d="M173.2,112.8c-0.6,1.9-3.8,2.3-3.8,2.3l-2-4c0,0,0,0,0,0c1.3,0,3.2,0,4.3-0.8L173.2,112.8z"/>
<linearGradient id="SVGID_00000127042409962494477990000008402420953553364898_" gradientUnits="userSpaceOnUse" x1="152.9589" y1="244.5897" x2="193.3249" y2="169.0776" gradientTransform="matrix(1 0 0 -1 0 322)">
	<stop  offset="1.000000e-08" style="stop-color:#253C97"/>
	<stop  offset="1" style="stop-color:#67B9E7"/>
</linearGradient>
<path style="fill:url(#SVGID_00000127042409962494477990000008402420953553364898_);" d="M179.5,118.2h-10l-0.1-3.1
	c0,0,3.2-0.4,3.8-2.3c0,0,1.9,1.8,3.7,2.3c1.8,0.5,2.6,1.4,2.5,2.8L179.5,118.2z"/>
</svg>
