<svg width="105" height="95" viewBox="0 0 105 95" fill="none" xmlns="http://www.w3.org/2000/svg">
<circle cx="69.2798" cy="44.803" r="7.39233" transform="rotate(1.70778 69.2798 44.803)" fill="#FF8C3B"/>
<circle cx="11.8016" cy="80.478" r="7.39233" transform="rotate(1.70778 11.8016 80.478)" fill="#FF8C3B"/>
<circle cx="33.0943" cy="95.7608" r="7.39233" transform="rotate(1.70778 33.0943 95.7608)" fill="#FF8C3B"/>
<circle cx="65.9775" cy="93.5603" r="7.39233" transform="rotate(1.70778 65.9775 93.5603)" fill="#FF8C3B"/>
<circle cx="45.1561" cy="78.7748" r="7.39233" transform="rotate(1.70778 45.1561 78.7748)" fill="#FF8C3B"/>
<circle cx="23.7867" cy="63.6003" r="7.39233" transform="rotate(1.70778 23.7867 63.6003)" fill="#FF8C3B"/>
<circle cx="2.41727" cy="48.4257" r="7.39233" transform="rotate(1.70778 2.41727 48.4257)" fill="#FF8C3B"/>
<circle cx="78.0395" cy="76.5744" r="7.39233" transform="rotate(1.70778 78.0395 76.5744)" fill="#FF8C3B"/>
<circle cx="57.2179" cy="61.7889" r="7.39233" transform="rotate(1.70778 57.2179 61.7889)" fill="#FF8C3B"/>
<circle cx="35.8485" cy="46.6143" r="7.39233" transform="rotate(1.70778 35.8485 46.6143)" fill="#FF8C3B"/>
<circle cx="14.4791" cy="31.4397" r="7.39233" transform="rotate(1.70778 14.4791 31.4397)" fill="#FF8C3B"/>
<circle cx="90.1013" cy="59.5884" r="7.39233" transform="rotate(1.70778 90.1013 59.5884)" fill="#FF8C3B"/>
<circle cx="26.5409" cy="14.4538" r="7.39233" transform="rotate(1.70778 26.5409 14.4538)" fill="#FF8C3B"/>
<circle cx="47.5981" cy="30.0681" r="7.39233" transform="rotate(1.70778 47.5981 30.0681)" fill="#FF8C3B"/>
</svg>
