<svg width="37" height="39" viewBox="0 0 37 39" fill="none" xmlns="http://www.w3.org/2000/svg">
<path d="M19.6238 12.7223C19.4694 12.7223 19.3229 12.768 19.1897 12.8489V14.3858C19.1897 14.8065 19.1525 15.2188 19.085 15.6202C19.2446 15.7482 19.4267 15.8271 19.6238 15.8271C20.2312 15.8271 20.7234 15.1319 20.7234 14.2746C20.7234 13.4172 20.2309 12.7223 19.6238 12.7223Z" fill="#FFDCCE"/>
<path d="M4.43161 14.3859V12.8489C4.29844 12.768 4.1519 12.7223 3.99752 12.7223C3.39013 12.7223 2.89795 13.4175 2.89795 14.2749C2.89795 15.1323 3.39013 15.8275 3.99752 15.8275C4.19433 15.8275 4.37645 15.7485 4.53637 15.6205C4.46881 15.2184 4.43161 14.8066 4.43161 14.3859Z" fill="#FFDCCE"/>
<path d="M13.8094 21.5684H13.4983C12.9562 21.6954 12.3916 21.7646 11.8106 21.7646C11.2297 21.7646 10.665 21.6954 10.1229 21.5684H9.81153C4.57314 21.5684 0.326294 25.8149 0.326294 31.0536V37.6377C0.326294 37.998 0.618403 38.2905 0.979053 38.2905H23.2946V31.0536C23.2946 25.8153 19.0477 21.5684 13.8094 21.5684Z" fill="#C5C5C5"/>
<path d="M9.58616 32.6171V30.1604L8.28064 21.6922C7.91053 21.7523 7.54759 21.8332 7.19347 21.9347L5.86707 25.9263L8.11158 27.0598L7.36351 28.787L9.58616 32.6171Z" fill="#E3E3E3"/>
<path d="M17.7541 25.9263L16.4277 21.9347C16.0733 21.8332 15.7103 21.7523 15.3406 21.6922L14.035 30.1604V32.6171L16.2577 28.787L15.5096 27.0598L17.7541 25.9263Z" fill="#E3E3E3"/>
<path d="M13.498 21.5684C12.9559 21.6954 12.3913 21.7646 11.8106 21.7646C11.2297 21.7646 10.6654 21.6954 10.1233 21.5684H9.81156C9.29034 21.5684 8.7789 21.6112 8.28052 21.6921L9.58604 30.1603V38.2905H14.0346V30.1603L15.3401 21.6921C14.8417 21.6112 14.3306 21.5684 13.8091 21.5684H13.498Z" fill="white"/>
<path d="M14.1119 21.5763L11.8103 23.0414L14.3228 25.7392L16.1172 21.8527C15.4726 21.6915 14.8012 21.5978 14.1119 21.5763Z" fill="white"/>
<path d="M7.50391 21.8527L9.29834 25.7392L11.8108 23.0414L9.50918 21.5763C8.81954 21.5978 8.14851 21.6915 7.50391 21.8527Z" fill="white"/>
<path d="M11.8104 21.7645C10.8212 21.7645 9.87792 21.5684 9.01562 21.2152V21.2603L11.8104 23.041L14.6078 21.2603V21.2139C13.7449 21.568 12.801 21.7645 11.8104 21.7645Z" fill="#FFDCCE"/>
<path d="M15.3709 6.29421H8.25028C6.14122 6.29421 4.43164 8.00379 4.43164 10.1129V14.3861C4.43164 18.4613 7.73525 21.7649 11.8104 21.7649C15.8856 21.7649 19.1892 18.4613 19.1892 14.3861V10.1125C19.1895 8.00379 17.4796 6.29421 15.3709 6.29421Z" fill="#FFDCCE"/>
<path d="M34.4734 24.8711H18.9642C17.7491 24.8711 16.7644 25.8561 16.7644 27.0709V36.0904C16.7644 37.3055 17.7494 38.2902 18.9642 38.2902H34.4734C35.6885 38.2902 36.6732 37.3052 36.6732 36.0904V27.0712C36.6732 25.8561 35.6882 24.8711 34.4734 24.8711Z" fill="#541818"/>
<path d="M34.4734 24.8711H18.9642C17.7491 24.8711 16.7644 25.8561 16.7644 27.0709V30.0481C16.7644 31.2632 17.7494 32.2479 18.9642 32.2479H34.4734C35.6885 32.2479 36.6732 31.2629 36.6732 30.0481V27.0709C36.6732 25.8561 35.6882 24.8711 34.4734 24.8711Z" fill="#9D6B59"/>
<path d="M34.4734 24.8711H18.9642C17.7494 24.8711 16.7644 25.8561 16.7644 27.0709V28.05C16.7644 26.8353 17.7494 25.8502 18.9642 25.8502H34.4734C35.6885 25.8502 36.6732 26.8353 36.6732 28.05V27.0709C36.6732 25.8561 35.6882 24.8711 34.4734 24.8711Z" fill="#B17F6D"/>
<path d="M24.6038 24.8711L24.6057 23.6491L28.8337 23.6559L28.8317 24.8711H29.9414L29.944 23.3433C29.9447 22.9049 29.5883 22.5476 29.1499 22.5466L24.2931 22.5391C23.8567 22.5384 23.4974 22.8948 23.4964 23.3332L23.4938 24.8714H24.6038V24.8711Z" fill="#541818"/>
<path d="M22.9281 33.9353C22.5367 33.9346 22.2169 33.6138 22.2175 33.2225L22.2208 31.2466C22.2214 30.8552 22.5423 30.5354 22.9336 30.536C23.3249 30.5367 23.6448 30.8575 23.6441 31.2488L23.6409 33.2247C23.6402 33.6161 23.3194 33.9359 22.9281 33.9353Z" fill="#D5D5D5"/>
<path d="M30.5045 33.9476C30.1131 33.9469 29.7933 33.6261 29.7939 33.2348L29.7972 31.2589C29.7979 30.8675 30.1187 30.5477 30.51 30.5483C30.9014 30.549 31.2212 30.8698 31.2206 31.2611L31.2173 33.237C31.2163 33.6284 30.8958 33.9479 30.5045 33.9476Z" fill="#D5D5D5"/>
<path d="M8.55508 12.6152C8.14744 12.6152 7.81714 12.9455 7.81714 13.3531C7.81714 13.7608 8.14744 14.0911 8.55508 14.0911C8.96273 14.0911 9.29303 13.7608 9.29303 13.3531C9.29303 12.9455 8.96273 12.6152 8.55508 12.6152Z" fill="#2D2D2D"/>
<path d="M15.0661 12.6152C14.6584 12.6152 14.3281 12.9455 14.3281 13.3531C14.3281 13.7608 14.6584 14.0911 15.0661 14.0911C15.4737 14.0911 15.804 13.7608 15.804 13.3531C15.8037 12.9455 15.4734 12.6152 15.0661 12.6152Z" fill="#2D2D2D"/>
<path d="M11.8103 16.9636C12.453 16.9636 12.9758 16.4404 12.9758 15.7981V15.3063C12.9758 15.1258 12.8299 14.9799 12.6494 14.9799C12.469 14.9799 12.3231 15.1258 12.3231 15.3063V15.7981C12.3231 16.0808 12.093 16.3108 11.8103 16.3108C11.5277 16.3108 11.2979 16.0808 11.2979 15.7981V15.3063C11.2979 15.1258 11.152 14.9799 10.9715 14.9799C10.791 14.9799 10.6451 15.1258 10.6451 15.3063V15.7981C10.6451 16.4407 11.1677 16.9636 11.8103 16.9636Z" fill="#2D2D2D"/>
<path d="M14.5043 11.9239L15.9495 12.1755C15.9687 12.1788 15.9873 12.1804 16.0059 12.1804C16.162 12.1804 16.2994 12.0685 16.3271 11.9102C16.3581 11.7326 16.239 11.5636 16.0618 11.5326L14.6165 11.2809C14.4357 11.2512 14.2699 11.3694 14.2389 11.5463C14.2079 11.7238 14.3267 11.8929 14.5043 11.9239Z" fill="#2D2D2D"/>
<path d="M9.00466 11.2806L7.55945 11.5322C7.3819 11.5632 7.2631 11.7323 7.2941 11.9098C7.32185 12.0681 7.45958 12.1801 7.61526 12.1801C7.63386 12.1801 7.65247 12.1785 7.67172 12.1752L9.11693 11.9236C9.29448 11.8925 9.41328 11.7235 9.38228 11.5459C9.3516 11.369 9.1858 11.2509 9.00466 11.2806Z" fill="#2D2D2D"/>
<path d="M13.7057 18.0076C13.814 17.8647 13.786 17.6616 13.6437 17.5523C13.5017 17.4433 13.297 17.4694 13.1871 17.612C13.1668 17.6375 12.6893 18.2393 11.8107 18.2393C10.9119 18.2393 10.4579 17.6434 10.4393 17.6179C10.3338 17.4733 10.1312 17.4407 9.98495 17.5461C9.83873 17.6515 9.80576 17.8555 9.91119 18.0017C9.9373 18.038 10.5682 18.8924 11.8104 18.8924C13.0216 18.8921 13.6783 18.0438 13.7057 18.0076Z" fill="#2D2D2D"/>
<path d="M31.0966 37.9641H28.8693C28.6889 37.9641 28.543 38.11 28.543 38.2905C28.543 38.471 28.6889 38.6169 28.8693 38.6169H31.0966C31.277 38.6169 31.4229 38.471 31.4229 38.2905C31.4229 38.11 31.2767 37.9641 31.0966 37.9641Z" fill="#2D2D2D"/>
<path d="M34.4732 24.5447H30.2681L30.2701 23.3436C30.2704 23.0446 30.1542 22.763 29.9424 22.5505C29.7309 22.338 29.4492 22.2205 29.1503 22.2202L24.2931 22.2124C24.2927 22.2124 24.2921 22.2124 24.2914 22.2124C23.9938 22.2124 23.7131 22.3285 23.5006 22.5397C23.2878 22.7515 23.17 23.0332 23.1697 23.3322L23.1677 24.5447H21.1409C19.62 22.8335 17.5112 21.6585 15.1345 21.336C17.2214 20.3337 18.7884 18.4179 19.3184 16.1104C19.4166 16.1381 19.5181 16.1534 19.6232 16.1534C20.4229 16.1534 21.0492 15.3284 21.0492 14.2745C21.0492 13.3985 20.6158 12.6821 20.01 12.465V6.52329C20.01 5.19721 19.0867 4.08883 17.8484 3.80031C18.0158 3.63483 18.1663 3.4377 18.2714 3.20173C18.8664 1.86847 17.6663 0.870728 17.398 0.870728C17.1532 0.870728 17.239 1.3146 16.3431 1.90959C15.4443 2.50621 14.6202 2.57475 14.6202 2.57475C14.6202 2.57475 12.1387 0.870075 9.37623 1.33517C7.39413 1.66873 5.90943 3.16746 5.22631 3.98961C4.27263 4.43577 3.61041 5.40087 3.61041 6.52329V12.465C3.00498 12.6824 2.57154 13.3985 2.57154 14.2745C2.57154 15.3284 3.19787 16.1534 3.9975 16.1534C4.10259 16.1534 4.20409 16.1381 4.30201 16.1104C4.83205 18.4179 6.39867 20.3337 8.48586 21.336C3.70114 21.9855 0 26.0937 0 31.0536V37.6377C0 38.1775 0.439307 38.6168 0.979138 38.6168H9.58609H14.0346H18.9643H23.2944H27.4838C27.6642 38.6168 27.8101 38.4709 27.8101 38.2905C27.8101 38.11 27.6642 37.9641 27.4838 37.9641H18.9643C17.9313 37.9641 17.0912 37.1236 17.0912 36.0907V31.7368C17.5537 32.2495 18.2211 32.5742 18.9643 32.5742H21.8926L21.8916 33.2215C21.8906 33.7939 22.3554 34.2606 22.9275 34.2616C22.9282 34.2616 22.9288 34.2616 22.9295 34.2616C23.2052 34.2616 23.4654 34.1539 23.6615 33.9581C23.8587 33.7619 23.9673 33.5018 23.9677 33.2254L23.9686 32.5742H29.4688L29.4678 33.2339C29.4675 33.5106 29.5752 33.7711 29.7714 33.9679C29.9675 34.1647 30.2276 34.2734 30.5041 34.2737C30.5047 34.2737 30.5054 34.2737 30.506 34.2737C30.7818 34.2737 31.0419 34.166 31.2381 33.9702C31.4349 33.774 31.5436 33.5139 31.5439 33.2374L31.5449 32.5742H34.4738C35.2173 32.5742 35.8848 32.2495 36.3472 31.7364V36.0903C36.3472 37.1233 35.5068 37.9637 34.4738 37.9637H32.4542C32.2737 37.9637 32.1278 38.1096 32.1278 38.2901C32.1278 38.4706 32.2737 38.6165 32.4542 38.6165H34.4738C35.8668 38.6165 37 37.483 37 36.0903V30.0481V29.9309V27.0708C36.9997 25.6782 35.8662 24.5447 34.4732 24.5447ZM28.506 24.5447H24.9308L24.9318 23.9761L28.507 23.982L28.506 24.5447ZM23.8231 23.3331C23.8234 23.2088 23.8724 23.0913 23.9618 23.0025C24.0506 22.9141 24.1681 22.8651 24.2921 22.8651C24.2924 22.8651 24.2927 22.8651 24.2927 22.8651L29.1499 22.8729C29.2746 22.8733 29.3921 22.9222 29.4809 23.0113C29.5696 23.1004 29.6183 23.2179 29.618 23.3426L29.616 24.5447H29.1594L29.1607 23.6566C29.161 23.4761 29.0151 23.3299 28.835 23.3295L24.6064 23.3227C24.6061 23.3227 24.6061 23.3227 24.6057 23.3227C24.5193 23.3227 24.4364 23.3566 24.3753 23.418C24.314 23.479 24.2794 23.5619 24.2794 23.6484L24.2781 24.5447H23.8211L23.8231 23.3331ZM20.245 24.5447H18.9639C18.5214 24.5447 18.1056 24.6599 17.7436 24.8606L16.9427 22.4503C18.1924 22.9072 19.3168 23.6262 20.245 24.5447ZM16.4384 28.3835L15.9312 27.2125L16.4443 26.9533C16.4423 26.9925 16.4384 27.0313 16.4384 27.0708V28.3835ZM16.6209 26.1328L15.3624 26.7683C15.2083 26.846 15.1414 27.0307 15.2099 27.1893L15.8924 28.7654L14.3613 31.4038V30.1848L15.2292 24.5544L16.2325 22.3821L17.193 25.2725C16.9469 25.515 16.7514 25.8074 16.6209 26.1328ZM5.7198 26.2177L7.68983 27.2125L7.06383 28.6574C7.02271 28.7523 7.02923 28.8614 7.08113 28.9508L9.26004 32.7051V37.9641H6.19338V29.021C6.19338 27.0979 5.13656 25.3564 3.4668 24.4582C4.37805 23.5812 5.46849 22.8889 6.67935 22.447L5.55726 25.8237C5.50602 25.9771 5.57521 26.1446 5.7198 26.2177ZM9.25971 31.4045L7.72834 28.7657L8.41112 27.1896C8.47966 27.031 8.41308 26.8463 8.25871 26.7686L6.26551 25.7621L7.3889 22.3827L8.39219 24.5551L9.26004 30.1858V31.4045H9.25971ZM7.96855 22.0811C8.43985 21.9845 8.92484 21.9258 9.41931 21.9049L11.3045 23.106L9.39091 25.1609L7.96855 22.0811ZM11.8104 22.6543L10.8293 22.0293C10.8299 22.0293 10.828 22.0263 10.8283 22.0263C11.1501 22.0674 11.4775 22.0909 11.8104 22.0909C12.1436 22.0909 12.4713 22.0671 12.7934 22.026C12.7937 22.0266 12.7918 22.0289 12.7931 22.0286L11.8104 22.6543ZM12.3166 23.106L14.2027 21.9052C14.6969 21.9261 15.1806 21.9865 15.6512 22.0831L14.2301 25.1609L12.3166 23.106ZM20.3968 14.2745C20.3968 14.939 20.0426 15.5007 19.6236 15.5007C19.5599 15.5007 19.4989 15.4831 19.4395 15.4579C19.4884 15.1074 19.5159 14.7497 19.5159 14.3858V13.062C19.5511 13.0538 19.587 13.0483 19.6236 13.0483C20.0426 13.0483 20.3968 13.61 20.3968 14.2745ZM3.9975 15.5007C3.57842 15.5007 3.2243 14.939 3.2243 14.2745C3.2243 13.61 3.57842 13.0483 3.9975 13.0483C4.03405 13.0483 4.06962 13.0538 4.10487 13.062V14.3858C4.10487 14.7497 4.13196 15.1074 4.18125 15.4583C4.12217 15.4831 4.06114 15.5007 3.9975 15.5007ZM4.75796 14.3858V10.5959C5.00242 9.70092 5.36633 8.83928 5.85296 8.03933C6.09448 7.64245 6.38855 7.28963 6.71852 6.97957C7.18165 6.75208 7.70027 6.62088 8.25022 6.62088H8.32888C9.1334 6.92702 10.3919 7.12448 11.8104 7.12448C13.2288 7.12448 14.4873 6.92702 15.2919 6.62088H15.3705C15.9205 6.62088 16.4391 6.75208 16.9022 6.97957C17.2322 7.28963 17.5259 7.64245 17.7674 8.03933C18.2541 8.83928 18.6177 9.7006 18.8624 10.5952V14.3861C18.8624 18.2749 15.6988 21.4385 11.81 21.4385C7.92123 21.4385 4.75796 18.2746 4.75796 14.3858ZM0.652759 37.6377V31.0536C0.652759 28.7099 1.53855 26.5698 2.99192 24.9481C4.54679 25.7049 5.54062 27.2774 5.54062 29.0206V37.9637H0.979138C0.799303 37.9641 0.652759 37.8179 0.652759 37.6377ZM9.90888 30.1107L9.28517 26.0643C9.28941 26.0643 9.29398 26.0653 9.29822 26.0653C9.38798 26.0653 9.47479 26.0284 9.53681 25.9615L10.4069 25.027L11.0231 26.7631L10.5306 37.9644H9.91247V30.1607C9.91247 30.1437 9.91149 30.1271 9.90888 30.1107ZM13.0901 37.9641L12.5976 26.7627L13.2138 25.0267L14.0839 25.9611C14.1459 26.0281 14.2328 26.0649 14.3225 26.0649C14.3268 26.0649 14.3313 26.064 14.3356 26.064L13.7119 30.1104C13.7092 30.1271 13.7079 30.1437 13.7079 30.16V37.9637H13.0901V37.9641ZM17.2759 37.9641H14.3613V32.7051L16.4384 29.1254V29.9309V30.0481V36.0907C16.4384 36.8342 16.7628 37.5013 17.2759 37.9641ZM23.3146 33.2244C23.3143 33.4365 23.1416 33.6092 22.9291 33.6092C22.9288 33.6092 22.9285 33.6092 22.9285 33.6092C22.7163 33.6089 22.5437 33.4359 22.544 33.2231L22.5473 31.2475C22.5476 31.0354 22.7202 30.8627 22.9324 30.8627C22.9327 30.8627 22.933 30.8627 22.933 30.8627C23.1455 30.863 23.3182 31.036 23.3179 31.2485L23.3146 33.2244ZM30.8905 33.2365C30.8902 33.4486 30.7175 33.6213 30.5054 33.6213C30.5051 33.6213 30.5047 33.6213 30.5047 33.6213C30.2923 33.6209 30.1196 33.448 30.1199 33.2355L30.1232 31.2596C30.1235 31.0474 30.2962 30.8748 30.5086 30.8748C30.509 30.8748 30.5093 30.8748 30.5093 30.8748C30.7214 30.8751 30.8941 31.0481 30.8938 31.2606L30.8905 33.2365ZM34.4732 31.9215H31.5452L31.5462 31.2619C31.5472 30.6894 31.0824 30.223 30.5103 30.222C30.5096 30.222 30.509 30.222 30.5083 30.222C30.2325 30.222 29.9724 30.3297 29.7762 30.5256C29.5791 30.7217 29.4704 30.9818 29.4701 31.2583L29.4691 31.9215H23.9693L23.9703 31.2495C23.9706 30.9727 23.8629 30.7123 23.6668 30.5154C23.4706 30.3186 23.2105 30.21 22.934 30.2096C22.9334 30.2096 22.9327 30.2096 22.9321 30.2096C22.6563 30.2096 22.3962 30.3173 22.2 30.5132C22.0032 30.7093 21.8945 30.9694 21.8942 31.2459L21.8932 31.9212H18.9639C17.931 31.9212 17.0909 31.0807 17.0909 30.0477V29.9306V27.0708C17.0909 26.0378 17.931 25.1974 18.9639 25.1974H34.4732C35.5062 25.1974 36.3466 26.0378 36.3466 27.0708V30.0481C36.3469 31.0811 35.5062 31.9215 34.4732 31.9215Z" fill="#2D2D2D"/>
</svg>
