<svg width="336" height="322" viewBox="0 0 336 322" fill="none" xmlns="http://www.w3.org/2000/svg">
<path d="M5.05084 120.193C5.05084 120.193 48.4067 104.964 68.3848 155.255C68.3848 155.255 33.2253 175.567 5.05084 120.193Z" fill="#7598CF"/>
<path d="M68.3848 155.255C68.3848 155.255 14.8005 123.067 7.34662 121.278C7.33685 121.278 52.4023 136.585 68.3848 155.255Z" fill="#5881C2"/>
<path d="M21.4241 128.101C21.4241 128.101 16.1585 129.919 14.8689 130.241C13.5794 130.564 23.3096 129.137 23.3096 129.137L21.4241 128.101Z" fill="#5881C2"/>
<path d="M22.8894 127.289C22.821 127.26 20.6034 121.943 20.6816 122.138C20.7597 122.334 28.5947 129.772 28.5947 129.772L22.8894 127.289Z" fill="#5881C2"/>
<path d="M30.4215 133.096C30.1968 133.36 21.9809 134.796 21.9809 134.796L33.9677 135.109L30.4215 133.096Z" fill="#5881C2"/>
<path d="M33.5672 132.069L30.1578 124.054L35.736 133.105L33.5672 132.069Z" fill="#5881C2"/>
<path d="M42.9652 140.27C42.9652 140.27 30.1675 141.121 30.402 141.17C30.6364 141.219 45.6713 141.844 45.6713 141.844L42.9652 140.27Z" fill="#5881C2"/>
<path d="M43.4537 137.054L39.3311 128.365L46.4919 138.736L43.4537 137.054Z" fill="#5881C2"/>
<path d="M51.6208 145.324C51.1909 145.588 40.3177 148.794 40.3177 148.794L55.9485 147.866L51.6208 145.324Z" fill="#5881C2"/>
<path d="M52.2264 142.147L49.9502 136.595C49.9502 136.595 56.4565 144.933 56.1536 144.728C55.8508 144.523 52.2264 142.147 52.2264 142.147Z" fill="#5881C2"/>
<path d="M61.6831 151.267C60.9601 151.463 52.9787 153.281 53.4281 153.222C53.8774 153.164 63.7346 152.479 63.7346 152.479L61.6831 151.267Z" fill="#A3B5DE"/>
<path d="M62.4646 149.498C62.4646 149.498 59.2798 142.079 59.5436 142.352C59.8074 142.626 64.1351 150.954 64.1351 150.954L62.4646 149.498Z" fill="#A3B5DE"/>
<path d="M25.3513 86.3718C25.3513 86.3718 71.296 87.1049 72.6344 141.209C72.6344 141.219 32.6196 148.09 25.3513 86.3718Z" fill="#5881C2"/>
<path d="M28.6728 89.4704C28.0378 88.8839 27.52 88.4538 27.1195 88.1898C27.1293 88.1898 27.6861 88.6395 28.6728 89.4704Z" fill="#7598CF"/>
<path d="M48.5434 125.422L63.5196 129.968C68.8829 136.546 72.6246 141.209 72.6246 141.209C70.9442 136.673 68.16 131.864 64.7799 127.065C64.7896 127.074 64.7896 127.084 64.7994 127.094C65.0143 127.397 61.7905 117.319 61.7905 117.319L62.0054 123.321C62.0054 123.321 62.0054 123.321 62.0054 123.331C60.6573 121.581 59.2505 119.841 57.8046 118.13L54.6785 105.922L55.5382 115.501C53.6039 113.311 51.6305 111.171 49.6669 109.128L47.5665 98.6979L47.9963 107.398L48.0061 107.407C46.6873 106.058 45.3879 104.758 44.1082 103.507L44.1179 103.517C44.1179 103.517 39.3603 93.8789 39.3408 93.6247C39.3506 93.8495 39.5753 99.1671 39.6339 99.2257C34.7981 94.7 30.7732 91.2396 28.6826 89.4802C30.7829 91.4254 34.0947 95.0421 37.9829 99.4799C37.9731 99.4799 32.4144 99.3528 31.0956 99.2159C29.7767 99.0693 39.3896 101.102 39.3994 101.102C41.0895 103.057 42.8772 105.14 44.7041 107.29C44.4012 107.456 36.1951 105.961 36.1951 105.961L47.332 110.408C49.5496 113.047 51.7966 115.735 53.9849 118.375C53.9849 118.375 41.6854 114.738 41.8906 114.866C42.0957 114.993 55.9778 120.789 55.9778 120.789C57.492 122.617 58.9574 124.406 60.3642 126.116C59.8562 126.195 48.5434 125.422 48.5434 125.422ZM60.3446 126.087C61.4486 127.436 62.5036 128.726 63.5099 129.958L60.3446 126.087ZM38.0024 99.4994C38.4518 100.008 38.9012 100.536 39.3603 101.063L38.0024 99.4994ZM44.7041 107.28C45.5638 108.297 46.443 109.333 47.3222 110.379L44.7041 107.28ZM53.9849 118.365C54.6394 119.157 55.2939 119.948 55.9387 120.721L53.9849 118.365Z" fill="#7598CF"/>
<path d="M77.519 141.101C76.7765 140.974 68.7755 139.264 69.2054 139.4C69.645 139.537 78.8671 143.076 78.8671 143.076L77.519 141.101Z" fill="#BBC9E7"/>
<path d="M0.928223 174.668C0.928223 174.668 42.3888 129.802 97.1063 176.447C97.1063 176.447 68.4336 222.184 0.928223 174.668Z" fill="url(#paint0_linear_228_12)"/>
<path d="M97.1063 176.447C97.1063 176.447 14.1655 171.97 4.28882 174.512C4.29859 174.512 66.7337 164.463 97.1063 176.447Z" fill="#5881C2"/>
<path d="M25.0778 173.769C25.0778 173.769 20.0173 179.174 18.7082 180.357C17.3894 181.54 27.9304 173.808 27.9304 173.808L25.0778 173.769Z" fill="#5881C2"/>
<path d="M26.2892 171.912C26.1915 171.922 20.2811 167.054 20.496 167.23C20.7109 167.415 34.5246 171.267 34.5246 171.267L26.2892 171.912Z" fill="#5881C2"/>
<path d="M38.7449 174.033C38.6374 174.483 29.8842 181.286 29.8842 181.286L44.1571 174.189L38.7449 174.033Z" fill="#5881C2"/>
<path d="M41.8027 170.866L32.815 163.584L44.9972 170.739L41.8027 170.866Z" fill="#5881C2"/>
<path d="M57.9414 174.658C57.9414 174.658 43.4341 183.622 43.7467 183.534C44.0496 183.436 62.0934 174.825 62.0934 174.825L57.9414 174.658Z" fill="#BBC9E7"/>
<path d="M56.5054 170.582L46.2672 162.929L61.1262 170.661L56.5054 170.582Z" fill="#BBC9E7"/>
<path d="M71.2471 175.206C70.915 175.783 60.12 186.31 60.12 186.31L77.9 175.509L71.2471 175.206Z" fill="#BBC9E7"/>
<path d="M69.9771 171.1L63.8518 165.998C63.8518 165.998 76.6788 171.746 76.2001 171.687C75.7117 171.638 69.9771 171.1 69.9771 171.1Z" fill="#BBC9E7"/>
<path d="M86.7607 175.919C86.0378 176.604 77.7828 183.71 78.281 183.358C78.7792 183.006 89.9259 176.076 89.9259 176.076L86.7607 175.919Z" fill="#BBC9E7"/>
<path d="M86.5653 173.358C86.5653 173.358 78.2028 166.624 78.6913 166.78C79.17 166.936 89.4277 174.023 89.4277 174.023L86.5653 173.358Z" fill="#BBC9E7"/>
<path d="M317.227 166.624C317.227 166.624 310.886 149.156 316.807 150.241C322.727 151.326 319.532 164.629 318.194 167.122L317.227 166.624Z" fill="#5881C2"/>
<path d="M315.996 171.169C315.996 171.169 323.84 164.844 328.266 166.291C332.691 167.738 331.695 172.234 327.25 173.124C322.805 174.013 314.696 173.466 314.696 173.466C314.696 173.466 314.687 171.335 315.996 171.169Z" fill="#7598CF"/>
<path d="M307.448 185.157C307.448 185.157 313.915 180.738 318.164 180.074C322.414 179.409 323.371 181.53 322.551 183.915C321.72 186.3 320.206 186.525 316.953 186.799C313.7 187.063 306.178 187.004 306.178 187.004L307.448 185.157Z" fill="#5881C2"/>
<path d="M312.137 175.695C312.137 175.695 310.193 162.557 304.243 163.466C298.294 164.375 311.16 177.337 311.16 177.337L312.137 175.695Z" fill="#7598CF"/>
<path d="M303.042 189.419C303.042 189.419 303.413 180.758 300.619 177.415C297.825 174.072 294.181 175.734 294.894 179.253C295.607 182.762 302.153 190.552 302.153 190.552L303.042 189.419Z" fill="#7598CF"/>
<path d="M299.925 194.824C299.925 194.824 310.056 192.615 312.645 194.707C315.234 196.799 314.735 200.836 309.851 200.298C304.966 199.76 297.776 196.906 297.776 196.906C297.776 196.906 298.802 195.049 299.925 194.824Z" fill="#5881C2"/>
<path d="M291.534 200.181C291.534 200.181 290.811 188.382 286.2 185.997C281.588 183.602 282.458 190.259 284.119 192.644C285.779 195.029 291.162 201.735 291.162 201.735L291.534 200.181Z" fill="#A3B5DE"/>
<path d="M286.942 204.237C286.942 204.237 298.929 202.038 300.902 206.71C302.885 211.383 293.634 210.044 290.176 208.851C286.717 207.668 283.318 206.202 283.318 206.202C283.318 206.202 285.379 203.485 286.942 204.237Z" fill="#7598CF"/>
<path d="M279.302 206.984C279.302 206.984 277.476 190.943 274.056 192.869C270.647 194.804 271.067 198.656 273.451 202.136C275.834 205.616 277.534 207.834 277.534 207.834L279.351 207.688L279.302 206.984Z" fill="#BECDE9"/>
<path d="M276.079 209.76C276.079 209.76 287.43 211.07 286.903 214.902C286.375 218.724 283.562 218.958 279.537 217.297C275.512 215.635 272.747 211.285 272.747 211.285L276.079 209.76Z" fill="#BECDE9"/>
<path d="M266.094 214.09L265.694 213.074C265.928 212.986 289.287 203.719 298.05 195.176C306.822 186.613 317.119 166.829 317.217 166.624L318.184 167.122C318.077 167.327 307.711 187.268 298.802 195.958C289.892 204.658 267.062 213.709 266.094 214.09Z" fill="#5881C2"/>
<path d="M309.792 110.623C309.792 110.623 303.52 93.136 309.441 94.2405C315.361 95.3549 312.117 108.639 310.759 111.132L309.792 110.623Z" fill="#5881C2"/>
<path d="M308.552 115.159C308.552 115.159 316.416 108.864 320.841 110.33C325.267 111.796 324.251 116.283 319.806 117.153C315.361 118.023 307.252 117.446 307.252 117.446C307.252 117.446 307.233 115.325 308.552 115.159Z" fill="#7598CF"/>
<path d="M299.945 129.117C299.945 129.117 306.432 124.728 310.681 124.073C314.931 123.428 315.888 125.549 315.048 127.925C314.218 130.3 312.694 130.525 309.441 130.789C306.187 131.053 298.665 130.945 298.665 130.945L299.945 129.117Z" fill="#5881C2"/>
<path d="M304.673 119.675C304.673 119.675 302.778 106.528 296.819 107.417C290.859 108.307 303.677 121.317 303.677 121.317L304.673 119.675Z" fill="#7598CF"/>
<path d="M295.519 133.36C295.519 133.36 295.93 124.699 293.145 121.346C290.361 117.994 286.717 119.645 287.411 123.164C288.105 126.683 294.63 134.493 294.63 134.493L295.519 133.36Z" fill="#7598CF"/>
<path d="M292.393 138.755C292.393 138.755 302.534 136.585 305.113 138.687C307.692 140.798 307.174 144.826 302.299 144.268C297.424 143.701 290.244 140.837 290.244 140.837C290.244 140.837 291.26 138.97 292.393 138.755Z" fill="#5881C2"/>
<path d="M283.982 144.083C283.982 144.083 283.298 132.284 278.707 129.88C274.105 127.475 274.945 134.132 276.606 136.517C278.267 138.902 283.611 145.627 283.611 145.627L283.982 144.083Z" fill="#A3B5DE"/>
<path d="M279.361 148.12C279.361 148.12 291.358 145.959 293.321 150.642C295.285 155.324 286.043 153.945 282.595 152.743C279.146 151.541 275.746 150.065 275.746 150.065C275.746 150.065 277.808 147.357 279.361 148.12Z" fill="#7598CF"/>
<path d="M271.722 150.837C271.722 150.837 269.953 134.787 266.534 136.703C263.115 138.618 263.525 142.48 265.899 145.969C268.273 149.459 269.963 151.688 269.963 151.688L271.79 151.541L271.722 150.837Z" fill="#BECDE9"/>
<path d="M268.478 153.603C268.478 153.603 279.82 154.962 279.283 158.784C278.746 162.606 275.922 162.831 271.907 161.15C267.892 159.468 265.137 155.109 265.137 155.109L268.478 153.603Z" fill="#BECDE9"/>
<path d="M258.484 157.895L258.084 156.878C258.318 156.79 281.715 147.611 290.508 139.097C299.32 130.574 309.685 110.819 309.782 110.623L310.75 111.132C310.642 111.327 300.199 131.238 291.26 139.889C282.321 148.55 259.451 157.513 258.484 157.895Z" fill="#5881C2"/>
<path d="M89.3104 41.3682C89.3104 41.3682 102.821 28.612 97.0379 26.9209C91.2545 25.2299 88.1381 38.5432 88.2163 41.378L89.3104 41.3682Z" fill="#5881C2"/>
<path d="M88.3628 45.9819C88.3628 45.9819 84.1914 36.8131 79.5901 36.1093C74.9888 35.4153 73.8555 39.8726 77.4311 42.6683C80.9968 45.4639 88.4898 48.6212 88.4898 48.6212C88.4898 48.6212 89.4668 46.7248 88.3628 45.9819Z" fill="#7598CF"/>
<path d="M89.7207 62.3158C89.7207 62.3158 85.9303 55.4636 82.4231 52.9612C78.9257 50.4588 77.1184 51.9153 76.7863 54.4177C76.4541 56.92 77.7046 57.7998 80.4888 59.5104C83.2731 61.2112 90.0236 64.5347 90.0236 64.5347L89.7207 62.3158Z" fill="#5881C2"/>
<path d="M89.7794 51.7589C89.7794 51.7589 97.4189 40.899 102.323 44.3789C107.227 47.8685 89.9161 53.665 89.9161 53.665L89.7794 51.7589Z" fill="#7598CF"/>
<path d="M91.743 68.1122C91.743 68.1122 95.299 60.2141 99.2946 58.484C103.29 56.7538 105.801 59.8818 103.583 62.697C101.375 65.5219 92.0165 69.5296 92.0165 69.5296L91.743 68.1122Z" fill="#7598CF"/>
<path d="M92.0947 74.3389C92.0947 74.3389 84.0351 67.8093 80.7819 68.5228C77.5287 69.2364 76.1611 73.0584 80.7624 74.769C85.3637 76.4796 93.0618 77.1736 93.0618 77.1736C93.0618 77.1736 93.0032 75.0427 92.0947 74.3389Z" fill="#5881C2"/>
<path d="M97.1845 82.9016C97.1845 82.9016 103.134 72.6869 108.321 72.6283C113.509 72.5598 109.748 78.1217 107.198 79.5C104.638 80.8782 96.823 84.4558 96.823 84.4558L97.1845 82.9016Z" fill="#5881C2"/>
<path d="M99.4704 88.5907C99.4704 88.5907 89.75 81.2399 85.8814 84.5145C82.0128 87.7989 90.8735 90.7509 94.4979 91.2494C98.1223 91.748 101.815 91.963 101.815 91.963C101.815 91.963 101.209 88.62 99.4704 88.5907Z" fill="#7598CF"/>
<path d="M105.058 94.4751C105.058 94.4751 113.9 80.9662 116.078 84.2213C118.257 87.4763 116.147 90.7313 112.454 92.7743C108.761 94.8075 106.25 96.0293 106.25 96.0293L104.687 95.0812L105.058 94.4751Z" fill="#7598CF"/>
<path d="M106.7 98.4046C106.7 98.4046 95.973 94.4751 94.7226 98.1309C93.4721 101.787 95.8851 103.253 100.223 103.576C104.56 103.898 108.995 101.259 108.995 101.259L106.7 98.4046Z" fill="#BECDE9"/>
<path d="M113.675 106.762L114.486 106.029C114.32 105.843 97.6045 87.0657 93.6187 75.4923C89.6231 63.8993 89.3202 41.593 89.3202 41.3682L88.2261 41.3779C88.2261 41.6028 88.5289 64.085 92.5929 75.8442C96.6472 87.6327 112.981 105.99 113.675 106.762Z" fill="#5881C2"/>
<path d="M279.957 49.8821C279.957 49.8821 223.872 52.3845 224.136 118.502C224.136 118.502 273.236 125.501 279.957 49.8821Z" fill="#7598CF"/>
<path d="M276 53.7823C277.183 52.7266 277.847 52.1597 277.847 52.1597C277.368 52.492 276.753 53.0492 276 53.7823Z" fill="#5881C2"/>
<path d="M273.392 65.7468C271.78 65.9716 264.991 66.3137 264.991 66.3137C269.582 60.7616 273.5 56.2358 276 53.7823C273.509 56.0012 268.713 60.3706 262.959 66.0693C263.027 66.0009 263.105 59.4713 263.115 59.2269C263.095 59.5397 257.625 71.4748 257.625 71.4748L257.634 71.4651C256.12 73.0388 254.567 74.6712 253.013 76.3623L253.023 76.3525L253.248 65.7077L251.04 78.5128C248.715 81.0835 246.37 83.7619 244.094 86.5086L244.807 74.7787L241.417 89.8027C239.708 91.9434 238.047 94.1135 236.464 96.2933V96.2835L236.523 88.9523C236.523 88.9523 232.938 101.376 233.192 100.995C233.192 100.985 233.201 100.975 233.211 100.966C231.355 103.761 229.655 106.557 228.19 109.313L228.209 109.274C228.209 109.274 228.444 99.4115 228.268 99.8416C228.092 100.272 226.978 111.679 226.978 111.679C225.845 113.996 224.878 116.283 224.126 118.512C224.126 118.512 228.542 112.676 234.852 104.465L252.984 98.3949C252.984 98.3949 239.19 99.734 238.594 99.6167L234.862 104.465C237.549 100.975 240.577 97.0459 243.762 92.96C243.762 92.96 260.516 85.3943 260.76 85.2379C261.005 85.0815 246.116 89.9494 246.107 89.9494C248.686 86.6455 251.333 83.2829 253.951 79.9888L267.404 74.1727C267.404 74.1727 257.439 76.2841 257.058 76.0984C259.207 73.4103 261.317 70.8004 263.32 68.3664C263.33 68.3371 275.004 65.5219 273.392 65.7468ZM263.349 68.3078C263.896 67.6431 264.434 66.9882 264.961 66.3528L263.349 68.3078ZM243.801 92.9014C244.563 91.9239 245.335 90.9268 246.116 89.9298L243.801 92.9014ZM253.971 79.9594C255.006 78.6594 256.032 77.3593 257.058 76.0886L253.971 79.9594Z" fill="#5881C2"/>
<path d="M228.131 113.243C228.131 113.243 239.61 109.519 240.147 109.382C240.685 109.245 230.808 110.819 229.899 110.926L228.131 113.243Z" fill="#5881C2"/>
<path d="M195.609 49.8821C195.609 49.8821 251.695 52.3845 251.431 118.502C251.431 118.502 202.331 125.501 195.609 49.8821Z" fill="url(#paint1_linear_228_12)"/>
<path d="M199.566 53.7823C198.384 52.7266 197.72 52.1597 197.72 52.1597C198.189 52.492 198.814 53.0492 199.566 53.7823Z" fill="#5881C2"/>
<path d="M212.237 68.3371C214.239 70.7808 216.34 73.3809 218.499 76.069C218.118 76.2645 208.153 74.1434 208.153 74.1434L221.605 79.9594C224.224 83.2536 226.871 86.6161 229.45 89.92C229.45 89.92 214.552 85.0522 214.796 85.2086C215.04 85.3649 231.795 92.9307 231.795 92.9307C234.979 97.0166 238.008 100.946 240.694 104.436L236.963 99.5874C236.357 99.6949 222.573 98.3655 222.573 98.3655L240.704 104.436C247.025 112.656 251.431 118.482 251.431 118.482C250.679 116.254 249.711 113.966 248.578 111.65C248.578 111.65 247.465 100.242 247.289 99.8122C247.113 99.3821 247.347 109.245 247.347 109.245L247.367 109.284C245.892 106.528 244.202 103.732 242.345 100.936C242.355 100.946 242.355 100.956 242.365 100.966C242.609 101.337 239.034 88.923 239.034 88.923L239.092 96.2542C239.092 96.2542 239.092 96.2542 239.092 96.2639C237.51 94.0841 235.849 91.9141 234.139 89.7734L230.749 74.7494L231.463 86.4793C229.186 83.7325 226.842 81.0542 224.517 78.4834L222.309 65.6783L222.533 76.3232L222.543 76.333C220.98 74.6419 219.437 73.0095 217.922 71.4357L217.932 71.4455C217.932 71.4455 212.461 59.5006 212.442 59.1976C212.452 59.4419 212.53 65.9813 212.598 66.04C206.854 60.3412 202.057 55.9719 199.556 53.753C202.057 56.2065 205.975 60.7322 210.566 66.2844C210.566 66.2844 203.777 65.9423 202.165 65.7174C200.562 65.5219 212.237 68.3371 212.237 68.3371ZM210.605 66.3528C211.133 66.9882 211.67 67.6431 212.217 68.3078L210.605 66.3528ZM229.45 89.9396C230.232 90.9366 231.003 91.9239 231.765 92.9112L229.45 89.9396ZM218.509 76.0886C219.525 77.3593 220.56 78.6496 221.596 79.9594L218.509 76.0886Z" fill="#5881C2"/>
<path d="M247.425 113.243C247.425 113.243 235.947 109.519 235.409 109.382C234.872 109.245 244.749 110.819 245.657 110.926L247.425 113.243Z" fill="#5881C2"/>
<path d="M229.851 36.3537H169.272C159.346 36.3537 151.296 28.2992 151.296 18.3679C151.296 8.43662 159.346 0.382111 169.272 0.382111H229.851C239.776 0.382111 247.826 8.43662 247.826 18.3679C247.826 28.3089 239.776 36.3537 229.851 36.3537Z" fill="url(#paint2_linear_228_12)"/>
<path d="M229.411 33.9197H169.701C161.114 33.9197 154.159 26.96 154.159 18.3679C154.159 9.77578 161.114 2.81606 169.701 2.81606H229.411C237.998 2.81606 244.954 9.77578 244.954 18.3679C244.954 26.96 237.998 33.9197 229.411 33.9197Z" fill="url(#paint3_linear_228_12)"/>
<path d="M239.063 11.5255H159.766C159.18 11.5255 158.701 11.0465 158.701 10.46C158.701 9.87352 159.18 9.39455 159.766 9.39455H239.063C239.649 9.39455 240.128 9.87352 240.128 10.46C240.128 11.0465 239.649 11.5255 239.063 11.5255Z" fill="#7598CF"/>
<path d="M239.063 16.8039H159.766C159.18 16.8039 158.701 16.3249 158.701 15.7384C158.701 15.152 159.18 14.673 159.766 14.673H239.063C239.649 14.673 240.128 15.152 240.128 15.7384C240.128 16.3249 239.649 16.8039 239.063 16.8039Z" fill="#7598CF"/>
<path d="M239.063 22.0824H159.766C159.18 22.0824 158.701 21.6034 158.701 21.0169C158.701 20.4304 159.18 19.9514 159.766 19.9514H239.063C239.649 19.9514 240.128 20.4304 240.128 21.0169C240.128 21.6034 239.649 22.0824 239.063 22.0824Z" fill="#7598CF"/>
<path d="M239.063 27.3608H159.766C159.18 27.3608 158.701 26.8818 158.701 26.2953C158.701 25.7088 159.18 25.2299 159.766 25.2299H239.063C239.649 25.2299 240.128 25.7088 240.128 26.2953C240.128 26.8818 239.649 27.3608 239.063 27.3608Z" fill="#7598CF"/>
<path d="M232.078 274.646L140.11 280.55C104.873 282.808 74.4808 256.064 72.2143 220.806L68.2382 158.804C65.9815 123.546 92.7102 93.1359 127.948 90.8682L219.915 84.9642C255.153 82.7062 285.545 109.45 287.811 144.708L291.788 206.71C294.044 241.968 267.316 272.388 232.078 274.646Z" fill="url(#paint4_linear_228_12)"/>
<path d="M183.554 321.204H115.082C83.4294 321.204 57.7656 295.525 57.7656 263.854V212.536C57.7656 180.866 83.4294 155.187 115.082 155.187H183.554C215.207 155.187 240.87 180.866 240.87 212.536V263.854C240.87 295.525 215.207 321.204 183.554 321.204Z" fill="#EEF2FA"/>
<path d="M254.85 124.181H109.552C107.989 124.181 106.719 122.91 106.719 121.346C106.719 119.782 107.989 118.512 109.552 118.512H254.86C256.423 118.512 257.693 119.782 257.693 121.346C257.693 122.92 256.423 124.181 254.85 124.181Z" fill="#A2BBE1"/>
<path d="M254.85 135.315H109.552C107.989 135.315 106.719 134.044 106.719 132.48C106.719 130.916 107.989 129.645 109.552 129.645H254.86C256.423 129.645 257.693 130.916 257.693 132.48C257.693 134.044 256.423 135.315 254.85 135.315Z" fill="#A2BBE1"/>
<path d="M254.85 146.438H109.552C107.989 146.438 106.719 145.168 106.719 143.604C106.719 142.04 107.989 140.769 109.552 140.769H254.86C256.423 140.769 257.693 142.04 257.693 143.604C257.693 145.168 256.423 146.438 254.85 146.438Z" fill="#A2BBE1"/>
<path d="M254.85 157.572H109.552C107.989 157.572 106.719 156.301 106.719 154.737C106.719 153.173 107.989 151.903 109.552 151.903H254.86C256.423 151.903 257.693 153.173 257.693 154.737C257.693 156.301 256.423 157.572 254.85 157.572Z" fill="#A2BBE1"/>
<path d="M152.664 240.062C148.707 240.062 145.503 236.856 145.503 232.897V182.527C145.503 178.568 148.707 175.362 152.664 175.362C156.62 175.362 159.825 178.568 159.825 182.527V232.887C159.825 236.846 156.62 240.062 152.664 240.062Z" fill="url(#paint5_linear_228_12)"/>
<path d="M169.838 240.062C165.882 240.062 162.677 236.856 162.677 232.897V172.703C162.677 168.745 165.882 165.539 169.838 165.539C173.795 165.539 176.999 168.745 176.999 172.703V232.897C176.999 236.846 173.795 240.062 169.838 240.062Z" fill="url(#paint6_linear_228_12)"/>
<path d="M187.022 240.062C183.066 240.062 179.861 236.856 179.861 232.897V196.515C179.861 192.556 183.066 189.35 187.022 189.35C190.979 189.35 194.183 192.556 194.183 196.515V232.897C194.183 236.846 190.979 240.062 187.022 240.062Z" fill="url(#paint7_linear_228_12)"/>
<path d="M204.197 240.062C200.24 240.062 197.036 236.856 197.036 232.897V164.6C197.036 160.641 200.24 157.435 204.197 157.435C208.153 157.435 211.357 160.641 211.357 164.6V232.897C211.357 236.846 208.153 240.062 204.197 240.062Z" fill="url(#paint8_linear_228_12)"/>
<path d="M221.381 240.062C217.424 240.062 214.22 236.856 214.22 232.897V186.701C214.22 182.742 217.424 179.536 221.381 179.536C225.337 179.536 228.542 182.742 228.542 186.701V232.897C228.542 236.846 225.327 240.062 221.381 240.062Z" fill="url(#paint9_linear_228_12)"/>
<path d="M238.555 240.062C234.598 240.062 231.394 236.856 231.394 232.897V189.516C231.394 185.557 234.598 182.351 238.555 182.351C242.512 182.351 245.716 185.557 245.716 189.516V232.897C245.716 236.846 242.512 240.062 238.555 240.062Z" fill="url(#paint10_linear_228_12)"/>
<path d="M119.859 216.808C111.789 222.868 101.688 226.475 90.7074 226.475C64.3305 226.475 42.9457 205.635 42.9457 179.927C42.9457 154.219 64.3305 133.379 90.7074 133.379V179.927L119.859 216.808Z" fill="url(#paint11_linear_228_12)"/>
<path d="M140.091 177.972C140.091 192.351 133.292 205.137 122.731 213.289L95.553 177.972V133.399C120.152 133.408 140.091 153.359 140.091 177.972Z" fill="url(#paint12_linear_228_12)"/>
<path d="M276.87 281.371H269.152C249.731 281.371 233.983 265.614 233.983 246.181V245.174C233.983 225.742 249.731 209.985 269.152 209.985H276.87C296.291 209.985 312.039 225.742 312.039 245.174V246.181C312.029 265.614 296.291 281.371 276.87 281.371Z" fill="white"/>
<path d="M306.793 282.065H239.229C235.829 282.065 233.065 279.973 233.065 277.402V213.944C233.065 211.373 235.829 209.281 239.229 209.281H306.793C310.193 209.281 312.957 211.373 312.957 213.944V277.402C312.957 279.983 310.183 282.065 306.793 282.065ZM239.229 210.689C236.845 210.689 234.911 212.155 234.911 213.953V277.412C234.911 279.211 236.845 280.677 239.229 280.677H306.793C309.177 280.677 311.111 279.211 311.111 277.412V213.953C311.111 212.155 309.177 210.689 306.793 210.689H239.229Z" fill="white"/>
<path d="M303.95 217.384H241.017C240.118 217.384 239.385 217.942 239.385 218.616C239.385 219.3 240.118 219.848 241.017 219.848H303.95C304.849 219.848 305.582 219.291 305.582 218.616C305.591 217.932 304.859 217.384 303.95 217.384Z" fill="#7598CF"/>
<path d="M303.95 222.77H241.017C240.118 222.77 239.385 223.328 239.385 224.002C239.385 224.686 240.118 225.234 241.017 225.234H303.95C304.849 225.234 305.582 224.677 305.582 224.002C305.591 223.328 304.859 222.77 303.95 222.77Z" fill="#7598CF"/>
<path d="M303.95 228.714H241.017C240.118 228.714 239.385 229.271 239.385 229.945C239.385 230.62 240.118 231.177 241.017 231.177H303.95C304.849 231.177 305.582 230.62 305.582 229.945C305.582 229.271 304.859 228.714 303.95 228.714Z" fill="#7598CF"/>
<path d="M303.95 234.109H241.017C240.118 234.109 239.385 234.666 239.385 235.341C239.385 236.025 240.118 236.573 241.017 236.573H303.95C304.849 236.573 305.582 236.015 305.582 235.341C305.591 234.657 304.859 234.109 303.95 234.109Z" fill="#7598CF"/>
<path d="M303.95 239.495H241.017C240.118 239.495 239.385 240.052 239.385 240.727C239.385 241.411 240.118 241.959 241.017 241.959H303.95C304.849 241.959 305.582 241.401 305.582 240.727C305.591 240.052 304.859 239.495 303.95 239.495Z" fill="#7598CF"/>
<path d="M303.95 244.891H241.017C240.118 244.891 239.385 245.448 239.385 246.123C239.385 246.807 240.118 247.354 241.017 247.354H303.95C304.849 247.354 305.582 246.797 305.582 246.123C305.591 245.438 304.859 244.891 303.95 244.891Z" fill="#7598CF"/>
<path d="M303.95 250.834H241.017C240.118 250.834 239.385 251.391 239.385 252.066C239.385 252.74 240.118 253.297 241.017 253.297H303.95C304.849 253.297 305.582 252.74 305.582 252.066C305.582 251.391 304.859 250.834 303.95 250.834Z" fill="#7598CF"/>
<path d="M303.95 256.22H241.017C240.118 256.22 239.385 256.777 239.385 257.452C239.385 258.136 240.118 258.683 241.017 258.683H303.95C304.849 258.683 305.582 258.126 305.582 257.452C305.591 256.777 304.859 256.22 303.95 256.22Z" fill="#7598CF"/>
<path d="M270.832 253.121L268.234 260.619C267.814 261.841 266.348 262.691 264.678 262.691H228.053C226.021 262.691 224.38 263.932 224.38 265.467V312.602C224.38 314.136 226.021 315.378 228.053 315.378H315.048C317.08 315.378 318.721 314.136 318.721 312.602V272.749V262.691V253.825C318.721 252.291 317.08 251.049 315.048 251.049H274.389C272.708 251.049 271.253 251.9 270.832 253.121Z" fill="url(#paint13_linear_228_12)"/>
<path d="M136.32 317.264H77.1087C68.8049 317.264 62.0739 310.529 62.0739 302.221V261.997C62.0739 253.688 68.8049 246.953 77.1087 246.953H136.32C144.624 246.953 151.355 253.688 151.355 261.997V302.23C151.355 310.529 144.624 317.264 136.32 317.264Z" fill="url(#paint14_linear_228_12)"/>
<path d="M135.372 314.205H78.0563C71.1006 314.205 65.4735 308.565 65.4735 301.615V273.434C65.4735 266.474 71.1104 260.844 78.0563 260.844H135.372C142.328 260.844 147.955 266.484 147.955 273.434V301.605C147.955 308.565 142.328 314.205 135.372 314.205Z" fill="white"/>
<path d="M78.8281 265.242H73.7286C73.0154 265.242 72.4293 265.819 72.4293 266.542V271.645C72.4293 272.358 73.0056 272.945 73.7286 272.945H78.8281C79.5412 272.945 80.1274 272.368 80.1274 271.645V266.542C80.1274 265.819 79.5412 265.242 78.8281 265.242Z" fill="url(#paint15_linear_228_12)"/>
<path d="M91.0103 265.242H85.9108C85.1977 265.242 84.6115 265.819 84.6115 266.542V271.645C84.6115 272.358 85.1879 272.945 85.9108 272.945H91.0103C91.7235 272.945 92.3097 272.368 92.3097 271.645V266.542C92.3097 265.819 91.7333 265.242 91.0103 265.242Z" fill="url(#paint16_linear_228_12)"/>
<path d="M103.046 265.242H97.9465C97.2333 265.242 96.6472 265.819 96.6472 266.542V271.645C96.6472 272.358 97.2235 272.945 97.9465 272.945H103.046C103.759 272.945 104.345 272.368 104.345 271.645V266.542C104.345 265.819 103.759 265.242 103.046 265.242Z" fill="url(#paint17_linear_228_12)"/>
<path d="M115.228 265.242H110.129C109.416 265.242 108.829 265.819 108.829 266.542V271.645C108.829 272.358 109.406 272.945 110.129 272.945H115.228C115.941 272.945 116.528 272.368 116.528 271.645V266.542C116.528 265.819 115.941 265.242 115.228 265.242Z" fill="url(#paint18_linear_228_12)"/>
<path d="M127.664 265.242H122.565C121.852 265.242 121.266 265.819 121.266 266.542V271.645C121.266 272.358 121.842 272.945 122.565 272.945H127.664C128.378 272.945 128.964 272.368 128.964 271.645V266.542C128.964 265.819 128.378 265.242 127.664 265.242Z" fill="url(#paint19_linear_228_12)"/>
<path d="M139.7 265.242H134.601C133.887 265.242 133.301 265.819 133.301 266.542V271.645C133.301 272.358 133.878 272.945 134.601 272.945H139.7C140.413 272.945 140.999 272.368 140.999 271.645V266.542C140.99 265.819 140.413 265.242 139.7 265.242Z" fill="url(#paint20_linear_228_12)"/>
<path d="M78.8281 277.031H73.7286C73.0154 277.031 72.4293 277.607 72.4293 278.331V283.433C72.4293 284.147 73.0056 284.733 73.7286 284.733H78.8281C79.5412 284.733 80.1274 284.157 80.1274 283.433V278.331C80.1274 277.607 79.5412 277.031 78.8281 277.031Z" fill="url(#paint21_linear_228_12)"/>
<path d="M91.0103 277.031H85.9108C85.1977 277.031 84.6115 277.607 84.6115 278.331V283.433C84.6115 284.147 85.1879 284.733 85.9108 284.733H91.0103C91.7235 284.733 92.3097 284.157 92.3097 283.433V278.331C92.3097 277.607 91.7333 277.031 91.0103 277.031Z" fill="url(#paint22_linear_228_12)"/>
<path d="M103.046 277.031H97.9465C97.2333 277.031 96.6472 277.607 96.6472 278.331V283.433C96.6472 284.147 97.2235 284.733 97.9465 284.733H103.046C103.759 284.733 104.345 284.157 104.345 283.433V278.331C104.345 277.607 103.759 277.031 103.046 277.031Z" fill="url(#paint23_linear_228_12)"/>
<path d="M115.228 277.031H110.129C109.416 277.031 108.829 277.607 108.829 278.331V283.433C108.829 284.147 109.406 284.733 110.129 284.733H115.228C115.941 284.733 116.528 284.157 116.528 283.433V278.331C116.528 277.607 115.941 277.031 115.228 277.031Z" fill="url(#paint24_linear_228_12)"/>
<path d="M127.664 277.031H122.565C121.852 277.031 121.266 277.607 121.266 278.331V283.433C121.266 284.147 121.842 284.733 122.565 284.733H127.664C128.378 284.733 128.964 284.157 128.964 283.433V278.331C128.964 277.607 128.378 277.031 127.664 277.031Z" fill="url(#paint25_linear_228_12)"/>
<path d="M139.7 277.031H134.601C133.887 277.031 133.301 277.607 133.301 278.331V283.433C133.301 284.147 133.878 284.733 134.601 284.733H139.7C140.413 284.733 140.999 284.157 140.999 283.433V278.331C140.99 277.607 140.413 277.031 139.7 277.031Z" fill="url(#paint26_linear_228_12)"/>
<path d="M78.8281 288.819H73.7286C73.0154 288.819 72.4293 289.396 72.4293 290.119V295.222C72.4293 295.935 73.0056 296.522 73.7286 296.522H78.8281C79.5412 296.522 80.1274 295.945 80.1274 295.222V290.119C80.1274 289.396 79.5412 288.819 78.8281 288.819Z" fill="url(#paint27_linear_228_12)"/>
<path d="M91.0103 288.819H85.9108C85.1977 288.819 84.6115 289.396 84.6115 290.119V295.222C84.6115 295.935 85.1879 296.522 85.9108 296.522H91.0103C91.7235 296.522 92.3097 295.945 92.3097 295.222V290.119C92.3097 289.396 91.7333 288.819 91.0103 288.819Z" fill="url(#paint28_linear_228_12)"/>
<path d="M103.046 288.819H97.9465C97.2333 288.819 96.6472 289.396 96.6472 290.119V295.222C96.6472 295.935 97.2235 296.522 97.9465 296.522H103.046C103.759 296.522 104.345 295.945 104.345 295.222V290.119C104.345 289.396 103.759 288.819 103.046 288.819Z" fill="url(#paint29_linear_228_12)"/>
<path d="M115.228 288.819H110.129C109.416 288.819 108.829 289.396 108.829 290.119V295.222C108.829 295.935 109.406 296.522 110.129 296.522H115.228C115.941 296.522 116.528 295.945 116.528 295.222V290.119C116.528 289.396 115.941 288.819 115.228 288.819Z" fill="url(#paint30_linear_228_12)"/>
<path d="M127.664 288.819H122.565C121.852 288.819 121.266 289.396 121.266 290.119V295.222C121.266 295.935 121.842 296.522 122.565 296.522H127.664C128.378 296.522 128.964 295.945 128.964 295.222V290.119C128.964 289.396 128.378 288.819 127.664 288.819Z" fill="url(#paint31_linear_228_12)"/>
<path d="M139.7 288.819H134.601C133.887 288.819 133.301 289.396 133.301 290.119V295.222C133.301 295.935 133.878 296.522 134.601 296.522H139.7C140.413 296.522 140.999 295.945 140.999 295.222V290.119C140.99 289.396 140.413 288.819 139.7 288.819Z" fill="url(#paint32_linear_228_12)"/>
<path d="M78.8281 300.608H73.7286C73.0154 300.608 72.4293 301.185 72.4293 301.908V307.01C72.4293 307.724 73.0056 308.31 73.7286 308.31H78.8281C79.5412 308.31 80.1274 307.734 80.1274 307.01V301.908C80.1274 301.194 79.5412 300.608 78.8281 300.608Z" fill="url(#paint33_linear_228_12)"/>
<path d="M91.0103 300.608H85.9108C85.1977 300.608 84.6115 301.185 84.6115 301.908V307.01C84.6115 307.724 85.1879 308.31 85.9108 308.31H91.0103C91.7235 308.31 92.3097 307.734 92.3097 307.01V301.908C92.3097 301.194 91.7333 300.608 91.0103 300.608Z" fill="url(#paint34_linear_228_12)"/>
<path d="M103.046 300.608H97.9465C97.2333 300.608 96.6472 301.185 96.6472 301.908V307.01C96.6472 307.724 97.2235 308.31 97.9465 308.31H103.046C103.759 308.31 104.345 307.734 104.345 307.01V301.908C104.345 301.194 103.759 300.608 103.046 300.608Z" fill="url(#paint35_linear_228_12)"/>
<path d="M115.228 300.608H110.129C109.416 300.608 108.829 301.185 108.829 301.908V307.01C108.829 307.724 109.406 308.31 110.129 308.31H115.228C115.941 308.31 116.528 307.734 116.528 307.01V301.908C116.528 301.194 115.941 300.608 115.228 300.608Z" fill="url(#paint36_linear_228_12)"/>
<path d="M127.664 300.608H122.565C121.852 300.608 121.266 301.185 121.266 301.908V307.01C121.266 307.724 121.842 308.31 122.565 308.31H127.664C128.378 308.31 128.964 307.734 128.964 307.01V301.908C128.964 301.194 128.378 300.608 127.664 300.608Z" fill="url(#paint37_linear_228_12)"/>
<path d="M139.7 300.608H134.601C133.887 300.608 133.301 301.185 133.301 301.908V307.01C133.301 307.724 133.878 308.31 134.601 308.31H139.7C140.413 308.31 140.999 307.734 140.999 307.01V301.908C140.99 301.194 140.413 300.608 139.7 300.608Z" fill="url(#paint38_linear_228_12)"/>
<path d="M72.3935 237C71.0746 237 70 238.075 70 239.395V247.019C70 248.339 71.0746 249.414 72.3935 249.414C73.7123 249.414 74.7869 248.339 74.7869 247.019V239.395C74.7967 238.075 73.7221 237 72.3935 237Z" fill="url(#paint39_linear_228_12)"/>
<path d="M83.9602 237C82.6414 237 81.5668 238.075 81.5668 239.395V247.019C81.5668 248.339 82.6414 249.414 83.9602 249.414C85.2791 249.414 86.3537 248.339 86.3537 247.019V239.395C86.3537 238.075 85.2791 237 83.9602 237Z" fill="url(#paint40_linear_228_12)"/>
<path d="M96.1523 237C94.8334 237 93.7588 238.075 93.7588 239.395V247.019C93.7588 248.339 94.8334 249.414 96.1523 249.414C97.4711 249.414 98.5457 248.339 98.5457 247.019V239.395C98.5457 238.075 97.4711 237 96.1523 237Z" fill="url(#paint41_linear_228_12)"/>
<path d="M107.709 237C106.39 237 105.316 238.075 105.316 239.395V247.019C105.316 248.339 106.39 249.414 107.709 249.414C109.028 249.414 110.103 248.339 110.103 247.019V239.395C110.112 238.075 109.038 237 107.709 237Z" fill="url(#paint42_linear_228_12)"/>
<path d="M119.716 237C118.397 237 117.322 238.075 117.322 239.395V247.019C117.322 248.339 118.397 249.414 119.716 249.414C121.034 249.414 122.109 248.339 122.109 247.019V239.395C122.119 238.075 121.044 237 119.716 237Z" fill="url(#paint43_linear_228_12)"/>
<path d="M131.282 237C129.964 237 128.889 238.075 128.889 239.395V247.019C128.889 248.339 129.964 249.414 131.282 249.414C132.601 249.414 133.676 248.339 133.676 247.019V239.395C133.676 238.075 132.601 237 131.282 237Z" fill="url(#paint44_linear_228_12)"/>
<path d="M142.429 237C141.11 237 140.036 238.075 140.036 239.395V247.019C140.036 248.339 141.11 249.414 142.429 249.414C143.748 249.414 144.823 248.339 144.823 247.019V239.395C144.823 238.075 143.748 237 142.429 237Z" fill="url(#paint45_linear_228_12)"/>
<path d="M301.86 15.1519H297.991C296.164 15.1519 294.689 13.676 294.689 11.8481C294.689 10.0202 296.164 8.54414 297.991 8.54414H301.86C303.686 8.54414 305.162 10.0202 305.162 11.8481C305.171 13.676 303.686 15.1519 301.86 15.1519Z" fill="url(#paint46_linear_228_12)"/>
<path d="M299.955 84.1431C319.713 84.1431 335.73 68.1168 335.73 48.3475C335.73 28.5781 319.713 12.5518 299.955 12.5518C280.197 12.5518 264.18 28.5781 264.18 48.3475C264.18 68.1168 280.197 84.1431 299.955 84.1431Z" fill="url(#paint47_linear_228_12)"/>
<path d="M299.955 78.8158C316.378 78.8158 329.692 65.4941 329.692 49.061C329.692 32.6279 316.378 19.3063 299.955 19.3063C283.531 19.3063 270.217 32.6279 270.217 49.061C270.217 65.4941 283.531 78.8158 299.955 78.8158Z" fill="white"/>
<path d="M301.068 45.1608V22.2583C301.068 21.6425 300.57 21.144 299.955 21.144C299.339 21.144 298.841 21.6425 298.841 22.2583V45.1608C297.522 45.6203 296.574 46.8714 296.574 48.3572C296.574 48.6798 296.623 48.9828 296.701 49.2761L284.168 62.4624C283.747 62.9022 283.767 63.606 284.207 64.0361C284.646 64.4662 285.35 64.4369 285.779 63.997L298.02 51.1235C298.567 51.5145 299.241 51.7393 299.964 51.7393C301.83 51.7393 303.345 50.2242 303.345 48.3572C303.335 46.8714 302.387 45.6203 301.068 45.1608Z" fill="url(#paint48_linear_228_12)"/>
<path d="M304.654 9.66824H295.217C293.439 9.66824 292.002 8.23134 292.002 6.45231C292.002 4.67328 293.439 3.23636 295.217 3.23636H304.654C306.432 3.23636 307.868 4.67328 307.868 6.45231C307.868 8.23134 306.422 9.66824 304.654 9.66824Z" fill="url(#paint49_linear_228_12)"/>
<path d="M173.433 109.822C173.287 110.193 173.013 110.477 172.671 110.711C171.558 111.454 169.653 111.552 168.373 111.513C167.601 111.493 167.064 111.425 167.064 111.425C166.888 111.112 156.66 92.2073 154.686 89.0989C152.693 85.9612 150.212 87.056 150.212 87.056C150.212 86.9093 150.173 86.489 150.085 85.9319V85.9221C149.85 84.3679 149.264 81.7287 148.17 80.888C146.685 79.7444 144.839 79.5 144.839 79.5L144.458 79.4022L145.239 76.6164L152.195 78.5616C152.195 78.5616 154.979 79.0015 156.523 80.3504C158.066 81.6896 163.283 92.3344 165.169 95.4233C167.074 98.4828 173.433 109.822 173.433 109.822Z" fill="url(#paint50_linear_228_12)"/>
<path d="M152.752 117.583C152.586 118.287 152.009 118.697 151.277 118.903C150.036 119.264 148.346 119.079 147.369 118.922C146.89 118.844 146.587 118.775 146.587 118.775V118.277C146.412 117.808 146.236 117.124 146.05 116.273C144.536 109.02 143.071 89.6268 142.309 89.0892C141.459 88.4929 137.092 89.8321 130.576 88.5906C124.069 87.3492 123.366 83.3709 123.366 83.3709C123.317 80.9369 125.457 80.7805 125.457 80.7805L129.579 77.6232L139.124 78.0729L144.458 79.3925L144.839 79.4902C144.839 79.4902 146.685 79.7346 148.17 80.8783C149.655 82.0219 150.212 86.4988 150.212 87.0462C150.212 87.5936 150.857 98.2873 151.208 106.488C151.56 114.69 152.752 117.583 152.752 117.583Z" fill="url(#paint51_linear_228_12)"/>
<path d="M140.745 42.6683C140.745 42.6683 139.602 46.7346 138.215 48.5136C137.883 48.9339 137.541 49.2272 137.199 49.3054C136.017 49.5693 135.324 49.54 134.962 49.5889C134.776 49.6182 134.679 49.6573 134.649 49.7648C134.552 50.0972 134.083 51.3874 134.083 51.3874C134.171 51.4168 135.538 51.886 135.665 51.9153C135.802 51.9446 133.78 54.3004 131.621 52.9123C129.462 51.5243 129.53 50.7227 129.53 50.7227C129.53 50.7227 130.195 50.9867 130.595 50.7227C130.693 50.6543 130.81 50.4002 130.937 50.0385C131.26 49.1001 131.631 47.497 131.797 46.9301C131.826 46.8421 131.846 46.7737 131.855 46.7444C131.885 46.6857 131.934 46.5587 131.992 46.3827C132.256 45.6496 132.784 44.1345 133.047 43.8608C133.379 43.5284 133.477 41.2118 134.376 41.8667C134.493 41.9547 134.591 42.0133 134.679 42.0524C135.011 42.1893 135.177 42.0426 135.343 41.896C135.392 41.8569 135.441 41.8178 135.49 41.7885C135.587 41.7299 135.705 41.7103 135.851 41.7494C136.467 41.9449 138.196 43.0299 140.745 42.6683Z" fill="#EABEC2"/>
<path d="M142.338 41.505C141.439 42.4043 140.794 42.6487 140.745 42.6682C138.196 43.0299 136.476 41.9351 135.88 41.7494C135.734 41.7005 135.617 41.7298 135.519 41.7885C135.47 41.8178 135.421 41.8569 135.372 41.896C135.206 42.0329 135.03 42.1893 134.708 42.0524C134.62 42.0133 134.522 41.9547 134.405 41.8667C133.506 41.202 133.409 43.5284 133.077 43.8608C132.813 44.1247 132.285 45.6496 132.022 46.3827C132.022 46.3827 131.455 45.0924 131.093 44.33C130.732 43.5675 131.064 38.3282 133.878 37.5951C136.691 36.862 136.76 38.7583 138.479 38.6605C140.198 38.5628 141.097 37.5658 141.791 38.0349C142.465 38.4944 143.266 40.5764 142.338 41.505Z" fill="#0D133E"/>
<path d="M138.215 48.5136C137.883 48.9339 137.541 49.2272 137.199 49.3054C136.017 49.5693 135.324 49.54 134.962 49.5889L134.659 49.54C134.659 49.54 132.823 47.5557 132.793 47.0181C132.764 46.4902 133.36 46.8812 133.751 45.4248C134.151 43.9683 134.376 41.8765 134.376 41.8765C134.493 41.9645 134.591 42.0231 134.679 42.0622C135.011 42.199 135.177 42.0524 135.343 41.9058C135.392 41.8667 135.441 41.8276 135.49 41.7983C135.587 41.7396 135.705 41.7201 135.851 41.7592C135.851 41.7592 134.063 46.1188 134.825 46.7541C135.587 47.3797 136.32 46.9887 137.111 47.6828C137.932 48.3768 138.215 48.5136 138.215 48.5136Z" fill="#0D133E"/>
<path d="M128.182 79.109L129.599 79.2165C128.974 79.5 128.153 79.9985 127.303 80.5557C125.476 81.758 123.561 83.234 123.395 83.3611L123.386 83.3709C123.386 83.3709 121.1 78.7962 120.455 77.3007C120.201 76.7239 120.181 74.8472 120.24 72.7749C120.24 72.7749 132.617 76.2059 132.793 76.4014C132.979 76.5969 133.673 78.1413 134.024 78.3368L128.192 78.0631V79.109H128.182Z" fill="url(#paint52_linear_228_12)"/>
<path d="M138.977 77.6232L138.626 78.5518L138.127 78.5616C138.303 78.4639 138.362 78.4052 138.538 78.2586C138.684 78.1315 138.86 77.9067 138.977 77.6232Z" stroke="white" stroke-miterlimit="10"/>
<path d="M136.75 68.992C136.652 69.1386 136.896 73.2734 137.297 73.9674C137.434 74.2118 137.834 74.9449 138.293 75.7855C137.707 75.6389 137.004 75.6487 136.857 75.4141C136.603 75.0133 135.783 75.5118 135.148 75.2186C134.522 74.9253 124.177 71.1913 123.981 70.1943C123.786 69.1973 123.981 66.1182 123.981 66.1182V65.4144C123.981 65.4144 120.65 65.7663 119.028 65.4144L116.576 64.8768C116.576 64.8768 116.576 64.8768 118.12 63.7331C119.663 62.5894 121.998 54.0853 123.044 53.7823C124.089 53.4793 128.309 50.7521 129.56 50.0483C130.781 49.364 130.957 50.019 130.966 50.0483C130.839 50.4099 130.722 50.6641 130.625 50.7325C130.224 50.9964 129.56 50.7325 129.56 50.7325C129.56 50.7325 129.491 51.5243 131.65 52.9221C133.8 54.3101 135.822 51.9642 135.695 51.9251C135.568 51.8957 134.19 51.4265 134.112 51.3972C134.22 51.4168 136.388 51.7589 136.877 52.3454C137.375 52.9416 140.003 54.7793 140.159 56.2749C140.306 57.7704 139.114 66.2257 139.114 66.2257L137.668 65.9813C137.649 65.9618 136.848 68.8454 136.75 68.992Z" fill="url(#paint53_linear_228_12)"/>
<path d="M139.094 77.2616C138.997 77.7308 138.733 78.0826 138.547 78.239C138.254 78.4834 138.303 78.4834 137.502 78.8353C136.711 79.1872 134.366 78.5323 134.024 78.3368C133.673 78.1413 132.979 76.5969 132.793 76.4014C132.608 76.2059 120.24 72.7749 120.24 72.7749C120.24 72.7749 119.214 72.3252 118.52 71.6312C117.827 70.9372 119.028 65.4046 119.028 65.4046C119.927 65.6001 121.354 65.5806 122.448 65.5219H122.457C123.288 65.4731 123.923 65.4144 123.981 65.4046V66.1084C123.981 66.1084 123.786 69.1875 123.981 70.1845C124.177 71.1816 134.522 74.9058 135.148 75.2088C135.148 75.2088 135.148 75.2088 135.157 75.2088C135.236 75.2479 135.314 75.2675 135.392 75.287C135.978 75.4043 136.642 75.0622 136.857 75.4141C137.004 75.6585 137.717 75.6389 138.293 75.7855C138.674 75.8833 139.007 76.0495 139.085 76.4111C139.153 76.7239 139.143 77.0074 139.094 77.2616Z" fill="#EABEC2"/>
<path d="M142.865 68.2296L139.651 78.3075L139.358 79.2361L139.134 79.9399L129.599 79.2165L128.182 79.109V78.0729L134.014 78.3466C134.073 78.3759 134.181 78.4248 134.327 78.4736L134.356 78.4834C134.454 78.5128 134.571 78.5519 134.698 78.591C135.089 78.6985 135.578 78.8158 136.056 78.8842C136.105 78.894 136.154 78.894 136.203 78.9037C136.242 78.9135 136.281 78.9135 136.32 78.9135C136.369 78.9233 136.408 78.9233 136.457 78.9233C136.506 78.9233 136.545 78.9331 136.594 78.9331C136.74 78.9428 136.877 78.9428 137.004 78.9331C137.189 78.9233 137.356 78.894 137.473 78.8353C137.795 78.6985 137.981 78.6105 138.098 78.5421H138.108L138.606 78.5323L138.958 77.6037C138.977 77.5646 138.987 77.5255 139.007 77.4766L141.556 68.21H142.865V68.2296Z" fill="#B8C7E6"/>
<path d="M141.576 68.2296L156.239 67.9461L152.254 79.588L139.134 79.9399L142.758 68.5717L141.576 68.2296Z" fill="#BECDE9"/>
<path d="M139.085 66.2062C139.085 66.2062 138.85 70.6928 138.967 71.2891C139.075 71.8854 140.032 73.8208 140.032 73.8208L139.163 76.9879L139.134 76.939V76.6653C139.134 76.6653 139.261 76.0201 138.293 75.7758L137.766 74.7983L137.346 74.0456L137.297 73.9576L137.199 73.7133L137.121 73.3809L137.053 72.9899L136.887 71.729L136.808 70.8297L136.76 70.0281L136.74 69.2266L136.75 69.0311L136.799 68.9138L136.975 68.3566L137.434 66.7731L137.658 65.9618L139.085 66.2062Z" fill="#EABEC2"/>
<path d="M123.981 65.8152C123.981 65.8152 124.548 66.0498 124.91 64.9843C125.271 63.9189 125.838 59.9112 126.365 58.357C126.893 56.8028 126.502 53.362 126.502 53.362C126.502 53.362 126.336 56.5681 126.072 57.966C125.799 59.3442 125.037 65.4437 123.981 65.8152Z" fill="url(#paint54_linear_228_12)"/>
<path d="M137.697 55.0042C137.58 54.5936 139.124 57.1253 138.215 60.742C137.297 64.3587 136.857 65.4046 136.857 65.4046L137.649 65.9618L136.74 69.0311V69.6274L136.848 71.3869L136.926 72.5012L137.189 73.7133C137.189 73.7133 136.955 74.4268 135.9 74.0749C134.845 73.723 135.88 69.4123 135.499 66.6949C135.109 63.9873 139.417 61.0353 137.697 55.0042Z" fill="url(#paint55_linear_228_12)"/>
<path d="M127.303 80.5459C127.303 80.5557 127.303 80.5557 127.303 80.5459L123.395 83.3513L123.386 83.3611C123.386 83.3611 121.1 78.7864 120.455 77.2909C120.201 76.7141 120.181 74.8374 120.24 72.7651C120.24 72.7651 122.555 78.9037 125.076 79.6271C127.479 80.3308 127.323 80.5361 127.303 80.5459Z" fill="url(#paint56_linear_228_12)"/>
<path d="M135.148 75.2088C133.555 74.7005 124.372 71.7387 123.278 70.6439C122.086 69.4514 122.438 65.5121 122.438 65.5121H122.448L123.972 65.3948V66.0986C123.972 66.0986 123.776 69.1777 123.972 70.1748C124.177 71.1816 134.513 74.9156 135.148 75.2088Z" fill="#DAB4B9"/>
<path d="M146.06 116.273C144.546 109.02 143.08 89.6268 142.318 89.0892C141.468 88.4929 137.102 89.832 130.585 88.5906C124.079 87.3492 123.376 83.3708 123.376 83.3708C123.376 83.3708 125.066 87.9944 132.774 88.2485C140.482 88.4929 142.318 87.5545 143.266 88.6004C144.087 89.5095 144.839 109.431 146.06 116.273Z" fill="url(#paint57_linear_228_12)"/>
<path d="M167.064 111.415C166.888 111.102 156.66 92.1976 154.686 89.0891C152.693 85.9514 150.212 87.0462 150.212 87.0462L150.085 85.9221V85.9123V85.9025C150.085 85.9025 151.765 84.7002 154.149 87.2221C156.533 89.7343 166.907 111.083 167.064 111.415Z" fill="url(#paint58_linear_228_12)"/>
<path d="M167.074 111.415H167.064H167.074Z" stroke="white" stroke-miterlimit="10"/>
<path d="M151.277 118.903V121.542C149.821 123.262 147.369 121.845 147.369 121.845V118.922C148.356 119.078 150.046 119.264 151.277 118.903Z" fill="#EABEC2"/>
<path d="M156.816 128.443C156.191 128.902 154.334 128.511 153.27 127.983C152.205 127.456 150.622 126.595 149.333 126.488C148.033 126.39 147.076 126.028 147.076 126.028V121.718L147.379 121.855C147.379 121.855 149.821 123.282 151.286 121.552C151.286 121.552 152.713 123.702 154.999 124.865C157.275 126.019 157.441 127.974 156.816 128.443Z" fill="url(#paint59_linear_228_12)"/>
<path d="M174.176 113.194C173.551 115.051 170.336 115.481 170.336 115.481L168.383 111.523C168.383 111.523 168.383 111.523 168.383 111.513C169.662 111.552 171.567 111.464 172.681 110.711L174.176 113.194Z" fill="#EABEC2"/>
<path d="M180.379 118.629H170.395L170.327 115.481C170.327 115.481 173.541 115.051 174.166 113.194C174.166 113.194 176.051 115.022 177.878 115.481C179.705 115.941 180.467 116.84 180.36 118.267L180.379 118.629Z" fill="url(#paint60_linear_228_12)"/>
<defs>
<linearGradient id="paint0_linear_228_12" x1="0.926367" y1="175.751" x2="97.1074" y2="175.751" gradientUnits="userSpaceOnUse">
<stop stop-color="white"/>
<stop offset="1" stop-color="#83A3D5"/>
</linearGradient>
<linearGradient id="paint1_linear_228_12" x1="195.609" y1="84.2796" x2="251.429" y2="84.2796" gradientUnits="userSpaceOnUse">
<stop stop-color="white"/>
<stop offset="1" stop-color="#83A3D5"/>
</linearGradient>
<linearGradient id="paint2_linear_228_12" x1="118.433" y1="17.9968" x2="313.204" y2="18.8991" gradientUnits="userSpaceOnUse">
<stop offset="1e-08" stop-color="#005E98"/>
<stop offset="1" stop-color="#1D3557"/>
</linearGradient>
<linearGradient id="paint3_linear_228_12" x1="154.166" y1="18.3731" x2="244.958" y2="18.3731" gradientUnits="userSpaceOnUse">
<stop offset="9.58467e-09" stop-color="#166AB4"/>
<stop offset="1" stop-color="#172D4D"/>
</linearGradient>
<linearGradient id="paint4_linear_228_12" x1="70.2156" y1="189.798" x2="289.776" y2="175.725" gradientUnits="userSpaceOnUse">
<stop stop-color="#166AB4"/>
<stop offset="0.9807" stop-color="#172D4D"/>
</linearGradient>
<linearGradient id="paint5_linear_228_12" x1="150.064" y1="161.658" x2="157.198" y2="287.962" gradientUnits="userSpaceOnUse">
<stop stop-color="#EDAB86"/>
<stop offset="1" stop-color="#FF5D02"/>
</linearGradient>
<linearGradient id="paint6_linear_228_12" x1="166.848" y1="149.748" x2="175.066" y2="295.236" gradientUnits="userSpaceOnUse">
<stop offset="9.58467e-09" stop-color="#166AB4"/>
<stop offset="1" stop-color="#172D4D"/>
</linearGradient>
<linearGradient id="paint7_linear_228_12" x1="184.982" y1="178.597" x2="190.575" y2="277.615" gradientUnits="userSpaceOnUse">
<stop stop-color="#EDAB86"/>
<stop offset="1" stop-color="#FF5D02"/>
</linearGradient>
<linearGradient id="paint8_linear_228_12" x1="200.88" y1="139.932" x2="209.99" y2="301.231" gradientUnits="userSpaceOnUse">
<stop offset="9.58467e-09" stop-color="#166AB4"/>
<stop offset="1" stop-color="#172D4D"/>
</linearGradient>
<linearGradient id="paint9_linear_228_12" x1="218.945" y1="166.699" x2="225.62" y2="284.883" gradientUnits="userSpaceOnUse">
<stop stop-color="#EDAB86"/>
<stop offset="1" stop-color="#FF5D02"/>
</linearGradient>
<linearGradient id="paint10_linear_228_12" x1="236.237" y1="170.12" x2="242.601" y2="282.793" gradientUnits="userSpaceOnUse">
<stop offset="9.58467e-09" stop-color="#166AB4"/>
<stop offset="1" stop-color="#172D4D"/>
</linearGradient>
<linearGradient id="paint11_linear_228_12" x1="83.1127" y1="179.837" x2="-7.12506" y2="178.746" gradientUnits="userSpaceOnUse">
<stop offset="9.58467e-09" stop-color="#166AB4"/>
<stop offset="1" stop-color="#172D4D"/>
</linearGradient>
<linearGradient id="paint12_linear_228_12" x1="105.445" y1="173.52" x2="187.527" y2="169.675" gradientUnits="userSpaceOnUse">
<stop stop-color="#EDAB86"/>
<stop offset="1" stop-color="#FF5D02"/>
</linearGradient>
<linearGradient id="paint13_linear_228_12" x1="225.702" y1="285.712" x2="356.377" y2="280.992" gradientUnits="userSpaceOnUse">
<stop stop-color="#EDAB86"/>
<stop offset="1" stop-color="#FF5D02"/>
</linearGradient>
<linearGradient id="paint14_linear_228_12" x1="96.1308" y1="282.144" x2="215.653" y2="281.745" gradientUnits="userSpaceOnUse">
<stop offset="9.58467e-09" stop-color="#166AB4"/>
<stop offset="1" stop-color="#172D4D"/>
</linearGradient>
<linearGradient id="paint15_linear_228_12" x1="73.6394" y1="269.094" x2="83.941" y2="269.06" gradientUnits="userSpaceOnUse">
<stop stop-color="#EDAB86"/>
<stop offset="1" stop-color="#FF5D02"/>
</linearGradient>
<linearGradient id="paint16_linear_228_12" x1="85.823" y1="269.094" x2="96.1246" y2="269.06" gradientUnits="userSpaceOnUse">
<stop stop-color="#EDAB86"/>
<stop offset="1" stop-color="#FF5D02"/>
</linearGradient>
<linearGradient id="paint17_linear_228_12" x1="97.8567" y1="269.094" x2="108.158" y2="269.06" gradientUnits="userSpaceOnUse">
<stop stop-color="#EDAB86"/>
<stop offset="1" stop-color="#FF5D02"/>
</linearGradient>
<linearGradient id="paint18_linear_228_12" x1="110.04" y1="269.094" x2="120.342" y2="269.06" gradientUnits="userSpaceOnUse">
<stop stop-color="#EDAB86"/>
<stop offset="1" stop-color="#FF5D02"/>
</linearGradient>
<linearGradient id="paint19_linear_228_12" x1="122.473" y1="269.094" x2="132.775" y2="269.06" gradientUnits="userSpaceOnUse">
<stop stop-color="#EDAB86"/>
<stop offset="1" stop-color="#FF5D02"/>
</linearGradient>
<linearGradient id="paint20_linear_228_12" x1="134.507" y1="269.094" x2="144.809" y2="269.06" gradientUnits="userSpaceOnUse">
<stop stop-color="#EDAB86"/>
<stop offset="1" stop-color="#FF5D02"/>
</linearGradient>
<linearGradient id="paint21_linear_228_12" x1="73.6394" y1="280.885" x2="83.941" y2="280.851" gradientUnits="userSpaceOnUse">
<stop stop-color="#EDAB86"/>
<stop offset="1" stop-color="#FF5D02"/>
</linearGradient>
<linearGradient id="paint22_linear_228_12" x1="85.823" y1="280.885" x2="96.1246" y2="280.851" gradientUnits="userSpaceOnUse">
<stop stop-color="#EDAB86"/>
<stop offset="1" stop-color="#FF5D02"/>
</linearGradient>
<linearGradient id="paint23_linear_228_12" x1="97.8567" y1="280.885" x2="108.158" y2="280.851" gradientUnits="userSpaceOnUse">
<stop stop-color="#EDAB86"/>
<stop offset="1" stop-color="#FF5D02"/>
</linearGradient>
<linearGradient id="paint24_linear_228_12" x1="110.04" y1="280.885" x2="120.342" y2="280.851" gradientUnits="userSpaceOnUse">
<stop stop-color="#EDAB86"/>
<stop offset="1" stop-color="#FF5D02"/>
</linearGradient>
<linearGradient id="paint25_linear_228_12" x1="122.473" y1="280.885" x2="132.775" y2="280.851" gradientUnits="userSpaceOnUse">
<stop stop-color="#EDAB86"/>
<stop offset="1" stop-color="#FF5D02"/>
</linearGradient>
<linearGradient id="paint26_linear_228_12" x1="134.507" y1="280.885" x2="144.809" y2="280.851" gradientUnits="userSpaceOnUse">
<stop stop-color="#EDAB86"/>
<stop offset="1" stop-color="#FF5D02"/>
</linearGradient>
<linearGradient id="paint27_linear_228_12" x1="73.6394" y1="292.676" x2="83.941" y2="292.642" gradientUnits="userSpaceOnUse">
<stop stop-color="#EDAB86"/>
<stop offset="1" stop-color="#FF5D02"/>
</linearGradient>
<linearGradient id="paint28_linear_228_12" x1="85.823" y1="292.676" x2="96.1246" y2="292.642" gradientUnits="userSpaceOnUse">
<stop stop-color="#EDAB86"/>
<stop offset="1" stop-color="#FF5D02"/>
</linearGradient>
<linearGradient id="paint29_linear_228_12" x1="97.8567" y1="292.676" x2="108.158" y2="292.642" gradientUnits="userSpaceOnUse">
<stop stop-color="#EDAB86"/>
<stop offset="1" stop-color="#FF5D02"/>
</linearGradient>
<linearGradient id="paint30_linear_228_12" x1="110.04" y1="292.676" x2="120.342" y2="292.642" gradientUnits="userSpaceOnUse">
<stop stop-color="#EDAB86"/>
<stop offset="1" stop-color="#FF5D02"/>
</linearGradient>
<linearGradient id="paint31_linear_228_12" x1="122.473" y1="292.676" x2="132.775" y2="292.642" gradientUnits="userSpaceOnUse">
<stop stop-color="#EDAB86"/>
<stop offset="1" stop-color="#FF5D02"/>
</linearGradient>
<linearGradient id="paint32_linear_228_12" x1="134.507" y1="292.676" x2="144.809" y2="292.642" gradientUnits="userSpaceOnUse">
<stop stop-color="#EDAB86"/>
<stop offset="1" stop-color="#FF5D02"/>
</linearGradient>
<linearGradient id="paint33_linear_228_12" x1="73.6394" y1="304.467" x2="83.941" y2="304.433" gradientUnits="userSpaceOnUse">
<stop stop-color="#EDAB86"/>
<stop offset="1" stop-color="#FF5D02"/>
</linearGradient>
<linearGradient id="paint34_linear_228_12" x1="85.823" y1="304.467" x2="96.1246" y2="304.433" gradientUnits="userSpaceOnUse">
<stop stop-color="#EDAB86"/>
<stop offset="1" stop-color="#FF5D02"/>
</linearGradient>
<linearGradient id="paint35_linear_228_12" x1="97.8567" y1="304.467" x2="108.158" y2="304.433" gradientUnits="userSpaceOnUse">
<stop stop-color="#EDAB86"/>
<stop offset="1" stop-color="#FF5D02"/>
</linearGradient>
<linearGradient id="paint36_linear_228_12" x1="110.04" y1="304.467" x2="120.342" y2="304.433" gradientUnits="userSpaceOnUse">
<stop stop-color="#EDAB86"/>
<stop offset="1" stop-color="#FF5D02"/>
</linearGradient>
<linearGradient id="paint37_linear_228_12" x1="122.473" y1="304.467" x2="132.775" y2="304.433" gradientUnits="userSpaceOnUse">
<stop stop-color="#EDAB86"/>
<stop offset="1" stop-color="#FF5D02"/>
</linearGradient>
<linearGradient id="paint38_linear_228_12" x1="134.507" y1="304.467" x2="144.809" y2="304.433" gradientUnits="userSpaceOnUse">
<stop stop-color="#EDAB86"/>
<stop offset="1" stop-color="#FF5D02"/>
</linearGradient>
<linearGradient id="paint39_linear_228_12" x1="70.7446" y1="243.221" x2="77.1863" y2="243.2" gradientUnits="userSpaceOnUse">
<stop stop-color="#EDAB86"/>
<stop offset="1" stop-color="#FF5D02"/>
</linearGradient>
<linearGradient id="paint40_linear_228_12" x1="82.304" y1="243.221" x2="88.7457" y2="243.2" gradientUnits="userSpaceOnUse">
<stop stop-color="#EDAB86"/>
<stop offset="1" stop-color="#FF5D02"/>
</linearGradient>
<linearGradient id="paint41_linear_228_12" x1="94.5001" y1="243.221" x2="100.942" y2="243.2" gradientUnits="userSpaceOnUse">
<stop stop-color="#EDAB86"/>
<stop offset="1" stop-color="#FF5D02"/>
</linearGradient>
<linearGradient id="paint42_linear_228_12" x1="106.059" y1="243.221" x2="112.501" y2="243.2" gradientUnits="userSpaceOnUse">
<stop stop-color="#EDAB86"/>
<stop offset="1" stop-color="#FF5D02"/>
</linearGradient>
<linearGradient id="paint43_linear_228_12" x1="118.068" y1="243.221" x2="124.51" y2="243.2" gradientUnits="userSpaceOnUse">
<stop stop-color="#EDAB86"/>
<stop offset="1" stop-color="#FF5D02"/>
</linearGradient>
<linearGradient id="paint44_linear_228_12" x1="129.628" y1="243.221" x2="136.069" y2="243.2" gradientUnits="userSpaceOnUse">
<stop stop-color="#EDAB86"/>
<stop offset="1" stop-color="#FF5D02"/>
</linearGradient>
<linearGradient id="paint45_linear_228_12" x1="140.775" y1="243.221" x2="147.217" y2="243.2" gradientUnits="userSpaceOnUse">
<stop stop-color="#EDAB86"/>
<stop offset="1" stop-color="#FF5D02"/>
</linearGradient>
<linearGradient id="paint46_linear_228_12" x1="297.543" y1="-8.46548" x2="299.742" y2="10.2165" gradientUnits="userSpaceOnUse">
<stop stop-color="#EDAB86"/>
<stop offset="1" stop-color="#FF5D02"/>
</linearGradient>
<linearGradient id="paint47_linear_228_12" x1="301.339" y1="-28.3715" x2="298.751" y2="114.931" gradientUnits="userSpaceOnUse">
<stop stop-color="#EDAB86"/>
<stop offset="1" stop-color="#FF5D02"/>
</linearGradient>
<linearGradient id="paint48_linear_228_12" x1="283.203" y1="-13.1373" x2="308.825" y2="141.284" gradientUnits="userSpaceOnUse">
<stop offset="9.58467e-09" stop-color="#166AB4"/>
<stop offset="1" stop-color="#172D4D"/>
</linearGradient>
<linearGradient id="paint49_linear_228_12" x1="298.581" y1="0.188056" x2="302.581" y2="18.7234" gradientUnits="userSpaceOnUse">
<stop stop-color="#EDAB86"/>
<stop offset="1" stop-color="#FF5D02"/>
</linearGradient>
<linearGradient id="paint50_linear_228_12" x1="165.229" y1="98.8301" x2="137.182" y2="74.6761" gradientUnits="userSpaceOnUse">
<stop stop-color="#EDAB86"/>
<stop offset="1" stop-color="#FF5D02"/>
</linearGradient>
<linearGradient id="paint51_linear_228_12" x1="136.662" y1="83.6958" x2="148.999" y2="106.766" gradientUnits="userSpaceOnUse">
<stop stop-color="#EDAB86"/>
<stop offset="1" stop-color="#FF5D02"/>
</linearGradient>
<linearGradient id="paint52_linear_228_12" x1="133.205" y1="97.5215" x2="124.183" y2="67.8174" gradientUnits="userSpaceOnUse">
<stop stop-color="#67B9E7"/>
<stop offset="1" stop-color="#253C97"/>
</linearGradient>
<linearGradient id="paint53_linear_228_12" x1="126.825" y1="76.0634" x2="130.275" y2="43.4391" gradientUnits="userSpaceOnUse">
<stop offset="1e-08" stop-color="#253C97"/>
<stop offset="1" stop-color="#67B9E7"/>
</linearGradient>
<linearGradient id="paint54_linear_228_12" x1="123.911" y1="65.4226" x2="128.787" y2="48.4155" gradientUnits="userSpaceOnUse">
<stop offset="1e-08" stop-color="#253C97"/>
<stop offset="1" stop-color="#67B9E7"/>
</linearGradient>
<linearGradient id="paint55_linear_228_12" x1="135.225" y1="35.7823" x2="137.315" y2="71.4903" gradientUnits="userSpaceOnUse">
<stop stop-color="#67B9E7"/>
<stop offset="1" stop-color="#253C97"/>
</linearGradient>
<linearGradient id="paint56_linear_228_12" x1="120.969" y1="73.7874" x2="131.018" y2="92.482" gradientUnits="userSpaceOnUse">
<stop offset="1e-08" stop-color="#253C97"/>
<stop offset="1" stop-color="#67B9E7"/>
</linearGradient>
<linearGradient id="paint57_linear_228_12" x1="144.103" y1="120.58" x2="137.038" y2="97.9042" gradientUnits="userSpaceOnUse">
<stop stop-color="#EDAB86"/>
<stop offset="1" stop-color="#FF5D02"/>
</linearGradient>
<linearGradient id="paint58_linear_228_12" x1="160.708" y1="103.705" x2="152.169" y2="85.2135" gradientUnits="userSpaceOnUse">
<stop stop-color="#EDAB86"/>
<stop offset="1" stop-color="#FF5D02"/>
</linearGradient>
<linearGradient id="paint59_linear_228_12" x1="132.24" y1="89.3639" x2="172.606" y2="164.876" gradientUnits="userSpaceOnUse">
<stop offset="1e-08" stop-color="#253C97"/>
<stop offset="1" stop-color="#67B9E7"/>
</linearGradient>
<linearGradient id="paint60_linear_228_12" x1="153.913" y1="77.779" x2="194.278" y2="153.291" gradientUnits="userSpaceOnUse">
<stop offset="1e-08" stop-color="#253C97"/>
<stop offset="1" stop-color="#67B9E7"/>
</linearGradient>
</defs>
</svg>
