<svg width="51" height="79" viewBox="0 0 51 79" fill="none" xmlns="http://www.w3.org/2000/svg">
<path fill-rule="evenodd" clip-rule="evenodd" d="M8.19706 62.0635C12.0408 62.1033 15.7886 61.7069 18.3688 60.9886C27.0146 57.9892 38.0413 50.7711 40.0394 45.1774C40.558 43.8477 34.0667 47.1364 30.2484 49.3846C34.6619 46.0817 39.6081 39.3711 39.2706 37.0945C39.3612 35.2913 34.001 39.4504 30.2905 43.1502C33.5729 38.9769 37.9238 33.3209 36.9911 32.099C36.135 31.152 30.2561 36.6407 26.4238 40.9671C30.0264 35.8157 35.0944 28.4785 32.5119 27.7158C32.4807 26.5392 17.9139 41.2618 16.8453 42.7446C17.364 41.4149 18.9933 32.3681 15.2172 28.3819C14.6976 29.8952 14.2045 31.4815 13.7072 33.0814C11.5901 39.892 9.39569 46.9512 4.75383 49.6947L8.19706 62.0635Z" fill="url(#paint0_radial_842_82)"/>
<path d="M10.1577 9.0322C10.0795 9.56732 10.3402 10.0933 10.8133 10.3731C11.2158 10.6112 11.6658 10.5915 12.2085 10.3025C13.7553 9.4923 16.2943 8.74485 18.0041 8.59348C20.7054 8.36135 23.84 8.81449 26.8208 9.882C27.9221 10.2761 28.1741 10.3012 28.665 10.0674C28.9919 9.91768 29.3266 9.44849 29.347 9.10789C29.37 8.7307 29.2238 8.3011 28.9973 8.07178C28.7268 7.78787 27.9073 7.46518 26.2286 6.96777C22.8711 5.97296 19.4816 5.69306 16.5131 6.16744C15.445 6.34575 13.5054 6.88546 12.547 7.28116C10.8995 7.95551 10.2357 8.44926 10.1577 9.0322Z" fill="#888888"/>
<path d="M8.75342 18.0934C8.63447 18.4135 8.68471 18.8423 8.87919 19.1828C9.22091 19.7715 10.0753 19.9552 10.6926 19.5727C12.1119 18.713 13.6208 18.1368 15.2424 17.8439C16.4124 17.6362 18.7499 17.6094 20.1379 17.7884C22.217 18.0483 24.7523 18.7333 26.7903 19.5852C27.7918 20.0055 28.1056 20.0607 28.5216 19.883C29.0996 19.6458 29.4358 18.964 29.2738 18.368C29.1417 17.8703 28.7563 17.5837 27.6152 17.1182C23.5863 15.4836 19.2987 14.7563 15.8737 15.1292C12.8543 15.452 9.1497 16.9992 8.75342 18.0934Z" fill="#888888"/>
<path d="M27.3145 68.5184C27.3841 69.0173 27.7304 69.426 28.1967 69.5648C28.622 69.6955 29.2658 69.5968 30.998 69.1389C37.4041 67.4558 41.907 64.2973 44.2935 59.815C44.8758 58.724 44.9601 58.3683 44.7552 57.8316C44.6053 57.4416 44.5571 57.3863 44.1448 57.181C43.778 56.9945 43.6365 56.9718 43.3527 57.0146C42.8293 57.1008 42.5706 57.3846 42.1208 58.3261C40.9394 60.8294 38.6902 63.0173 35.6825 64.5913C33.8722 65.5405 31.3664 66.434 29.1604 66.9008C28.5665 67.0289 27.9721 67.2012 27.8494 67.2838C27.5027 67.5225 27.2547 68.1035 27.3145 68.5184Z" fill="#888888"/>
<path d="M34.1966 73.7382C34.2528 74.3557 34.6812 74.7805 35.3171 74.8737C35.7963 74.9379 37.109 74.5291 39.0919 73.6776C41.6027 72.5999 43.3593 71.5222 45.1347 69.9465C45.6973 69.4418 46.388 68.7769 46.67 68.4583C48.3681 66.5315 49.8579 63.9688 49.7659 63.1148C49.7069 62.4606 49.0586 61.9453 48.3634 61.9962C47.7931 62.0453 47.6392 62.2038 47.0088 63.3903C45.8657 65.5634 44.5272 67.1769 42.6416 68.654C40.8435 70.0695 38.4715 71.2842 35.8456 72.146C35.1991 72.3589 34.7003 72.5794 34.5771 72.7061C34.2893 72.9957 34.1501 73.3553 34.1966 73.7382Z" fill="#888888"/>
<defs>
<radialGradient id="paint0_radial_842_82" cx="0" cy="0" r="1" gradientUnits="userSpaceOnUse" gradientTransform="translate(-14.2383 52.1362) rotate(-15.5562) scale(55.6203 50.1035)">
<stop stop-color="#FFB600" stop-opacity="0.31"/>
<stop offset="1" stop-color="#F9AD03"/>
</radialGradient>
</defs>
</svg>
