<svg width="35" height="35" viewBox="0 0 35 35" fill="none" xmlns="http://www.w3.org/2000/svg">
<path d="M9.93774 13.1696L16.4071 19.5138L16.4071 19.5138C16.6346 19.7368 16.7483 19.8484 16.8823 19.8808C16.9597 19.8996 17.0404 19.8996 17.1177 19.8808C17.2517 19.8484 17.3654 19.7368 17.5929 19.5138L24.0623 13.1696C25.7934 11.472 26.0056 8.75708 24.5593 6.81112L24.1705 6.28797C22.3886 3.89044 18.6886 4.281 17.4465 6.99772C17.2717 7.38012 16.7284 7.38012 16.5535 6.99772C15.3115 4.281 11.6114 3.89044 9.82953 6.28797L9.44071 6.81112C7.99442 8.75709 8.20664 11.472 9.93774 13.1696Z" stroke="#222222"/>
<path fill-rule="evenodd" clip-rule="evenodd" d="M9.57869 13.018L9.57115 13.0101L9.59988 12.9936L9.60512 13.0039L9.57869 13.018ZM24.5956 12.6157L30.9119 15.8597C30.9615 15.8852 31.0066 15.9188 31.0451 15.9591L34.8614 19.9558C34.9693 20.0687 35.0181 20.2256 34.9935 20.3798C34.969 20.5341 34.8737 20.6679 34.7361 20.7417L31.1835 22.6469V27.519C31.1835 27.7051 31.08 27.8759 30.915 27.9621L17.558 34.9414C17.4137 35.0167 17.2419 35.0172 17.0972 34.9426L4.26056 28.3212C4.09426 28.2355 3.98978 28.064 3.98978 27.8769V22.8941L0.265985 20.9219C0.127548 20.8486 0.0314767 20.7146 0.0064349 20.56C-0.018607 20.4053 0.0302756 20.2479 0.138498 20.1346L4.12827 15.959C4.16489 15.9207 4.20737 15.8884 4.25411 15.8634L9.57869 13.018L9.65081 13.093C9.78497 13.3527 9.93039 13.6155 10.0867 13.8803L5.55062 16.3044L17.331 22.5999L29.589 16.3044L24.0881 13.4793C24.2556 13.2035 24.4075 12.933 24.5425 12.6713L24.5956 12.6157ZM24.5956 12.6157L24.5761 12.6057C24.5896 12.5792 24.6028 12.5528 24.616 12.5264L24.6485 12.5603L24.5956 12.6157ZM4.98978 27.5722V23.4238L13.2183 27.7819C13.4184 27.8879 13.6648 27.8461 13.8188 27.6801L16.8264 24.4384V33.6777L4.98978 27.5722ZM17.8264 33.6728V24.3986L21.015 27.688C21.1705 27.8484 21.4135 27.8862 21.6103 27.7806L30.1835 23.1831V27.2161L17.8264 33.6728ZM33.6843 20.1711L31.1835 21.5122V17.5521L33.6843 20.1711ZM4.98978 17.1385L16.5188 23.2997L13.347 26.7184L4.98978 22.2922V17.1385ZM3.98978 21.7625V17.5515L1.31814 20.3476L3.98978 21.7625ZM30.1835 17.1233L18.1551 23.3009L21.4703 26.721L30.1835 22.0484V17.1233Z" fill="black"/>
</svg>
