<svg width="35" height="35" viewBox="0 0 35 35" fill="none" xmlns="http://www.w3.org/2000/svg">
<circle cx="14.0805" cy="10.4598" r="4.78017" stroke="#222222" stroke-linecap="round"/>
<path d="M20.3834 11.1498C20.9006 10.254 21.7524 9.60033 22.7516 9.33261C23.7507 9.06489 24.8153 9.20504 25.7111 9.72223C26.6069 10.2394 27.2605 11.0913 27.5282 12.0904C27.796 13.0896 27.6558 14.1541 27.1386 15.0499C26.6214 15.9457 25.7696 16.5994 24.7704 16.8671C23.7713 17.1348 22.7067 16.9947 21.8109 16.4775C20.9151 15.9603 20.2615 15.1084 19.9937 14.1093C19.726 13.1102 19.8662 12.0456 20.3834 11.1498L20.3834 11.1498Z" stroke="#222222"/>
<path d="M23.6946 27.9442L24.1918 27.8908L23.6946 27.9442ZM22.7607 28.4404H5.40012V29.4404H22.7607V28.4404ZM4.96338 27.9975C5.10099 26.7153 5.53103 24.4185 6.85266 22.4547C8.15478 20.5198 10.3376 18.88 14.0804 18.88V17.88C9.97966 17.88 7.49652 19.7069 6.02304 21.8963C4.56907 24.0568 4.11384 26.5421 3.96909 27.8908L4.96338 27.9975ZM14.0804 18.88C17.8233 18.88 20.0061 20.5198 21.3082 22.4547C22.6298 24.4185 23.0599 26.7153 23.1975 27.9975L24.1918 27.8908C24.047 26.5421 23.5918 24.0568 22.1378 21.8963C20.6644 19.7069 18.1812 17.88 14.0804 17.88V18.88ZM5.40012 28.4404C5.11577 28.4404 4.93922 28.2227 4.96338 27.9975L3.96909 27.8908C3.87539 28.7639 4.5799 29.4404 5.40012 29.4404V28.4404ZM22.7607 29.4404C23.581 29.4404 24.2855 28.7639 24.1918 27.8908L23.1975 27.9975C23.2217 28.2227 23.0451 28.4404 22.7607 28.4404V29.4404Z" fill="#222222"/>
<path d="M29.6961 28.9404V29.4404V28.9404ZM30.6265 27.8502L31.1169 27.7527L30.6265 27.8502ZM20.7693 20.9863L20.5014 20.5641L19.9862 20.891L20.408 21.3319L20.7693 20.9863ZM23.6947 27.9442L24.1918 27.8908V27.8908L23.6947 27.9442ZM29.6961 28.4404L22.7608 28.4404L22.7608 29.4404L29.6961 29.4404V28.4404ZM30.136 27.9476C30.1846 28.1922 29.9999 28.4404 29.6961 28.4404V29.4404C30.5754 29.4404 31.2989 28.6686 31.1169 27.7527L30.136 27.9476ZM23.7609 20.6401C25.94 20.6401 27.4015 21.8407 28.4003 23.3835C29.4071 24.9386 29.9068 26.794 30.136 27.9476L31.1169 27.7527C30.878 26.5506 30.3475 24.551 29.2397 22.84C28.124 21.1166 26.3868 19.6401 23.7609 19.6401V20.6401ZM21.0372 21.4085C21.7828 20.9353 22.6771 20.6401 23.7609 20.6401V19.6401C22.4829 19.6401 21.4034 19.9917 20.5014 20.5641L21.0372 21.4085ZM20.408 21.3319C22.4427 23.4589 23.0314 26.4493 23.1975 27.9975L24.1918 27.8908C24.019 26.2807 23.3998 23.0127 21.1306 20.6407L20.408 21.3319ZM23.1975 27.9975C23.2217 28.2227 23.0451 28.4404 22.7608 28.4404V29.4404C23.581 29.4404 24.2855 28.7639 24.1918 27.8908L23.1975 27.9975Z" fill="#222222"/>
</svg>
