<svg width="35" height="35" viewBox="0 0 35 35" fill="none" xmlns="http://www.w3.org/2000/svg">
<path d="M10.8978 31.2882L11.2254 30.9105L10.8978 31.2882ZM29.8913 28.5304L29.5136 28.2028L29.8913 28.5304ZM25.4735 5.0974L25.4027 5.59237L25.4735 5.0974ZM29.8913 6.4696L29.5136 6.7972V6.79721L29.8913 6.4696ZM14.7032 4.06387L25.4027 5.59237L25.5442 4.60242L14.8446 3.07392L14.7032 4.06387ZM30.1249 11.0371V23.9629H31.1249V11.0371H30.1249ZM25.4027 29.4076L14.7032 30.9361L14.8446 31.9261L25.5442 30.3976L25.4027 29.4076ZM10.7083 10.4007V7.5287H9.70825V10.4007H10.7083ZM10.7083 27.4713V24.8879H9.70825V27.4713H10.7083ZM14.7032 30.9361C13.6261 31.09 12.8707 31.1967 12.297 31.1977C11.7373 31.1987 11.4407 31.0972 11.2254 30.9105L10.5702 31.6659C11.0446 32.0773 11.6238 32.1989 12.2988 32.1977C12.9596 32.1965 13.7975 32.0757 14.8446 31.9261L14.7032 30.9361ZM9.70825 27.4713C9.70825 28.5291 9.70708 29.3757 9.79935 30.03C9.8936 30.6983 10.0959 31.2545 10.5702 31.6659L11.2254 30.9105C11.0102 30.7238 10.8677 30.4445 10.7896 29.8904C10.7094 29.3222 10.7083 28.5594 10.7083 27.4713H9.70825ZM30.1249 23.9629C30.1249 25.2164 30.124 26.1097 30.0372 26.7972C29.9521 27.4706 29.791 27.8829 29.5136 28.2028L30.269 28.858C30.7252 28.3319 30.9309 27.701 31.0293 26.9225C31.1259 26.1579 31.1249 25.1904 31.1249 23.9629H30.1249ZM25.5442 30.3976C26.7593 30.224 27.7172 30.0881 28.4605 29.8843C29.2173 29.6769 29.8128 29.384 30.269 28.858L29.5136 28.2028C29.2361 28.5226 28.8508 28.7404 28.1961 28.9199C27.5279 29.1031 26.6437 29.2303 25.4027 29.4076L25.5442 30.3976ZM25.4027 5.59237C26.6437 5.76965 27.5279 5.89691 28.1961 6.08008C28.8508 6.25953 29.2361 6.47736 29.5136 6.79721L30.269 6.142C29.8128 5.61596 29.2173 5.32312 28.4605 5.11566C27.7172 4.91192 26.7593 4.77602 25.5442 4.60242L25.4027 5.59237ZM31.1249 11.0371C31.1249 9.80959 31.1259 8.84208 31.0293 8.0775C30.9309 7.29895 30.7252 6.66805 30.269 6.142L29.5136 6.79721C29.791 7.11706 29.9521 7.52937 30.0372 8.20282C30.124 8.89024 30.1249 9.78353 30.1249 11.0371H31.1249ZM14.8446 3.07392C13.7975 2.92432 12.9596 2.80344 12.2988 2.80225C11.6238 2.80104 11.0446 2.92263 10.5702 3.33404L11.2254 4.08949C11.4407 3.90282 11.7373 3.80124 12.297 3.80225C12.8707 3.80328 13.6261 3.90999 14.7032 4.06387L14.8446 3.07392ZM10.7083 7.5287C10.7083 6.44062 10.7094 5.67778 10.7896 5.10962C10.8677 4.55548 11.0102 4.27617 11.2254 4.08949L10.5702 3.33404C10.0959 3.74545 9.8936 4.30166 9.79935 4.96998C9.70708 5.6243 9.70825 6.47088 9.70825 7.5287H10.7083Z" fill="#222222"/>
<path d="M23.3333 17.5L23.7237 17.1877L23.9736 17.5L23.7237 17.8124L23.3333 17.5ZM5.83325 18C5.55711 18 5.33325 17.7762 5.33325 17.5C5.33325 17.2239 5.55711 17 5.83325 17V18ZM17.8904 9.896L23.7237 17.1877L22.9428 17.8124L17.1095 10.5207L17.8904 9.896ZM23.7237 17.8124L17.8904 25.104L17.1095 24.4793L22.9428 17.1877L23.7237 17.8124ZM23.3333 18H5.83325V17H23.3333V18Z" fill="#222222"/>
</svg>
